%TF.GenerationSoftware,KiCad,Pcbnew,10.0.3*%
%TF.CreationDate,2026-08-07T21:55:35-05:00*%
%TF.ProjectId,CTP_interposer,4354505f-696e-4746-9572-706f7365722e,rev?*%
%TF.SameCoordinates,Original*%
%TF.FileFunction,Other,User*%
%FSLAX46Y46*%
G04 Gerber Fmt 4.6, Leading zero omitted, Abs format (unit mm)*
G04 Created by KiCad (PCBNEW 10.0.3) date 2026-08-07 21:55:35*
%MOMM*%
%LPD*%
G01*
G04 APERTURE LIST*
%ADD10C,0.100000*%
%ADD11C,0.150000*%
G04 APERTURE END LIST*
D10*
X156641800Y-63347600D02*
X154000200Y-65989200D01*
X165112700Y-77381100D02*
X156654500Y-68922900D01*
X167284400Y-79908400D02*
X158597600Y-88595200D01*
D11*
X157349988Y-61350638D02*
X157254750Y-61303019D01*
X157254750Y-61303019D02*
X157111893Y-61303019D01*
X157111893Y-61303019D02*
X156969036Y-61350638D01*
X156969036Y-61350638D02*
X156873798Y-61445876D01*
X156873798Y-61445876D02*
X156826179Y-61541114D01*
X156826179Y-61541114D02*
X156778560Y-61731590D01*
X156778560Y-61731590D02*
X156778560Y-61874447D01*
X156778560Y-61874447D02*
X156826179Y-62064923D01*
X156826179Y-62064923D02*
X156873798Y-62160161D01*
X156873798Y-62160161D02*
X156969036Y-62255400D01*
X156969036Y-62255400D02*
X157111893Y-62303019D01*
X157111893Y-62303019D02*
X157207131Y-62303019D01*
X157207131Y-62303019D02*
X157349988Y-62255400D01*
X157349988Y-62255400D02*
X157397607Y-62207780D01*
X157397607Y-62207780D02*
X157397607Y-61874447D01*
X157397607Y-61874447D02*
X157207131Y-61874447D01*
X157969036Y-62303019D02*
X157873798Y-62255400D01*
X157873798Y-62255400D02*
X157826179Y-62207780D01*
X157826179Y-62207780D02*
X157778560Y-62112542D01*
X157778560Y-62112542D02*
X157778560Y-61826828D01*
X157778560Y-61826828D02*
X157826179Y-61731590D01*
X157826179Y-61731590D02*
X157873798Y-61683971D01*
X157873798Y-61683971D02*
X157969036Y-61636352D01*
X157969036Y-61636352D02*
X158111893Y-61636352D01*
X158111893Y-61636352D02*
X158207131Y-61683971D01*
X158207131Y-61683971D02*
X158254750Y-61731590D01*
X158254750Y-61731590D02*
X158302369Y-61826828D01*
X158302369Y-61826828D02*
X158302369Y-62112542D01*
X158302369Y-62112542D02*
X158254750Y-62207780D01*
X158254750Y-62207780D02*
X158207131Y-62255400D01*
X158207131Y-62255400D02*
X158111893Y-62303019D01*
X158111893Y-62303019D02*
X157969036Y-62303019D01*
X158873798Y-62303019D02*
X158778560Y-62255400D01*
X158778560Y-62255400D02*
X158730941Y-62160161D01*
X158730941Y-62160161D02*
X158730941Y-61303019D01*
X159683322Y-62303019D02*
X159683322Y-61303019D01*
X159683322Y-62255400D02*
X159588084Y-62303019D01*
X159588084Y-62303019D02*
X159397608Y-62303019D01*
X159397608Y-62303019D02*
X159302370Y-62255400D01*
X159302370Y-62255400D02*
X159254751Y-62207780D01*
X159254751Y-62207780D02*
X159207132Y-62112542D01*
X159207132Y-62112542D02*
X159207132Y-61826828D01*
X159207132Y-61826828D02*
X159254751Y-61731590D01*
X159254751Y-61731590D02*
X159302370Y-61683971D01*
X159302370Y-61683971D02*
X159397608Y-61636352D01*
X159397608Y-61636352D02*
X159588084Y-61636352D01*
X159588084Y-61636352D02*
X159683322Y-61683971D01*
X161254751Y-61779209D02*
X160921418Y-61779209D01*
X160921418Y-62303019D02*
X160921418Y-61303019D01*
X160921418Y-61303019D02*
X161397608Y-61303019D01*
X161778561Y-62303019D02*
X161778561Y-61636352D01*
X161778561Y-61303019D02*
X161730942Y-61350638D01*
X161730942Y-61350638D02*
X161778561Y-61398257D01*
X161778561Y-61398257D02*
X161826180Y-61350638D01*
X161826180Y-61350638D02*
X161778561Y-61303019D01*
X161778561Y-61303019D02*
X161778561Y-61398257D01*
X162254751Y-61636352D02*
X162254751Y-62303019D01*
X162254751Y-61731590D02*
X162302370Y-61683971D01*
X162302370Y-61683971D02*
X162397608Y-61636352D01*
X162397608Y-61636352D02*
X162540465Y-61636352D01*
X162540465Y-61636352D02*
X162635703Y-61683971D01*
X162635703Y-61683971D02*
X162683322Y-61779209D01*
X162683322Y-61779209D02*
X162683322Y-62303019D01*
X163588084Y-61636352D02*
X163588084Y-62445876D01*
X163588084Y-62445876D02*
X163540465Y-62541114D01*
X163540465Y-62541114D02*
X163492846Y-62588733D01*
X163492846Y-62588733D02*
X163397608Y-62636352D01*
X163397608Y-62636352D02*
X163254751Y-62636352D01*
X163254751Y-62636352D02*
X163159513Y-62588733D01*
X163588084Y-62255400D02*
X163492846Y-62303019D01*
X163492846Y-62303019D02*
X163302370Y-62303019D01*
X163302370Y-62303019D02*
X163207132Y-62255400D01*
X163207132Y-62255400D02*
X163159513Y-62207780D01*
X163159513Y-62207780D02*
X163111894Y-62112542D01*
X163111894Y-62112542D02*
X163111894Y-61826828D01*
X163111894Y-61826828D02*
X163159513Y-61731590D01*
X163159513Y-61731590D02*
X163207132Y-61683971D01*
X163207132Y-61683971D02*
X163302370Y-61636352D01*
X163302370Y-61636352D02*
X163492846Y-61636352D01*
X163492846Y-61636352D02*
X163588084Y-61683971D01*
X164445227Y-62255400D02*
X164349989Y-62303019D01*
X164349989Y-62303019D02*
X164159513Y-62303019D01*
X164159513Y-62303019D02*
X164064275Y-62255400D01*
X164064275Y-62255400D02*
X164016656Y-62160161D01*
X164016656Y-62160161D02*
X164016656Y-61779209D01*
X164016656Y-61779209D02*
X164064275Y-61683971D01*
X164064275Y-61683971D02*
X164159513Y-61636352D01*
X164159513Y-61636352D02*
X164349989Y-61636352D01*
X164349989Y-61636352D02*
X164445227Y-61683971D01*
X164445227Y-61683971D02*
X164492846Y-61779209D01*
X164492846Y-61779209D02*
X164492846Y-61874447D01*
X164492846Y-61874447D02*
X164016656Y-61969685D01*
X164921418Y-62303019D02*
X164921418Y-61636352D01*
X164921418Y-61826828D02*
X164969037Y-61731590D01*
X164969037Y-61731590D02*
X165016656Y-61683971D01*
X165016656Y-61683971D02*
X165111894Y-61636352D01*
X165111894Y-61636352D02*
X165207132Y-61636352D01*
X165492847Y-62255400D02*
X165588085Y-62303019D01*
X165588085Y-62303019D02*
X165778561Y-62303019D01*
X165778561Y-62303019D02*
X165873799Y-62255400D01*
X165873799Y-62255400D02*
X165921418Y-62160161D01*
X165921418Y-62160161D02*
X165921418Y-62112542D01*
X165921418Y-62112542D02*
X165873799Y-62017304D01*
X165873799Y-62017304D02*
X165778561Y-61969685D01*
X165778561Y-61969685D02*
X165635704Y-61969685D01*
X165635704Y-61969685D02*
X165540466Y-61922066D01*
X165540466Y-61922066D02*
X165492847Y-61826828D01*
X165492847Y-61826828D02*
X165492847Y-61779209D01*
X165492847Y-61779209D02*
X165540466Y-61683971D01*
X165540466Y-61683971D02*
X165635704Y-61636352D01*
X165635704Y-61636352D02*
X165778561Y-61636352D01*
X165778561Y-61636352D02*
X165873799Y-61683971D01*
X167254752Y-62303019D02*
X167159514Y-62255400D01*
X167159514Y-62255400D02*
X167111895Y-62207780D01*
X167111895Y-62207780D02*
X167064276Y-62112542D01*
X167064276Y-62112542D02*
X167064276Y-61826828D01*
X167064276Y-61826828D02*
X167111895Y-61731590D01*
X167111895Y-61731590D02*
X167159514Y-61683971D01*
X167159514Y-61683971D02*
X167254752Y-61636352D01*
X167254752Y-61636352D02*
X167397609Y-61636352D01*
X167397609Y-61636352D02*
X167492847Y-61683971D01*
X167492847Y-61683971D02*
X167540466Y-61731590D01*
X167540466Y-61731590D02*
X167588085Y-61826828D01*
X167588085Y-61826828D02*
X167588085Y-62112542D01*
X167588085Y-62112542D02*
X167540466Y-62207780D01*
X167540466Y-62207780D02*
X167492847Y-62255400D01*
X167492847Y-62255400D02*
X167397609Y-62303019D01*
X167397609Y-62303019D02*
X167254752Y-62303019D01*
X168016657Y-61636352D02*
X168016657Y-62303019D01*
X168016657Y-61731590D02*
X168064276Y-61683971D01*
X168064276Y-61683971D02*
X168159514Y-61636352D01*
X168159514Y-61636352D02*
X168302371Y-61636352D01*
X168302371Y-61636352D02*
X168397609Y-61683971D01*
X168397609Y-61683971D02*
X168445228Y-61779209D01*
X168445228Y-61779209D02*
X168445228Y-62303019D01*
X169540467Y-61636352D02*
X169921419Y-61636352D01*
X169683324Y-61303019D02*
X169683324Y-62160161D01*
X169683324Y-62160161D02*
X169730943Y-62255400D01*
X169730943Y-62255400D02*
X169826181Y-62303019D01*
X169826181Y-62303019D02*
X169921419Y-62303019D01*
X170397610Y-62303019D02*
X170302372Y-62255400D01*
X170302372Y-62255400D02*
X170254753Y-62207780D01*
X170254753Y-62207780D02*
X170207134Y-62112542D01*
X170207134Y-62112542D02*
X170207134Y-61826828D01*
X170207134Y-61826828D02*
X170254753Y-61731590D01*
X170254753Y-61731590D02*
X170302372Y-61683971D01*
X170302372Y-61683971D02*
X170397610Y-61636352D01*
X170397610Y-61636352D02*
X170540467Y-61636352D01*
X170540467Y-61636352D02*
X170635705Y-61683971D01*
X170635705Y-61683971D02*
X170683324Y-61731590D01*
X170683324Y-61731590D02*
X170730943Y-61826828D01*
X170730943Y-61826828D02*
X170730943Y-62112542D01*
X170730943Y-62112542D02*
X170683324Y-62207780D01*
X170683324Y-62207780D02*
X170635705Y-62255400D01*
X170635705Y-62255400D02*
X170540467Y-62303019D01*
X170540467Y-62303019D02*
X170397610Y-62303019D01*
X171159515Y-61636352D02*
X171159515Y-62636352D01*
X171159515Y-61683971D02*
X171254753Y-61636352D01*
X171254753Y-61636352D02*
X171445229Y-61636352D01*
X171445229Y-61636352D02*
X171540467Y-61683971D01*
X171540467Y-61683971D02*
X171588086Y-61731590D01*
X171588086Y-61731590D02*
X171635705Y-61826828D01*
X171635705Y-61826828D02*
X171635705Y-62112542D01*
X171635705Y-62112542D02*
X171588086Y-62207780D01*
X171588086Y-62207780D02*
X171540467Y-62255400D01*
X171540467Y-62255400D02*
X171445229Y-62303019D01*
X171445229Y-62303019D02*
X171254753Y-62303019D01*
X171254753Y-62303019D02*
X171159515Y-62255400D01*
X173254753Y-62255400D02*
X173159515Y-62303019D01*
X173159515Y-62303019D02*
X172969039Y-62303019D01*
X172969039Y-62303019D02*
X172873801Y-62255400D01*
X172873801Y-62255400D02*
X172826182Y-62207780D01*
X172826182Y-62207780D02*
X172778563Y-62112542D01*
X172778563Y-62112542D02*
X172778563Y-61826828D01*
X172778563Y-61826828D02*
X172826182Y-61731590D01*
X172826182Y-61731590D02*
X172873801Y-61683971D01*
X172873801Y-61683971D02*
X172969039Y-61636352D01*
X172969039Y-61636352D02*
X173159515Y-61636352D01*
X173159515Y-61636352D02*
X173254753Y-61683971D01*
X173826182Y-62303019D02*
X173730944Y-62255400D01*
X173730944Y-62255400D02*
X173683325Y-62207780D01*
X173683325Y-62207780D02*
X173635706Y-62112542D01*
X173635706Y-62112542D02*
X173635706Y-61826828D01*
X173635706Y-61826828D02*
X173683325Y-61731590D01*
X173683325Y-61731590D02*
X173730944Y-61683971D01*
X173730944Y-61683971D02*
X173826182Y-61636352D01*
X173826182Y-61636352D02*
X173969039Y-61636352D01*
X173969039Y-61636352D02*
X174064277Y-61683971D01*
X174064277Y-61683971D02*
X174111896Y-61731590D01*
X174111896Y-61731590D02*
X174159515Y-61826828D01*
X174159515Y-61826828D02*
X174159515Y-62112542D01*
X174159515Y-62112542D02*
X174111896Y-62207780D01*
X174111896Y-62207780D02*
X174064277Y-62255400D01*
X174064277Y-62255400D02*
X173969039Y-62303019D01*
X173969039Y-62303019D02*
X173826182Y-62303019D01*
X174588087Y-61636352D02*
X174588087Y-62636352D01*
X174588087Y-61683971D02*
X174683325Y-61636352D01*
X174683325Y-61636352D02*
X174873801Y-61636352D01*
X174873801Y-61636352D02*
X174969039Y-61683971D01*
X174969039Y-61683971D02*
X175016658Y-61731590D01*
X175016658Y-61731590D02*
X175064277Y-61826828D01*
X175064277Y-61826828D02*
X175064277Y-62112542D01*
X175064277Y-62112542D02*
X175016658Y-62207780D01*
X175016658Y-62207780D02*
X174969039Y-62255400D01*
X174969039Y-62255400D02*
X174873801Y-62303019D01*
X174873801Y-62303019D02*
X174683325Y-62303019D01*
X174683325Y-62303019D02*
X174588087Y-62255400D01*
X175492849Y-61636352D02*
X175492849Y-62636352D01*
X175492849Y-61683971D02*
X175588087Y-61636352D01*
X175588087Y-61636352D02*
X175778563Y-61636352D01*
X175778563Y-61636352D02*
X175873801Y-61683971D01*
X175873801Y-61683971D02*
X175921420Y-61731590D01*
X175921420Y-61731590D02*
X175969039Y-61826828D01*
X175969039Y-61826828D02*
X175969039Y-62112542D01*
X175969039Y-62112542D02*
X175921420Y-62207780D01*
X175921420Y-62207780D02*
X175873801Y-62255400D01*
X175873801Y-62255400D02*
X175778563Y-62303019D01*
X175778563Y-62303019D02*
X175588087Y-62303019D01*
X175588087Y-62303019D02*
X175492849Y-62255400D01*
X176778563Y-62255400D02*
X176683325Y-62303019D01*
X176683325Y-62303019D02*
X176492849Y-62303019D01*
X176492849Y-62303019D02*
X176397611Y-62255400D01*
X176397611Y-62255400D02*
X176349992Y-62160161D01*
X176349992Y-62160161D02*
X176349992Y-61779209D01*
X176349992Y-61779209D02*
X176397611Y-61683971D01*
X176397611Y-61683971D02*
X176492849Y-61636352D01*
X176492849Y-61636352D02*
X176683325Y-61636352D01*
X176683325Y-61636352D02*
X176778563Y-61683971D01*
X176778563Y-61683971D02*
X176826182Y-61779209D01*
X176826182Y-61779209D02*
X176826182Y-61874447D01*
X176826182Y-61874447D02*
X176349992Y-61969685D01*
X177254754Y-62303019D02*
X177254754Y-61636352D01*
X177254754Y-61826828D02*
X177302373Y-61731590D01*
X177302373Y-61731590D02*
X177349992Y-61683971D01*
X177349992Y-61683971D02*
X177445230Y-61636352D01*
X177445230Y-61636352D02*
X177540468Y-61636352D01*
X168614960Y-75847025D02*
X168662579Y-75799406D01*
X168662579Y-75799406D02*
X168757817Y-75751787D01*
X168757817Y-75751787D02*
X168995912Y-75751787D01*
X168995912Y-75751787D02*
X169091150Y-75799406D01*
X169091150Y-75799406D02*
X169138769Y-75847025D01*
X169138769Y-75847025D02*
X169186388Y-75942263D01*
X169186388Y-75942263D02*
X169186388Y-76037501D01*
X169186388Y-76037501D02*
X169138769Y-76180358D01*
X169138769Y-76180358D02*
X168567341Y-76751787D01*
X168567341Y-76751787D02*
X169186388Y-76751787D01*
X169519722Y-76751787D02*
X170043531Y-76085120D01*
X169519722Y-76085120D02*
X170043531Y-76751787D01*
X171186389Y-76085120D02*
X171186389Y-77085120D01*
X171186389Y-76132739D02*
X171281627Y-76085120D01*
X171281627Y-76085120D02*
X171472103Y-76085120D01*
X171472103Y-76085120D02*
X171567341Y-76132739D01*
X171567341Y-76132739D02*
X171614960Y-76180358D01*
X171614960Y-76180358D02*
X171662579Y-76275596D01*
X171662579Y-76275596D02*
X171662579Y-76561310D01*
X171662579Y-76561310D02*
X171614960Y-76656548D01*
X171614960Y-76656548D02*
X171567341Y-76704168D01*
X171567341Y-76704168D02*
X171472103Y-76751787D01*
X171472103Y-76751787D02*
X171281627Y-76751787D01*
X171281627Y-76751787D02*
X171186389Y-76704168D01*
X172234008Y-76751787D02*
X172138770Y-76704168D01*
X172138770Y-76704168D02*
X172091151Y-76656548D01*
X172091151Y-76656548D02*
X172043532Y-76561310D01*
X172043532Y-76561310D02*
X172043532Y-76275596D01*
X172043532Y-76275596D02*
X172091151Y-76180358D01*
X172091151Y-76180358D02*
X172138770Y-76132739D01*
X172138770Y-76132739D02*
X172234008Y-76085120D01*
X172234008Y-76085120D02*
X172376865Y-76085120D01*
X172376865Y-76085120D02*
X172472103Y-76132739D01*
X172472103Y-76132739D02*
X172519722Y-76180358D01*
X172519722Y-76180358D02*
X172567341Y-76275596D01*
X172567341Y-76275596D02*
X172567341Y-76561310D01*
X172567341Y-76561310D02*
X172519722Y-76656548D01*
X172519722Y-76656548D02*
X172472103Y-76704168D01*
X172472103Y-76704168D02*
X172376865Y-76751787D01*
X172376865Y-76751787D02*
X172234008Y-76751787D01*
X173138770Y-76751787D02*
X173043532Y-76704168D01*
X173043532Y-76704168D02*
X172995913Y-76608929D01*
X172995913Y-76608929D02*
X172995913Y-75751787D01*
X173424485Y-76085120D02*
X173662580Y-76751787D01*
X173900675Y-76085120D02*
X173662580Y-76751787D01*
X173662580Y-76751787D02*
X173567342Y-76989882D01*
X173567342Y-76989882D02*
X173519723Y-77037501D01*
X173519723Y-77037501D02*
X173424485Y-77085120D01*
X174281628Y-76751787D02*
X174281628Y-76085120D01*
X174281628Y-75751787D02*
X174234009Y-75799406D01*
X174234009Y-75799406D02*
X174281628Y-75847025D01*
X174281628Y-75847025D02*
X174329247Y-75799406D01*
X174329247Y-75799406D02*
X174281628Y-75751787D01*
X174281628Y-75751787D02*
X174281628Y-75847025D01*
X174757818Y-76751787D02*
X174757818Y-76085120D01*
X174757818Y-76180358D02*
X174805437Y-76132739D01*
X174805437Y-76132739D02*
X174900675Y-76085120D01*
X174900675Y-76085120D02*
X175043532Y-76085120D01*
X175043532Y-76085120D02*
X175138770Y-76132739D01*
X175138770Y-76132739D02*
X175186389Y-76227977D01*
X175186389Y-76227977D02*
X175186389Y-76751787D01*
X175186389Y-76227977D02*
X175234008Y-76132739D01*
X175234008Y-76132739D02*
X175329246Y-76085120D01*
X175329246Y-76085120D02*
X175472103Y-76085120D01*
X175472103Y-76085120D02*
X175567342Y-76132739D01*
X175567342Y-76132739D02*
X175614961Y-76227977D01*
X175614961Y-76227977D02*
X175614961Y-76751787D01*
X176091151Y-76751787D02*
X176091151Y-76085120D01*
X176091151Y-75751787D02*
X176043532Y-75799406D01*
X176043532Y-75799406D02*
X176091151Y-75847025D01*
X176091151Y-75847025D02*
X176138770Y-75799406D01*
X176138770Y-75799406D02*
X176091151Y-75751787D01*
X176091151Y-75751787D02*
X176091151Y-75847025D01*
X176995912Y-76751787D02*
X176995912Y-75751787D01*
X176995912Y-76704168D02*
X176900674Y-76751787D01*
X176900674Y-76751787D02*
X176710198Y-76751787D01*
X176710198Y-76751787D02*
X176614960Y-76704168D01*
X176614960Y-76704168D02*
X176567341Y-76656548D01*
X176567341Y-76656548D02*
X176519722Y-76561310D01*
X176519722Y-76561310D02*
X176519722Y-76275596D01*
X176519722Y-76275596D02*
X176567341Y-76180358D01*
X176567341Y-76180358D02*
X176614960Y-76132739D01*
X176614960Y-76132739D02*
X176710198Y-76085120D01*
X176710198Y-76085120D02*
X176900674Y-76085120D01*
X176900674Y-76085120D02*
X176995912Y-76132739D01*
X177853055Y-76704168D02*
X177757817Y-76751787D01*
X177757817Y-76751787D02*
X177567341Y-76751787D01*
X177567341Y-76751787D02*
X177472103Y-76704168D01*
X177472103Y-76704168D02*
X177424484Y-76608929D01*
X177424484Y-76608929D02*
X177424484Y-76227977D01*
X177424484Y-76227977D02*
X177472103Y-76132739D01*
X177472103Y-76132739D02*
X177567341Y-76085120D01*
X177567341Y-76085120D02*
X177757817Y-76085120D01*
X177757817Y-76085120D02*
X177853055Y-76132739D01*
X177853055Y-76132739D02*
X177900674Y-76227977D01*
X177900674Y-76227977D02*
X177900674Y-76323215D01*
X177900674Y-76323215D02*
X177424484Y-76418453D01*
X179043532Y-76704168D02*
X179138770Y-76751787D01*
X179138770Y-76751787D02*
X179329246Y-76751787D01*
X179329246Y-76751787D02*
X179424484Y-76704168D01*
X179424484Y-76704168D02*
X179472103Y-76608929D01*
X179472103Y-76608929D02*
X179472103Y-76561310D01*
X179472103Y-76561310D02*
X179424484Y-76466072D01*
X179424484Y-76466072D02*
X179329246Y-76418453D01*
X179329246Y-76418453D02*
X179186389Y-76418453D01*
X179186389Y-76418453D02*
X179091151Y-76370834D01*
X179091151Y-76370834D02*
X179043532Y-76275596D01*
X179043532Y-76275596D02*
X179043532Y-76227977D01*
X179043532Y-76227977D02*
X179091151Y-76132739D01*
X179091151Y-76132739D02*
X179186389Y-76085120D01*
X179186389Y-76085120D02*
X179329246Y-76085120D01*
X179329246Y-76085120D02*
X179424484Y-76132739D01*
X179757818Y-76085120D02*
X180138770Y-76085120D01*
X179900675Y-75751787D02*
X179900675Y-76608929D01*
X179900675Y-76608929D02*
X179948294Y-76704168D01*
X179948294Y-76704168D02*
X180043532Y-76751787D01*
X180043532Y-76751787D02*
X180138770Y-76751787D01*
X180472104Y-76751787D02*
X180472104Y-76085120D01*
X180472104Y-75751787D02*
X180424485Y-75799406D01*
X180424485Y-75799406D02*
X180472104Y-75847025D01*
X180472104Y-75847025D02*
X180519723Y-75799406D01*
X180519723Y-75799406D02*
X180472104Y-75751787D01*
X180472104Y-75751787D02*
X180472104Y-75847025D01*
X180805437Y-76085120D02*
X181186389Y-76085120D01*
X180948294Y-76751787D02*
X180948294Y-75894644D01*
X180948294Y-75894644D02*
X180995913Y-75799406D01*
X180995913Y-75799406D02*
X181091151Y-75751787D01*
X181091151Y-75751787D02*
X181186389Y-75751787D01*
X181376866Y-76085120D02*
X181757818Y-76085120D01*
X181519723Y-76751787D02*
X181519723Y-75894644D01*
X181519723Y-75894644D02*
X181567342Y-75799406D01*
X181567342Y-75799406D02*
X181662580Y-75751787D01*
X181662580Y-75751787D02*
X181757818Y-75751787D01*
X182472104Y-76704168D02*
X182376866Y-76751787D01*
X182376866Y-76751787D02*
X182186390Y-76751787D01*
X182186390Y-76751787D02*
X182091152Y-76704168D01*
X182091152Y-76704168D02*
X182043533Y-76608929D01*
X182043533Y-76608929D02*
X182043533Y-76227977D01*
X182043533Y-76227977D02*
X182091152Y-76132739D01*
X182091152Y-76132739D02*
X182186390Y-76085120D01*
X182186390Y-76085120D02*
X182376866Y-76085120D01*
X182376866Y-76085120D02*
X182472104Y-76132739D01*
X182472104Y-76132739D02*
X182519723Y-76227977D01*
X182519723Y-76227977D02*
X182519723Y-76323215D01*
X182519723Y-76323215D02*
X182043533Y-76418453D01*
X182948295Y-76085120D02*
X182948295Y-76751787D01*
X182948295Y-76180358D02*
X182995914Y-76132739D01*
X182995914Y-76132739D02*
X183091152Y-76085120D01*
X183091152Y-76085120D02*
X183234009Y-76085120D01*
X183234009Y-76085120D02*
X183329247Y-76132739D01*
X183329247Y-76132739D02*
X183376866Y-76227977D01*
X183376866Y-76227977D02*
X183376866Y-76751787D01*
X184234009Y-76704168D02*
X184138771Y-76751787D01*
X184138771Y-76751787D02*
X183948295Y-76751787D01*
X183948295Y-76751787D02*
X183853057Y-76704168D01*
X183853057Y-76704168D02*
X183805438Y-76608929D01*
X183805438Y-76608929D02*
X183805438Y-76227977D01*
X183805438Y-76227977D02*
X183853057Y-76132739D01*
X183853057Y-76132739D02*
X183948295Y-76085120D01*
X183948295Y-76085120D02*
X184138771Y-76085120D01*
X184138771Y-76085120D02*
X184234009Y-76132739D01*
X184234009Y-76132739D02*
X184281628Y-76227977D01*
X184281628Y-76227977D02*
X184281628Y-76323215D01*
X184281628Y-76323215D02*
X183805438Y-76418453D01*
X184710200Y-76751787D02*
X184710200Y-76085120D01*
X184710200Y-76275596D02*
X184757819Y-76180358D01*
X184757819Y-76180358D02*
X184805438Y-76132739D01*
X184805438Y-76132739D02*
X184900676Y-76085120D01*
X184900676Y-76085120D02*
X184995914Y-76085120D01*
X185281629Y-76704168D02*
X185376867Y-76751787D01*
X185376867Y-76751787D02*
X185567343Y-76751787D01*
X185567343Y-76751787D02*
X185662581Y-76704168D01*
X185662581Y-76704168D02*
X185710200Y-76608929D01*
X185710200Y-76608929D02*
X185710200Y-76561310D01*
X185710200Y-76561310D02*
X185662581Y-76466072D01*
X185662581Y-76466072D02*
X185567343Y-76418453D01*
X185567343Y-76418453D02*
X185424486Y-76418453D01*
X185424486Y-76418453D02*
X185329248Y-76370834D01*
X185329248Y-76370834D02*
X185281629Y-76275596D01*
X185281629Y-76275596D02*
X185281629Y-76227977D01*
X185281629Y-76227977D02*
X185329248Y-76132739D01*
X185329248Y-76132739D02*
X185424486Y-76085120D01*
X185424486Y-76085120D02*
X185567343Y-76085120D01*
X185567343Y-76085120D02*
X185662581Y-76132739D01*
X168853055Y-77361731D02*
X168948293Y-77361731D01*
X168948293Y-77361731D02*
X169043531Y-77409350D01*
X169043531Y-77409350D02*
X169091150Y-77456969D01*
X169091150Y-77456969D02*
X169138769Y-77552207D01*
X169138769Y-77552207D02*
X169186388Y-77742683D01*
X169186388Y-77742683D02*
X169186388Y-77980778D01*
X169186388Y-77980778D02*
X169138769Y-78171254D01*
X169138769Y-78171254D02*
X169091150Y-78266492D01*
X169091150Y-78266492D02*
X169043531Y-78314112D01*
X169043531Y-78314112D02*
X168948293Y-78361731D01*
X168948293Y-78361731D02*
X168853055Y-78361731D01*
X168853055Y-78361731D02*
X168757817Y-78314112D01*
X168757817Y-78314112D02*
X168710198Y-78266492D01*
X168710198Y-78266492D02*
X168662579Y-78171254D01*
X168662579Y-78171254D02*
X168614960Y-77980778D01*
X168614960Y-77980778D02*
X168614960Y-77742683D01*
X168614960Y-77742683D02*
X168662579Y-77552207D01*
X168662579Y-77552207D02*
X168710198Y-77456969D01*
X168710198Y-77456969D02*
X168757817Y-77409350D01*
X168757817Y-77409350D02*
X168853055Y-77361731D01*
X169614960Y-78266492D02*
X169662579Y-78314112D01*
X169662579Y-78314112D02*
X169614960Y-78361731D01*
X169614960Y-78361731D02*
X169567341Y-78314112D01*
X169567341Y-78314112D02*
X169614960Y-78266492D01*
X169614960Y-78266492D02*
X169614960Y-78361731D01*
X170043531Y-77456969D02*
X170091150Y-77409350D01*
X170091150Y-77409350D02*
X170186388Y-77361731D01*
X170186388Y-77361731D02*
X170424483Y-77361731D01*
X170424483Y-77361731D02*
X170519721Y-77409350D01*
X170519721Y-77409350D02*
X170567340Y-77456969D01*
X170567340Y-77456969D02*
X170614959Y-77552207D01*
X170614959Y-77552207D02*
X170614959Y-77647445D01*
X170614959Y-77647445D02*
X170567340Y-77790302D01*
X170567340Y-77790302D02*
X169995912Y-78361731D01*
X169995912Y-78361731D02*
X170614959Y-78361731D01*
X171043531Y-78361731D02*
X171043531Y-77695064D01*
X171043531Y-77790302D02*
X171091150Y-77742683D01*
X171091150Y-77742683D02*
X171186388Y-77695064D01*
X171186388Y-77695064D02*
X171329245Y-77695064D01*
X171329245Y-77695064D02*
X171424483Y-77742683D01*
X171424483Y-77742683D02*
X171472102Y-77837921D01*
X171472102Y-77837921D02*
X171472102Y-78361731D01*
X171472102Y-77837921D02*
X171519721Y-77742683D01*
X171519721Y-77742683D02*
X171614959Y-77695064D01*
X171614959Y-77695064D02*
X171757816Y-77695064D01*
X171757816Y-77695064D02*
X171853055Y-77742683D01*
X171853055Y-77742683D02*
X171900674Y-77837921D01*
X171900674Y-77837921D02*
X171900674Y-78361731D01*
X172376864Y-78361731D02*
X172376864Y-77695064D01*
X172376864Y-77790302D02*
X172424483Y-77742683D01*
X172424483Y-77742683D02*
X172519721Y-77695064D01*
X172519721Y-77695064D02*
X172662578Y-77695064D01*
X172662578Y-77695064D02*
X172757816Y-77742683D01*
X172757816Y-77742683D02*
X172805435Y-77837921D01*
X172805435Y-77837921D02*
X172805435Y-78361731D01*
X172805435Y-77837921D02*
X172853054Y-77742683D01*
X172853054Y-77742683D02*
X172948292Y-77695064D01*
X172948292Y-77695064D02*
X173091149Y-77695064D01*
X173091149Y-77695064D02*
X173186388Y-77742683D01*
X173186388Y-77742683D02*
X173234007Y-77837921D01*
X173234007Y-77837921D02*
X173234007Y-78361731D01*
X174329245Y-77695064D02*
X174710197Y-77695064D01*
X174472102Y-77361731D02*
X174472102Y-78218873D01*
X174472102Y-78218873D02*
X174519721Y-78314112D01*
X174519721Y-78314112D02*
X174614959Y-78361731D01*
X174614959Y-78361731D02*
X174710197Y-78361731D01*
X175043531Y-78361731D02*
X175043531Y-77361731D01*
X175472102Y-78361731D02*
X175472102Y-77837921D01*
X175472102Y-77837921D02*
X175424483Y-77742683D01*
X175424483Y-77742683D02*
X175329245Y-77695064D01*
X175329245Y-77695064D02*
X175186388Y-77695064D01*
X175186388Y-77695064D02*
X175091150Y-77742683D01*
X175091150Y-77742683D02*
X175043531Y-77790302D01*
X175948293Y-78361731D02*
X175948293Y-77695064D01*
X175948293Y-77361731D02*
X175900674Y-77409350D01*
X175900674Y-77409350D02*
X175948293Y-77456969D01*
X175948293Y-77456969D02*
X175995912Y-77409350D01*
X175995912Y-77409350D02*
X175948293Y-77361731D01*
X175948293Y-77361731D02*
X175948293Y-77456969D01*
X176853054Y-78314112D02*
X176757816Y-78361731D01*
X176757816Y-78361731D02*
X176567340Y-78361731D01*
X176567340Y-78361731D02*
X176472102Y-78314112D01*
X176472102Y-78314112D02*
X176424483Y-78266492D01*
X176424483Y-78266492D02*
X176376864Y-78171254D01*
X176376864Y-78171254D02*
X176376864Y-77885540D01*
X176376864Y-77885540D02*
X176424483Y-77790302D01*
X176424483Y-77790302D02*
X176472102Y-77742683D01*
X176472102Y-77742683D02*
X176567340Y-77695064D01*
X176567340Y-77695064D02*
X176757816Y-77695064D01*
X176757816Y-77695064D02*
X176853054Y-77742683D01*
X177281626Y-78361731D02*
X177281626Y-77361731D01*
X177376864Y-77980778D02*
X177662578Y-78361731D01*
X177662578Y-77695064D02*
X177281626Y-78076016D01*
X178091150Y-77695064D02*
X178091150Y-78361731D01*
X178091150Y-77790302D02*
X178138769Y-77742683D01*
X178138769Y-77742683D02*
X178234007Y-77695064D01*
X178234007Y-77695064D02*
X178376864Y-77695064D01*
X178376864Y-77695064D02*
X178472102Y-77742683D01*
X178472102Y-77742683D02*
X178519721Y-77837921D01*
X178519721Y-77837921D02*
X178519721Y-78361731D01*
X179376864Y-78314112D02*
X179281626Y-78361731D01*
X179281626Y-78361731D02*
X179091150Y-78361731D01*
X179091150Y-78361731D02*
X178995912Y-78314112D01*
X178995912Y-78314112D02*
X178948293Y-78218873D01*
X178948293Y-78218873D02*
X178948293Y-77837921D01*
X178948293Y-77837921D02*
X178995912Y-77742683D01*
X178995912Y-77742683D02*
X179091150Y-77695064D01*
X179091150Y-77695064D02*
X179281626Y-77695064D01*
X179281626Y-77695064D02*
X179376864Y-77742683D01*
X179376864Y-77742683D02*
X179424483Y-77837921D01*
X179424483Y-77837921D02*
X179424483Y-77933159D01*
X179424483Y-77933159D02*
X178948293Y-78028397D01*
X179805436Y-78314112D02*
X179900674Y-78361731D01*
X179900674Y-78361731D02*
X180091150Y-78361731D01*
X180091150Y-78361731D02*
X180186388Y-78314112D01*
X180186388Y-78314112D02*
X180234007Y-78218873D01*
X180234007Y-78218873D02*
X180234007Y-78171254D01*
X180234007Y-78171254D02*
X180186388Y-78076016D01*
X180186388Y-78076016D02*
X180091150Y-78028397D01*
X180091150Y-78028397D02*
X179948293Y-78028397D01*
X179948293Y-78028397D02*
X179853055Y-77980778D01*
X179853055Y-77980778D02*
X179805436Y-77885540D01*
X179805436Y-77885540D02*
X179805436Y-77837921D01*
X179805436Y-77837921D02*
X179853055Y-77742683D01*
X179853055Y-77742683D02*
X179948293Y-77695064D01*
X179948293Y-77695064D02*
X180091150Y-77695064D01*
X180091150Y-77695064D02*
X180186388Y-77742683D01*
X180614960Y-78314112D02*
X180710198Y-78361731D01*
X180710198Y-78361731D02*
X180900674Y-78361731D01*
X180900674Y-78361731D02*
X180995912Y-78314112D01*
X180995912Y-78314112D02*
X181043531Y-78218873D01*
X181043531Y-78218873D02*
X181043531Y-78171254D01*
X181043531Y-78171254D02*
X180995912Y-78076016D01*
X180995912Y-78076016D02*
X180900674Y-78028397D01*
X180900674Y-78028397D02*
X180757817Y-78028397D01*
X180757817Y-78028397D02*
X180662579Y-77980778D01*
X180662579Y-77980778D02*
X180614960Y-77885540D01*
X180614960Y-77885540D02*
X180614960Y-77837921D01*
X180614960Y-77837921D02*
X180662579Y-77742683D01*
X180662579Y-77742683D02*
X180757817Y-77695064D01*
X180757817Y-77695064D02*
X180900674Y-77695064D01*
X180900674Y-77695064D02*
X180995912Y-77742683D01*
X168614960Y-79685960D02*
X169091150Y-79685960D01*
X168519722Y-79971675D02*
X168853055Y-78971675D01*
X168853055Y-78971675D02*
X169186388Y-79971675D01*
X169376865Y-79305008D02*
X169757817Y-79305008D01*
X169519722Y-78971675D02*
X169519722Y-79828817D01*
X169519722Y-79828817D02*
X169567341Y-79924056D01*
X169567341Y-79924056D02*
X169662579Y-79971675D01*
X169662579Y-79971675D02*
X169757817Y-79971675D01*
X169948294Y-79305008D02*
X170329246Y-79305008D01*
X170091151Y-78971675D02*
X170091151Y-79828817D01*
X170091151Y-79828817D02*
X170138770Y-79924056D01*
X170138770Y-79924056D02*
X170234008Y-79971675D01*
X170234008Y-79971675D02*
X170329246Y-79971675D01*
X171091151Y-79971675D02*
X171091151Y-79447865D01*
X171091151Y-79447865D02*
X171043532Y-79352627D01*
X171043532Y-79352627D02*
X170948294Y-79305008D01*
X170948294Y-79305008D02*
X170757818Y-79305008D01*
X170757818Y-79305008D02*
X170662580Y-79352627D01*
X171091151Y-79924056D02*
X170995913Y-79971675D01*
X170995913Y-79971675D02*
X170757818Y-79971675D01*
X170757818Y-79971675D02*
X170662580Y-79924056D01*
X170662580Y-79924056D02*
X170614961Y-79828817D01*
X170614961Y-79828817D02*
X170614961Y-79733579D01*
X170614961Y-79733579D02*
X170662580Y-79638341D01*
X170662580Y-79638341D02*
X170757818Y-79590722D01*
X170757818Y-79590722D02*
X170995913Y-79590722D01*
X170995913Y-79590722D02*
X171091151Y-79543103D01*
X171995913Y-79924056D02*
X171900675Y-79971675D01*
X171900675Y-79971675D02*
X171710199Y-79971675D01*
X171710199Y-79971675D02*
X171614961Y-79924056D01*
X171614961Y-79924056D02*
X171567342Y-79876436D01*
X171567342Y-79876436D02*
X171519723Y-79781198D01*
X171519723Y-79781198D02*
X171519723Y-79495484D01*
X171519723Y-79495484D02*
X171567342Y-79400246D01*
X171567342Y-79400246D02*
X171614961Y-79352627D01*
X171614961Y-79352627D02*
X171710199Y-79305008D01*
X171710199Y-79305008D02*
X171900675Y-79305008D01*
X171900675Y-79305008D02*
X171995913Y-79352627D01*
X172424485Y-79971675D02*
X172424485Y-78971675D01*
X172853056Y-79971675D02*
X172853056Y-79447865D01*
X172853056Y-79447865D02*
X172805437Y-79352627D01*
X172805437Y-79352627D02*
X172710199Y-79305008D01*
X172710199Y-79305008D02*
X172567342Y-79305008D01*
X172567342Y-79305008D02*
X172472104Y-79352627D01*
X172472104Y-79352627D02*
X172424485Y-79400246D01*
X173710199Y-79924056D02*
X173614961Y-79971675D01*
X173614961Y-79971675D02*
X173424485Y-79971675D01*
X173424485Y-79971675D02*
X173329247Y-79924056D01*
X173329247Y-79924056D02*
X173281628Y-79828817D01*
X173281628Y-79828817D02*
X173281628Y-79447865D01*
X173281628Y-79447865D02*
X173329247Y-79352627D01*
X173329247Y-79352627D02*
X173424485Y-79305008D01*
X173424485Y-79305008D02*
X173614961Y-79305008D01*
X173614961Y-79305008D02*
X173710199Y-79352627D01*
X173710199Y-79352627D02*
X173757818Y-79447865D01*
X173757818Y-79447865D02*
X173757818Y-79543103D01*
X173757818Y-79543103D02*
X173281628Y-79638341D01*
X174614961Y-79971675D02*
X174614961Y-78971675D01*
X174614961Y-79924056D02*
X174519723Y-79971675D01*
X174519723Y-79971675D02*
X174329247Y-79971675D01*
X174329247Y-79971675D02*
X174234009Y-79924056D01*
X174234009Y-79924056D02*
X174186390Y-79876436D01*
X174186390Y-79876436D02*
X174138771Y-79781198D01*
X174138771Y-79781198D02*
X174138771Y-79495484D01*
X174138771Y-79495484D02*
X174186390Y-79400246D01*
X174186390Y-79400246D02*
X174234009Y-79352627D01*
X174234009Y-79352627D02*
X174329247Y-79305008D01*
X174329247Y-79305008D02*
X174519723Y-79305008D01*
X174519723Y-79305008D02*
X174614961Y-79352627D01*
X175710200Y-79305008D02*
X176091152Y-79305008D01*
X175853057Y-78971675D02*
X175853057Y-79828817D01*
X175853057Y-79828817D02*
X175900676Y-79924056D01*
X175900676Y-79924056D02*
X175995914Y-79971675D01*
X175995914Y-79971675D02*
X176091152Y-79971675D01*
X176567343Y-79971675D02*
X176472105Y-79924056D01*
X176472105Y-79924056D02*
X176424486Y-79876436D01*
X176424486Y-79876436D02*
X176376867Y-79781198D01*
X176376867Y-79781198D02*
X176376867Y-79495484D01*
X176376867Y-79495484D02*
X176424486Y-79400246D01*
X176424486Y-79400246D02*
X176472105Y-79352627D01*
X176472105Y-79352627D02*
X176567343Y-79305008D01*
X176567343Y-79305008D02*
X176710200Y-79305008D01*
X176710200Y-79305008D02*
X176805438Y-79352627D01*
X176805438Y-79352627D02*
X176853057Y-79400246D01*
X176853057Y-79400246D02*
X176900676Y-79495484D01*
X176900676Y-79495484D02*
X176900676Y-79781198D01*
X176900676Y-79781198D02*
X176853057Y-79876436D01*
X176853057Y-79876436D02*
X176805438Y-79924056D01*
X176805438Y-79924056D02*
X176710200Y-79971675D01*
X176710200Y-79971675D02*
X176567343Y-79971675D01*
X177948296Y-79305008D02*
X178329248Y-79305008D01*
X178091153Y-79971675D02*
X178091153Y-79114532D01*
X178091153Y-79114532D02*
X178138772Y-79019294D01*
X178138772Y-79019294D02*
X178234010Y-78971675D01*
X178234010Y-78971675D02*
X178329248Y-78971675D01*
X178805439Y-79971675D02*
X178710201Y-79924056D01*
X178710201Y-79924056D02*
X178662582Y-79828817D01*
X178662582Y-79828817D02*
X178662582Y-78971675D01*
X179567344Y-79924056D02*
X179472106Y-79971675D01*
X179472106Y-79971675D02*
X179281630Y-79971675D01*
X179281630Y-79971675D02*
X179186392Y-79924056D01*
X179186392Y-79924056D02*
X179138773Y-79828817D01*
X179138773Y-79828817D02*
X179138773Y-79447865D01*
X179138773Y-79447865D02*
X179186392Y-79352627D01*
X179186392Y-79352627D02*
X179281630Y-79305008D01*
X179281630Y-79305008D02*
X179472106Y-79305008D01*
X179472106Y-79305008D02*
X179567344Y-79352627D01*
X179567344Y-79352627D02*
X179614963Y-79447865D01*
X179614963Y-79447865D02*
X179614963Y-79543103D01*
X179614963Y-79543103D02*
X179138773Y-79638341D01*
X179948297Y-79971675D02*
X180472106Y-79305008D01*
X179948297Y-79305008D02*
X180472106Y-79971675D01*
X181614964Y-79971675D02*
X181614964Y-78971675D01*
X181614964Y-78971675D02*
X181995916Y-78971675D01*
X181995916Y-78971675D02*
X182091154Y-79019294D01*
X182091154Y-79019294D02*
X182138773Y-79066913D01*
X182138773Y-79066913D02*
X182186392Y-79162151D01*
X182186392Y-79162151D02*
X182186392Y-79305008D01*
X182186392Y-79305008D02*
X182138773Y-79400246D01*
X182138773Y-79400246D02*
X182091154Y-79447865D01*
X182091154Y-79447865D02*
X181995916Y-79495484D01*
X181995916Y-79495484D02*
X181614964Y-79495484D01*
X183186392Y-79876436D02*
X183138773Y-79924056D01*
X183138773Y-79924056D02*
X182995916Y-79971675D01*
X182995916Y-79971675D02*
X182900678Y-79971675D01*
X182900678Y-79971675D02*
X182757821Y-79924056D01*
X182757821Y-79924056D02*
X182662583Y-79828817D01*
X182662583Y-79828817D02*
X182614964Y-79733579D01*
X182614964Y-79733579D02*
X182567345Y-79543103D01*
X182567345Y-79543103D02*
X182567345Y-79400246D01*
X182567345Y-79400246D02*
X182614964Y-79209770D01*
X182614964Y-79209770D02*
X182662583Y-79114532D01*
X182662583Y-79114532D02*
X182757821Y-79019294D01*
X182757821Y-79019294D02*
X182900678Y-78971675D01*
X182900678Y-78971675D02*
X182995916Y-78971675D01*
X182995916Y-78971675D02*
X183138773Y-79019294D01*
X183138773Y-79019294D02*
X183186392Y-79066913D01*
X183948297Y-79447865D02*
X184091154Y-79495484D01*
X184091154Y-79495484D02*
X184138773Y-79543103D01*
X184138773Y-79543103D02*
X184186392Y-79638341D01*
X184186392Y-79638341D02*
X184186392Y-79781198D01*
X184186392Y-79781198D02*
X184138773Y-79876436D01*
X184138773Y-79876436D02*
X184091154Y-79924056D01*
X184091154Y-79924056D02*
X183995916Y-79971675D01*
X183995916Y-79971675D02*
X183614964Y-79971675D01*
X183614964Y-79971675D02*
X183614964Y-78971675D01*
X183614964Y-78971675D02*
X183948297Y-78971675D01*
X183948297Y-78971675D02*
X184043535Y-79019294D01*
X184043535Y-79019294D02*
X184091154Y-79066913D01*
X184091154Y-79066913D02*
X184138773Y-79162151D01*
X184138773Y-79162151D02*
X184138773Y-79257389D01*
X184138773Y-79257389D02*
X184091154Y-79352627D01*
X184091154Y-79352627D02*
X184043535Y-79400246D01*
X184043535Y-79400246D02*
X183948297Y-79447865D01*
X183948297Y-79447865D02*
X183614964Y-79447865D01*
X185376869Y-79971675D02*
X185376869Y-78971675D01*
X185376869Y-79352627D02*
X185472107Y-79305008D01*
X185472107Y-79305008D02*
X185662583Y-79305008D01*
X185662583Y-79305008D02*
X185757821Y-79352627D01*
X185757821Y-79352627D02*
X185805440Y-79400246D01*
X185805440Y-79400246D02*
X185853059Y-79495484D01*
X185853059Y-79495484D02*
X185853059Y-79781198D01*
X185853059Y-79781198D02*
X185805440Y-79876436D01*
X185805440Y-79876436D02*
X185757821Y-79924056D01*
X185757821Y-79924056D02*
X185662583Y-79971675D01*
X185662583Y-79971675D02*
X185472107Y-79971675D01*
X185472107Y-79971675D02*
X185376869Y-79924056D01*
X186424488Y-79971675D02*
X186329250Y-79924056D01*
X186329250Y-79924056D02*
X186281631Y-79876436D01*
X186281631Y-79876436D02*
X186234012Y-79781198D01*
X186234012Y-79781198D02*
X186234012Y-79495484D01*
X186234012Y-79495484D02*
X186281631Y-79400246D01*
X186281631Y-79400246D02*
X186329250Y-79352627D01*
X186329250Y-79352627D02*
X186424488Y-79305008D01*
X186424488Y-79305008D02*
X186567345Y-79305008D01*
X186567345Y-79305008D02*
X186662583Y-79352627D01*
X186662583Y-79352627D02*
X186710202Y-79400246D01*
X186710202Y-79400246D02*
X186757821Y-79495484D01*
X186757821Y-79495484D02*
X186757821Y-79781198D01*
X186757821Y-79781198D02*
X186710202Y-79876436D01*
X186710202Y-79876436D02*
X186662583Y-79924056D01*
X186662583Y-79924056D02*
X186567345Y-79971675D01*
X186567345Y-79971675D02*
X186424488Y-79971675D01*
X187043536Y-79305008D02*
X187424488Y-79305008D01*
X187186393Y-78971675D02*
X187186393Y-79828817D01*
X187186393Y-79828817D02*
X187234012Y-79924056D01*
X187234012Y-79924056D02*
X187329250Y-79971675D01*
X187329250Y-79971675D02*
X187424488Y-79971675D01*
X187614965Y-79305008D02*
X187995917Y-79305008D01*
X187757822Y-78971675D02*
X187757822Y-79828817D01*
X187757822Y-79828817D02*
X187805441Y-79924056D01*
X187805441Y-79924056D02*
X187900679Y-79971675D01*
X187900679Y-79971675D02*
X187995917Y-79971675D01*
X188472108Y-79971675D02*
X188376870Y-79924056D01*
X188376870Y-79924056D02*
X188329251Y-79876436D01*
X188329251Y-79876436D02*
X188281632Y-79781198D01*
X188281632Y-79781198D02*
X188281632Y-79495484D01*
X188281632Y-79495484D02*
X188329251Y-79400246D01*
X188329251Y-79400246D02*
X188376870Y-79352627D01*
X188376870Y-79352627D02*
X188472108Y-79305008D01*
X188472108Y-79305008D02*
X188614965Y-79305008D01*
X188614965Y-79305008D02*
X188710203Y-79352627D01*
X188710203Y-79352627D02*
X188757822Y-79400246D01*
X188757822Y-79400246D02*
X188805441Y-79495484D01*
X188805441Y-79495484D02*
X188805441Y-79781198D01*
X188805441Y-79781198D02*
X188757822Y-79876436D01*
X188757822Y-79876436D02*
X188710203Y-79924056D01*
X188710203Y-79924056D02*
X188614965Y-79971675D01*
X188614965Y-79971675D02*
X188472108Y-79971675D01*
X189234013Y-79971675D02*
X189234013Y-79305008D01*
X189234013Y-79400246D02*
X189281632Y-79352627D01*
X189281632Y-79352627D02*
X189376870Y-79305008D01*
X189376870Y-79305008D02*
X189519727Y-79305008D01*
X189519727Y-79305008D02*
X189614965Y-79352627D01*
X189614965Y-79352627D02*
X189662584Y-79447865D01*
X189662584Y-79447865D02*
X189662584Y-79971675D01*
X189662584Y-79447865D02*
X189710203Y-79352627D01*
X189710203Y-79352627D02*
X189805441Y-79305008D01*
X189805441Y-79305008D02*
X189948298Y-79305008D01*
X189948298Y-79305008D02*
X190043537Y-79352627D01*
X190043537Y-79352627D02*
X190091156Y-79447865D01*
X190091156Y-79447865D02*
X190091156Y-79971675D01*
X168614960Y-81295904D02*
X169091150Y-81295904D01*
X168519722Y-81581619D02*
X168853055Y-80581619D01*
X168853055Y-80581619D02*
X169186388Y-81581619D01*
X169948293Y-81581619D02*
X169948293Y-80581619D01*
X169948293Y-81534000D02*
X169853055Y-81581619D01*
X169853055Y-81581619D02*
X169662579Y-81581619D01*
X169662579Y-81581619D02*
X169567341Y-81534000D01*
X169567341Y-81534000D02*
X169519722Y-81486380D01*
X169519722Y-81486380D02*
X169472103Y-81391142D01*
X169472103Y-81391142D02*
X169472103Y-81105428D01*
X169472103Y-81105428D02*
X169519722Y-81010190D01*
X169519722Y-81010190D02*
X169567341Y-80962571D01*
X169567341Y-80962571D02*
X169662579Y-80914952D01*
X169662579Y-80914952D02*
X169853055Y-80914952D01*
X169853055Y-80914952D02*
X169948293Y-80962571D01*
X170424484Y-81581619D02*
X170424484Y-80581619D01*
X170853055Y-81581619D02*
X170853055Y-81057809D01*
X170853055Y-81057809D02*
X170805436Y-80962571D01*
X170805436Y-80962571D02*
X170710198Y-80914952D01*
X170710198Y-80914952D02*
X170567341Y-80914952D01*
X170567341Y-80914952D02*
X170472103Y-80962571D01*
X170472103Y-80962571D02*
X170424484Y-81010190D01*
X171710198Y-81534000D02*
X171614960Y-81581619D01*
X171614960Y-81581619D02*
X171424484Y-81581619D01*
X171424484Y-81581619D02*
X171329246Y-81534000D01*
X171329246Y-81534000D02*
X171281627Y-81438761D01*
X171281627Y-81438761D02*
X171281627Y-81057809D01*
X171281627Y-81057809D02*
X171329246Y-80962571D01*
X171329246Y-80962571D02*
X171424484Y-80914952D01*
X171424484Y-80914952D02*
X171614960Y-80914952D01*
X171614960Y-80914952D02*
X171710198Y-80962571D01*
X171710198Y-80962571D02*
X171757817Y-81057809D01*
X171757817Y-81057809D02*
X171757817Y-81153047D01*
X171757817Y-81153047D02*
X171281627Y-81248285D01*
X172138770Y-81534000D02*
X172234008Y-81581619D01*
X172234008Y-81581619D02*
X172424484Y-81581619D01*
X172424484Y-81581619D02*
X172519722Y-81534000D01*
X172519722Y-81534000D02*
X172567341Y-81438761D01*
X172567341Y-81438761D02*
X172567341Y-81391142D01*
X172567341Y-81391142D02*
X172519722Y-81295904D01*
X172519722Y-81295904D02*
X172424484Y-81248285D01*
X172424484Y-81248285D02*
X172281627Y-81248285D01*
X172281627Y-81248285D02*
X172186389Y-81200666D01*
X172186389Y-81200666D02*
X172138770Y-81105428D01*
X172138770Y-81105428D02*
X172138770Y-81057809D01*
X172138770Y-81057809D02*
X172186389Y-80962571D01*
X172186389Y-80962571D02*
X172281627Y-80914952D01*
X172281627Y-80914952D02*
X172424484Y-80914952D01*
X172424484Y-80914952D02*
X172519722Y-80962571D01*
X172995913Y-81581619D02*
X172995913Y-80914952D01*
X172995913Y-80581619D02*
X172948294Y-80629238D01*
X172948294Y-80629238D02*
X172995913Y-80676857D01*
X172995913Y-80676857D02*
X173043532Y-80629238D01*
X173043532Y-80629238D02*
X172995913Y-80581619D01*
X172995913Y-80581619D02*
X172995913Y-80676857D01*
X173376865Y-80914952D02*
X173614960Y-81581619D01*
X173614960Y-81581619D02*
X173853055Y-80914952D01*
X174614960Y-81534000D02*
X174519722Y-81581619D01*
X174519722Y-81581619D02*
X174329246Y-81581619D01*
X174329246Y-81581619D02*
X174234008Y-81534000D01*
X174234008Y-81534000D02*
X174186389Y-81438761D01*
X174186389Y-81438761D02*
X174186389Y-81057809D01*
X174186389Y-81057809D02*
X174234008Y-80962571D01*
X174234008Y-80962571D02*
X174329246Y-80914952D01*
X174329246Y-80914952D02*
X174519722Y-80914952D01*
X174519722Y-80914952D02*
X174614960Y-80962571D01*
X174614960Y-80962571D02*
X174662579Y-81057809D01*
X174662579Y-81057809D02*
X174662579Y-81153047D01*
X174662579Y-81153047D02*
X174186389Y-81248285D01*
X175091151Y-81200666D02*
X175853056Y-81200666D01*
X176329246Y-81581619D02*
X176329246Y-80581619D01*
X176329246Y-80962571D02*
X176424484Y-80914952D01*
X176424484Y-80914952D02*
X176614960Y-80914952D01*
X176614960Y-80914952D02*
X176710198Y-80962571D01*
X176710198Y-80962571D02*
X176757817Y-81010190D01*
X176757817Y-81010190D02*
X176805436Y-81105428D01*
X176805436Y-81105428D02*
X176805436Y-81391142D01*
X176805436Y-81391142D02*
X176757817Y-81486380D01*
X176757817Y-81486380D02*
X176710198Y-81534000D01*
X176710198Y-81534000D02*
X176614960Y-81581619D01*
X176614960Y-81581619D02*
X176424484Y-81581619D01*
X176424484Y-81581619D02*
X176329246Y-81534000D01*
X177376865Y-81581619D02*
X177281627Y-81534000D01*
X177281627Y-81534000D02*
X177234008Y-81486380D01*
X177234008Y-81486380D02*
X177186389Y-81391142D01*
X177186389Y-81391142D02*
X177186389Y-81105428D01*
X177186389Y-81105428D02*
X177234008Y-81010190D01*
X177234008Y-81010190D02*
X177281627Y-80962571D01*
X177281627Y-80962571D02*
X177376865Y-80914952D01*
X177376865Y-80914952D02*
X177519722Y-80914952D01*
X177519722Y-80914952D02*
X177614960Y-80962571D01*
X177614960Y-80962571D02*
X177662579Y-81010190D01*
X177662579Y-81010190D02*
X177710198Y-81105428D01*
X177710198Y-81105428D02*
X177710198Y-81391142D01*
X177710198Y-81391142D02*
X177662579Y-81486380D01*
X177662579Y-81486380D02*
X177614960Y-81534000D01*
X177614960Y-81534000D02*
X177519722Y-81581619D01*
X177519722Y-81581619D02*
X177376865Y-81581619D01*
X178138770Y-80914952D02*
X178138770Y-81581619D01*
X178138770Y-81010190D02*
X178186389Y-80962571D01*
X178186389Y-80962571D02*
X178281627Y-80914952D01*
X178281627Y-80914952D02*
X178424484Y-80914952D01*
X178424484Y-80914952D02*
X178519722Y-80962571D01*
X178519722Y-80962571D02*
X178567341Y-81057809D01*
X178567341Y-81057809D02*
X178567341Y-81581619D01*
X179472103Y-81581619D02*
X179472103Y-80581619D01*
X179472103Y-81534000D02*
X179376865Y-81581619D01*
X179376865Y-81581619D02*
X179186389Y-81581619D01*
X179186389Y-81581619D02*
X179091151Y-81534000D01*
X179091151Y-81534000D02*
X179043532Y-81486380D01*
X179043532Y-81486380D02*
X178995913Y-81391142D01*
X178995913Y-81391142D02*
X178995913Y-81105428D01*
X178995913Y-81105428D02*
X179043532Y-81010190D01*
X179043532Y-81010190D02*
X179091151Y-80962571D01*
X179091151Y-80962571D02*
X179186389Y-80914952D01*
X179186389Y-80914952D02*
X179376865Y-80914952D01*
X179376865Y-80914952D02*
X179472103Y-80962571D01*
X180329246Y-81534000D02*
X180234008Y-81581619D01*
X180234008Y-81581619D02*
X180043532Y-81581619D01*
X180043532Y-81581619D02*
X179948294Y-81534000D01*
X179948294Y-81534000D02*
X179900675Y-81438761D01*
X179900675Y-81438761D02*
X179900675Y-81057809D01*
X179900675Y-81057809D02*
X179948294Y-80962571D01*
X179948294Y-80962571D02*
X180043532Y-80914952D01*
X180043532Y-80914952D02*
X180234008Y-80914952D01*
X180234008Y-80914952D02*
X180329246Y-80962571D01*
X180329246Y-80962571D02*
X180376865Y-81057809D01*
X180376865Y-81057809D02*
X180376865Y-81153047D01*
X180376865Y-81153047D02*
X179900675Y-81248285D01*
X181234008Y-81581619D02*
X181234008Y-80581619D01*
X181234008Y-81534000D02*
X181138770Y-81581619D01*
X181138770Y-81581619D02*
X180948294Y-81581619D01*
X180948294Y-81581619D02*
X180853056Y-81534000D01*
X180853056Y-81534000D02*
X180805437Y-81486380D01*
X180805437Y-81486380D02*
X180757818Y-81391142D01*
X180757818Y-81391142D02*
X180757818Y-81105428D01*
X180757818Y-81105428D02*
X180805437Y-81010190D01*
X180805437Y-81010190D02*
X180853056Y-80962571D01*
X180853056Y-80962571D02*
X180948294Y-80914952D01*
X180948294Y-80914952D02*
X181138770Y-80914952D01*
X181138770Y-80914952D02*
X181234008Y-80962571D01*
G36*
X154095639Y-66389885D02*
G01*
X154141394Y-66442689D01*
X154152600Y-66494200D01*
X154152600Y-69345000D01*
X154132915Y-69412039D01*
X154080111Y-69457794D01*
X154028600Y-69469000D01*
X150771400Y-69469000D01*
X150704361Y-69449315D01*
X150658606Y-69396511D01*
X150647400Y-69345000D01*
X150647400Y-66494200D01*
X150667085Y-66427161D01*
X150719889Y-66381406D01*
X150771400Y-66370200D01*
X154028600Y-66370200D01*
X154095639Y-66389885D01*
G37*
G36*
X157677039Y-87598885D02*
G01*
X157722794Y-87651689D01*
X157734000Y-87703200D01*
X157734000Y-96650000D01*
X157714315Y-96717039D01*
X157661511Y-96762794D01*
X157610000Y-96774000D01*
X147190000Y-96774000D01*
X147122961Y-96754315D01*
X147077206Y-96701511D01*
X147066000Y-96650000D01*
X147066000Y-87703200D01*
X147085685Y-87636161D01*
X147138489Y-87590406D01*
X147190000Y-87579200D01*
X157610000Y-87579200D01*
X157677039Y-87598885D01*
G37*
M02*
