%TF.GenerationSoftware,KiCad,Pcbnew,10.0.3*%
%TF.CreationDate,2026-07-30T22:07:55-05:00*%
%TF.ProjectId,CTP_interposer,4354505f-696e-4746-9572-706f7365722e,rev?*%
%TF.SameCoordinates,Original*%
%TF.FileFunction,Copper,L1,Top*%
%TF.FilePolarity,Positive*%
%FSLAX46Y46*%
G04 Gerber Fmt 4.6, Leading zero omitted, Abs format (unit mm)*
G04 Created by KiCad (PCBNEW 10.0.3) date 2026-07-30 22:07:55*
%MOMM*%
%LPD*%
G01*
G04 APERTURE LIST*
%TA.AperFunction,SMDPad,CuDef*%
%ADD10R,0.300000X3.000000*%
%TD*%
%TA.AperFunction,SMDPad,CuDef*%
%ADD11R,0.300000X1.300000*%
%TD*%
%TA.AperFunction,SMDPad,CuDef*%
%ADD12R,1.800000X2.200000*%
%TD*%
%TA.AperFunction,ViaPad*%
%ADD13C,0.450000*%
%TD*%
%TA.AperFunction,Conductor*%
%ADD14C,0.150000*%
%TD*%
%TA.AperFunction,Conductor*%
%ADD15C,0.300000*%
%TD*%
G04 APERTURE END LIST*
D10*
%TO.P,J2102,1,Pin_1*%
%TO.N,GND*%
X153650000Y-67870000D03*
%TO.P,J2102,2,Pin_2*%
%TO.N,+3.0V*%
X153150000Y-67870000D03*
%TO.P,J2102,3,Pin_3*%
%TO.N,LCD_CTP_INT*%
X152650000Y-67870000D03*
%TO.P,J2102,4,Pin_4*%
%TO.N,I2C_SDA*%
X152150000Y-67870000D03*
%TO.P,J2102,5,Pin_5*%
%TO.N,I2C_SCL*%
X151650000Y-67870000D03*
%TO.P,J2102,6,Pin_6*%
%TO.N,LCD_CTP_RESET*%
X151150000Y-67870000D03*
%TD*%
D11*
%TO.P,J2102,1,Pin_1*%
%TO.N,LCD_CTP_RESET*%
X151150000Y-94690000D03*
%TO.P,J2102,2,Pin_2*%
%TO.N,I2C_SCL*%
X151650000Y-94690000D03*
%TO.P,J2102,3,Pin_3*%
%TO.N,I2C_SDA*%
X152150000Y-94690000D03*
%TO.P,J2102,4,Pin_4*%
%TO.N,LCD_CTP_INT*%
X152650000Y-94690000D03*
%TO.P,J2102,5,Pin_5*%
%TO.N,+3.0V*%
X153150000Y-94690000D03*
%TO.P,J2102,6,Pin_6*%
%TO.N,GND*%
X153650000Y-94690000D03*
D12*
%TO.P,J2102,S1,S1*%
X155550000Y-91440000D03*
%TO.P,J2102,S2,S2*%
X149250000Y-91440000D03*
%TD*%
D13*
%TO.N,GND*%
X150235989Y-81634479D03*
X150235989Y-87984479D03*
X150235989Y-90016479D03*
X156331989Y-85952479D03*
X148203989Y-79602479D03*
X150235989Y-79602479D03*
X156331989Y-81634479D03*
X154299989Y-79602479D03*
X148203989Y-85952479D03*
X154299989Y-94080479D03*
X150235989Y-92048479D03*
X156331989Y-94080479D03*
X148203989Y-77570479D03*
X154299989Y-83920479D03*
X154299989Y-85952479D03*
X148203989Y-92048479D03*
X148203989Y-83920479D03*
X150235989Y-85952479D03*
X154299989Y-81634479D03*
X148203989Y-81634479D03*
X156331989Y-90016479D03*
X150235989Y-77570479D03*
X156331989Y-92048479D03*
X156331989Y-87984479D03*
X153627600Y-70535800D03*
X150235989Y-94080479D03*
X154299989Y-77570479D03*
X148203989Y-87984479D03*
X148203989Y-90016479D03*
X154299989Y-92048479D03*
X156331989Y-77570479D03*
X154299989Y-87984479D03*
X156331989Y-83920479D03*
X156331989Y-79602479D03*
X148203989Y-94080479D03*
X154299989Y-90016479D03*
X150235989Y-83920479D03*
%TO.N,+3.0V*%
X153162000Y-93700600D03*
X153162000Y-69799200D03*
%TO.N,LCD_CTP_INT*%
X152654000Y-70231000D03*
X152654000Y-93319600D03*
%TO.N,I2C_SDA*%
X152146000Y-93675200D03*
X152146000Y-69799200D03*
%TO.N,I2C_SCL*%
X151638000Y-93319600D03*
X151638000Y-70256400D03*
%TO.N,LCD_CTP_RESET*%
X151155400Y-93675200D03*
X151172400Y-69824600D03*
%TD*%
%TO.N,GND*%
D14*
X153650000Y-70513400D02*
X153627600Y-70535800D01*
D15*
X153650000Y-67870000D02*
X153650000Y-70513400D01*
%TO.N,+3.0V*%
D14*
X153162000Y-93700600D02*
X153162000Y-94678000D01*
X153150000Y-69787200D02*
X153162000Y-69799200D01*
X153162000Y-94678000D02*
X153150000Y-94690000D01*
X153150000Y-67870000D02*
X153150000Y-69787200D01*
%TO.N,LCD_CTP_INT*%
X152650000Y-94690000D02*
X152650000Y-93323600D01*
X152650000Y-93323600D02*
X152654000Y-93319600D01*
X152650000Y-67870000D02*
X152650000Y-70227000D01*
X152650000Y-70227000D02*
X152654000Y-70231000D01*
%TO.N,I2C_SDA*%
X152150000Y-67870000D02*
X152150000Y-69795200D01*
X152146000Y-93675200D02*
X152146000Y-94686000D01*
X152146000Y-94686000D02*
X152150000Y-94690000D01*
X152150000Y-69795200D02*
X152146000Y-69799200D01*
%TO.N,I2C_SCL*%
X151650000Y-93331600D02*
X151638000Y-93319600D01*
X151650000Y-94690000D02*
X151650000Y-93331600D01*
X151650000Y-70244400D02*
X151638000Y-70256400D01*
X151650000Y-67870000D02*
X151650000Y-70244400D01*
%TO.N,LCD_CTP_RESET*%
X151150000Y-69802200D02*
X151172400Y-69824600D01*
X151155400Y-94684600D02*
X151150000Y-94690000D01*
X151155400Y-93675200D02*
X151155400Y-94684600D01*
X151150000Y-67870000D02*
X151150000Y-69802200D01*
%TD*%
%TA.AperFunction,Conductor*%
%TO.N,GND*%
G36*
X153776912Y-69888785D02*
G01*
X153830790Y-69933270D01*
X153852065Y-69999822D01*
X153852100Y-70002773D01*
X153852100Y-72045638D01*
X153852100Y-74410762D01*
X153865752Y-74461713D01*
X153872579Y-74487190D01*
X153872582Y-74487195D01*
X153912135Y-74555704D01*
X153912141Y-74555712D01*
X157397181Y-78040752D01*
X157430666Y-78102075D01*
X157433500Y-78128433D01*
X157433500Y-96349500D01*
X157413815Y-96416539D01*
X157361011Y-96462294D01*
X157309500Y-96473500D01*
X147490500Y-96473500D01*
X147423461Y-96453815D01*
X147377706Y-96401011D01*
X147366500Y-96349500D01*
X147366500Y-93612599D01*
X150679900Y-93612599D01*
X150679900Y-93737801D01*
X150686706Y-93763201D01*
X150712305Y-93858737D01*
X150712307Y-93858740D01*
X150739800Y-93906361D01*
X150756271Y-93974261D01*
X150754030Y-93992546D01*
X150749500Y-94015322D01*
X150749500Y-95364678D01*
X150764032Y-95437735D01*
X150764033Y-95437739D01*
X150764034Y-95437740D01*
X150819399Y-95520601D01*
X150899999Y-95574455D01*
X150902260Y-95575966D01*
X150902264Y-95575967D01*
X150975321Y-95590499D01*
X150975324Y-95590500D01*
X150975326Y-95590500D01*
X151324674Y-95590500D01*
X151375811Y-95580328D01*
X151424189Y-95580328D01*
X151475326Y-95590500D01*
X151824674Y-95590500D01*
X151875811Y-95580328D01*
X151924189Y-95580328D01*
X151975326Y-95590500D01*
X152324674Y-95590500D01*
X152375811Y-95580328D01*
X152424189Y-95580328D01*
X152475326Y-95590500D01*
X152824674Y-95590500D01*
X152875811Y-95580328D01*
X152924189Y-95580328D01*
X152975326Y-95590500D01*
X153324676Y-95590500D01*
X153324677Y-95590499D01*
X153397740Y-95575966D01*
X153480601Y-95520601D01*
X153535966Y-95437740D01*
X153550500Y-95364674D01*
X153550500Y-94015326D01*
X153550500Y-94011923D01*
X153567113Y-93949923D01*
X153592263Y-93906361D01*
X153605095Y-93884136D01*
X153637500Y-93763201D01*
X153637500Y-93637999D01*
X153605095Y-93517064D01*
X153542495Y-93408636D01*
X153453964Y-93320105D01*
X153345536Y-93257505D01*
X153345537Y-93257505D01*
X153305224Y-93246703D01*
X153224601Y-93225100D01*
X153224599Y-93225100D01*
X153216101Y-93225100D01*
X153149062Y-93205415D01*
X153103307Y-93152611D01*
X153099086Y-93140871D01*
X153097096Y-93136068D01*
X153097095Y-93136064D01*
X153034495Y-93027636D01*
X152945964Y-92939105D01*
X152837536Y-92876505D01*
X152837537Y-92876505D01*
X152797224Y-92865703D01*
X152716601Y-92844100D01*
X152591399Y-92844100D01*
X152510775Y-92865703D01*
X152470463Y-92876505D01*
X152362037Y-92939104D01*
X152362034Y-92939106D01*
X152273506Y-93027634D01*
X152273502Y-93027639D01*
X152253387Y-93062481D01*
X152202820Y-93110696D01*
X152134213Y-93123920D01*
X152069349Y-93097952D01*
X152038613Y-93062481D01*
X152018497Y-93027639D01*
X152018496Y-93027637D01*
X152018495Y-93027636D01*
X151929964Y-92939105D01*
X151821536Y-92876505D01*
X151821537Y-92876505D01*
X151781224Y-92865703D01*
X151700601Y-92844100D01*
X151575399Y-92844100D01*
X151494775Y-92865703D01*
X151454463Y-92876505D01*
X151346037Y-92939104D01*
X151346034Y-92939106D01*
X151257506Y-93027634D01*
X151257500Y-93027642D01*
X151193960Y-93137699D01*
X151143394Y-93185915D01*
X151100551Y-93196308D01*
X151100858Y-93198639D01*
X151092801Y-93199699D01*
X150971863Y-93232105D01*
X150863437Y-93294704D01*
X150863434Y-93294706D01*
X150774906Y-93383234D01*
X150774904Y-93383237D01*
X150712305Y-93491663D01*
X150712305Y-93491664D01*
X150679900Y-93612599D01*
X147366500Y-93612599D01*
X147366500Y-78128433D01*
X147386185Y-78061394D01*
X147402819Y-78040752D01*
X147731431Y-77712140D01*
X150887860Y-74555711D01*
X150927421Y-74487189D01*
X150947900Y-74410762D01*
X150947900Y-72045638D01*
X150947900Y-70459973D01*
X150967585Y-70392934D01*
X151020389Y-70347179D01*
X151089547Y-70337235D01*
X151153103Y-70366260D01*
X151190877Y-70425038D01*
X151191665Y-70427844D01*
X151194905Y-70439936D01*
X151257505Y-70548364D01*
X151346036Y-70636895D01*
X151454464Y-70699495D01*
X151575399Y-70731900D01*
X151575401Y-70731900D01*
X151700599Y-70731900D01*
X151700601Y-70731900D01*
X151821536Y-70699495D01*
X151929964Y-70636895D01*
X152018495Y-70548364D01*
X152045944Y-70500819D01*
X152096510Y-70452603D01*
X152165117Y-70439379D01*
X152229982Y-70465346D01*
X152260719Y-70500818D01*
X152265234Y-70508639D01*
X152273503Y-70522962D01*
X152273505Y-70522964D01*
X152362036Y-70611495D01*
X152470464Y-70674095D01*
X152591399Y-70706500D01*
X152591401Y-70706500D01*
X152716599Y-70706500D01*
X152716601Y-70706500D01*
X152837536Y-70674095D01*
X152945964Y-70611495D01*
X153034495Y-70522964D01*
X153097095Y-70414536D01*
X153102883Y-70392934D01*
X153109939Y-70366605D01*
X153146304Y-70306945D01*
X153209152Y-70276417D01*
X153216547Y-70275799D01*
X153216542Y-70275761D01*
X153224598Y-70274700D01*
X153224601Y-70274700D01*
X153345536Y-70242295D01*
X153453964Y-70179695D01*
X153542495Y-70091164D01*
X153605095Y-69982736D01*
X153608325Y-69970678D01*
X153644690Y-69911019D01*
X153707537Y-69880490D01*
X153776912Y-69888785D01*
G37*
%TD.AperFunction*%
%TA.AperFunction,Conductor*%
G36*
X153795139Y-66690385D02*
G01*
X153840894Y-66743189D01*
X153852100Y-66794700D01*
X153852100Y-69595626D01*
X153850316Y-69601699D01*
X153851489Y-69607920D01*
X153840590Y-69634821D01*
X153832415Y-69662665D01*
X153827632Y-69666809D01*
X153825255Y-69672677D01*
X153801540Y-69689418D01*
X153779611Y-69708420D01*
X153773347Y-69709320D01*
X153768175Y-69712972D01*
X153739175Y-69714234D01*
X153710453Y-69718364D01*
X153704695Y-69715734D01*
X153698371Y-69716010D01*
X153673293Y-69701393D01*
X153646897Y-69689339D01*
X153643475Y-69684014D01*
X153638006Y-69680827D01*
X153617652Y-69651993D01*
X153611709Y-69640348D01*
X153605095Y-69615664D01*
X153553528Y-69526347D01*
X153552070Y-69523489D01*
X153546170Y-69492190D01*
X153538658Y-69461221D01*
X153539743Y-69458086D01*
X153539129Y-69454828D01*
X153540901Y-69442929D01*
X153550500Y-69394675D01*
X153550500Y-66794700D01*
X153553050Y-66786014D01*
X153551762Y-66777053D01*
X153562740Y-66753012D01*
X153570185Y-66727661D01*
X153577025Y-66721733D01*
X153580787Y-66713497D01*
X153603021Y-66699207D01*
X153622989Y-66681906D01*
X153633503Y-66679618D01*
X153639565Y-66675723D01*
X153674500Y-66670700D01*
X153728100Y-66670700D01*
X153795139Y-66690385D01*
G37*
%TD.AperFunction*%
%TD*%
M02*
