M48
; DRILL file KiCad 10.0.3 date 2026-08-07T21:55:37
; FORMAT={-:-/ absolute / metric / decimal}
; #@! TF.CreationDate,2026-08-07T21:55:37-05:00
; #@! TF.GenerationSoftware,Kicad,Pcbnew,10.0.3
; #@! TF.FileFunction,Plated,1,2,PTH
FMAT,2
METRIC
; #@! TA.AperFunction,Plated,PTH,ViaDrill
T1C0.200
%
G90
G05
T1
X148.204Y-77.57
X148.204Y-79.602
X148.204Y-81.634
X148.204Y-83.92
X148.204Y-85.952
X148.204Y-87.984
X148.204Y-90.016
X148.204Y-92.048
X148.204Y-94.08
X150.236Y-75.792
X150.236Y-77.57
X150.236Y-79.602
X150.236Y-81.634
X150.236Y-83.92
X150.236Y-85.952
X150.236Y-87.984
X150.236Y-90.016
X150.236Y-92.048
X150.236Y-94.08
X151.121Y-82.448
X151.486Y-85.344
X151.562Y-84.582
X151.65Y-83.578
X152.171Y-86.208
X152.502Y-85.674
X152.908Y-85.217
X153.365Y-84.76
X153.628Y-70.536
X154.3Y-77.57
X154.3Y-79.602
X154.3Y-81.634
X154.3Y-83.92
X154.3Y-85.952
X154.3Y-87.984
X154.3Y-90.016
X154.3Y-92.048
X154.3Y-94.08
X156.332Y-77.57
X156.332Y-79.602
X156.332Y-81.634
X156.332Y-83.92
X156.332Y-85.952
X156.332Y-87.984
X156.332Y-90.016
X156.332Y-92.048
X156.332Y-94.08
M30
