%TF.GenerationSoftware,KiCad,Pcbnew,10.0.3*%
%TF.CreationDate,2026-08-07T21:55:35-05:00*%
%TF.ProjectId,CTP_interposer,4354505f-696e-4746-9572-706f7365722e,rev?*%
%TF.SameCoordinates,Original*%
%TF.FileFunction,Copper,L2,Bot*%
%TF.FilePolarity,Positive*%
%FSLAX46Y46*%
G04 Gerber Fmt 4.6, Leading zero omitted, Abs format (unit mm)*
G04 Created by KiCad (PCBNEW 10.0.3) date 2026-08-07 21:55:35*
%MOMM*%
%LPD*%
G01*
G04 APERTURE LIST*
%TA.AperFunction,ViaPad*%
%ADD10C,0.450000*%
%TD*%
%TA.AperFunction,Conductor*%
%ADD11C,0.150000*%
%TD*%
G04 APERTURE END LIST*
D10*
%TO.N,GND*%
X150235989Y-75792479D03*
%TO.N,LCD_CTP_RESET*%
X151121441Y-82448400D03*
X153365200Y-84759800D03*
%TO.N,I2C_SCL*%
X151650000Y-83578000D03*
X152908000Y-85217000D03*
%TO.N,I2C_SDA*%
X152501600Y-85674200D03*
X151561800Y-84582000D03*
%TO.N,LCD_CTP_INT*%
X151485600Y-85344000D03*
%TO.N,GND*%
X150235989Y-81634479D03*
X150235989Y-87984479D03*
X150235989Y-90016479D03*
X156331989Y-85952479D03*
X148203989Y-79602479D03*
X150235989Y-79602479D03*
X156331989Y-81634479D03*
X154299989Y-79602479D03*
X148203989Y-85952479D03*
X154299989Y-94080479D03*
X150235989Y-92048479D03*
X156331989Y-94080479D03*
X148203989Y-77570479D03*
X154299989Y-83920479D03*
X148203989Y-92048479D03*
X148203989Y-83920479D03*
X150235989Y-85952479D03*
X154299989Y-81634479D03*
X148203989Y-81634479D03*
X156331989Y-90016479D03*
X150235989Y-77570479D03*
X156331989Y-92048479D03*
X156331989Y-87984479D03*
X153627600Y-70535800D03*
X150235989Y-94080479D03*
X154299989Y-77570479D03*
X148203989Y-87984479D03*
X148203989Y-90016479D03*
X154299989Y-92048479D03*
X156331989Y-77570479D03*
X154299989Y-87984479D03*
X156331989Y-83920479D03*
X156331989Y-79602479D03*
X148203989Y-94080479D03*
X154299989Y-90016479D03*
X150235989Y-83920479D03*
X154299989Y-85952479D03*
%TO.N,LCD_CTP_INT*%
X152171400Y-86207600D03*
%TD*%
%TO.N,LCD_CTP_RESET*%
D11*
X151121441Y-82448400D02*
X153365200Y-84692159D01*
X153365200Y-84692159D02*
X153365200Y-84759800D01*
%TO.N,I2C_SCL*%
X152908000Y-85217000D02*
X151650000Y-83959000D01*
X151650000Y-83959000D02*
X151650000Y-83578000D01*
%TO.N,I2C_SDA*%
X152501600Y-85521800D02*
X151561800Y-84582000D01*
X152501600Y-85674200D02*
X152501600Y-85521800D01*
%TO.N,LCD_CTP_INT*%
X152171400Y-86029800D02*
X151485600Y-85344000D01*
X152171400Y-86207600D02*
X152171400Y-86029800D01*
%TD*%
%TA.AperFunction,Conductor*%
%TO.N,GND*%
G36*
X153795139Y-66690385D02*
G01*
X153840894Y-66743189D01*
X153852100Y-66794700D01*
X153852100Y-72045638D01*
X153852100Y-74410762D01*
X153865752Y-74461713D01*
X153872579Y-74487190D01*
X153872582Y-74487195D01*
X153912135Y-74555704D01*
X153912141Y-74555712D01*
X157397181Y-78040752D01*
X157430666Y-78102075D01*
X157433500Y-78128433D01*
X157433500Y-96349500D01*
X157413815Y-96416539D01*
X157361011Y-96462294D01*
X157309500Y-96473500D01*
X147490500Y-96473500D01*
X147423461Y-96453815D01*
X147377706Y-96401011D01*
X147366500Y-96349500D01*
X147366500Y-82385799D01*
X150645941Y-82385799D01*
X150645941Y-82511001D01*
X150678346Y-82631936D01*
X150740946Y-82740364D01*
X150829477Y-82828895D01*
X150937905Y-82891495D01*
X151058840Y-82923900D01*
X151085252Y-82923900D01*
X151114692Y-82932544D01*
X151144679Y-82939068D01*
X151149694Y-82942822D01*
X151152291Y-82943585D01*
X151172933Y-82960219D01*
X151296446Y-83083732D01*
X151329931Y-83145055D01*
X151324947Y-83214747D01*
X151296448Y-83259093D01*
X151269504Y-83286037D01*
X151206905Y-83394463D01*
X151206905Y-83394464D01*
X151174500Y-83515399D01*
X151174500Y-83640601D01*
X151206905Y-83761536D01*
X151269504Y-83869962D01*
X151269506Y-83869965D01*
X151288181Y-83888640D01*
X151321666Y-83949963D01*
X151322803Y-83955876D01*
X151324500Y-83966027D01*
X151324500Y-84001853D01*
X151340422Y-84061279D01*
X151341407Y-84067166D01*
X151337911Y-84096165D01*
X151337216Y-84125369D01*
X151333778Y-84130447D01*
X151333045Y-84136534D01*
X151314425Y-84159040D01*
X151298052Y-84183231D01*
X151289500Y-84189168D01*
X151288508Y-84190368D01*
X151287149Y-84190800D01*
X151281110Y-84194994D01*
X151269845Y-84201498D01*
X151269833Y-84201507D01*
X151181306Y-84290034D01*
X151181304Y-84290037D01*
X151118705Y-84398463D01*
X151118705Y-84398464D01*
X151086300Y-84519399D01*
X151086300Y-84644601D01*
X151096122Y-84681257D01*
X151118705Y-84765536D01*
X151171019Y-84856148D01*
X151187490Y-84924048D01*
X151164638Y-84990075D01*
X151151313Y-85005827D01*
X151105106Y-85052034D01*
X151105104Y-85052037D01*
X151042505Y-85160463D01*
X151042505Y-85160464D01*
X151010100Y-85281399D01*
X151010100Y-85406601D01*
X151042505Y-85527536D01*
X151105105Y-85635964D01*
X151193636Y-85724495D01*
X151302064Y-85787095D01*
X151422999Y-85819500D01*
X151449411Y-85819500D01*
X151478854Y-85828145D01*
X151508837Y-85834668D01*
X151513852Y-85838422D01*
X151516450Y-85839185D01*
X151537087Y-85855814D01*
X151672829Y-85991555D01*
X151706313Y-86052876D01*
X151704922Y-86111327D01*
X151695900Y-86144997D01*
X151695900Y-86144999D01*
X151695900Y-86270201D01*
X151728305Y-86391136D01*
X151790905Y-86499564D01*
X151879436Y-86588095D01*
X151987864Y-86650695D01*
X152108799Y-86683100D01*
X152108801Y-86683100D01*
X152233999Y-86683100D01*
X152234001Y-86683100D01*
X152354936Y-86650695D01*
X152463364Y-86588095D01*
X152551895Y-86499564D01*
X152614495Y-86391136D01*
X152646900Y-86270201D01*
X152646900Y-86210962D01*
X152666585Y-86143923D01*
X152708899Y-86103575D01*
X152793564Y-86054695D01*
X152882095Y-85966164D01*
X152944695Y-85857736D01*
X152971862Y-85756345D01*
X153008226Y-85696688D01*
X153059541Y-85668667D01*
X153091536Y-85660095D01*
X153199964Y-85597495D01*
X153288495Y-85508964D01*
X153351095Y-85400536D01*
X153374333Y-85313810D01*
X153410697Y-85254153D01*
X153462010Y-85226133D01*
X153548736Y-85202895D01*
X153657164Y-85140295D01*
X153745695Y-85051764D01*
X153808295Y-84943336D01*
X153840700Y-84822401D01*
X153840700Y-84697199D01*
X153808295Y-84576264D01*
X153745695Y-84467836D01*
X153657164Y-84379305D01*
X153548736Y-84316705D01*
X153548731Y-84316703D01*
X153446050Y-84289189D01*
X153390464Y-84257096D01*
X151633260Y-82499892D01*
X151599775Y-82438569D01*
X151596941Y-82412211D01*
X151596941Y-82385800D01*
X151596941Y-82385799D01*
X151564536Y-82264864D01*
X151501936Y-82156436D01*
X151413405Y-82067905D01*
X151304977Y-82005305D01*
X151304978Y-82005305D01*
X151264665Y-81994503D01*
X151184042Y-81972900D01*
X151058840Y-81972900D01*
X150978216Y-81994503D01*
X150937904Y-82005305D01*
X150829478Y-82067904D01*
X150829475Y-82067906D01*
X150740947Y-82156434D01*
X150740945Y-82156437D01*
X150678346Y-82264863D01*
X150678346Y-82264864D01*
X150645941Y-82385799D01*
X147366500Y-82385799D01*
X147366500Y-78128433D01*
X147386185Y-78061394D01*
X147402819Y-78040752D01*
X147731431Y-77712140D01*
X150887860Y-74555711D01*
X150927421Y-74487189D01*
X150947900Y-74410762D01*
X150947900Y-72045638D01*
X150947900Y-66794700D01*
X150967585Y-66727661D01*
X151020389Y-66681906D01*
X151071900Y-66670700D01*
X153728100Y-66670700D01*
X153795139Y-66690385D01*
G37*
%TD.AperFunction*%
%TD*%
M02*
