%TF.GenerationSoftware,KiCad,Pcbnew,10.0.3*%
%TF.CreationDate,2026-08-07T21:55:35-05:00*%
%TF.ProjectId,CTP_interposer,4354505f-696e-4746-9572-706f7365722e,rev?*%
%TF.SameCoordinates,Original*%
%TF.FileFunction,Copper,L1,Top*%
%TF.FilePolarity,Positive*%
%FSLAX46Y46*%
G04 Gerber Fmt 4.6, Leading zero omitted, Abs format (unit mm)*
G04 Created by KiCad (PCBNEW 10.0.3) date 2026-08-07 21:55:35*
%MOMM*%
%LPD*%
G01*
G04 APERTURE LIST*
%TA.AperFunction,SMDPad,CuDef*%
%ADD10R,0.300000X3.000000*%
%TD*%
%TA.AperFunction,SMDPad,CuDef*%
%ADD11R,0.300000X1.300000*%
%TD*%
%TA.AperFunction,SMDPad,CuDef*%
%ADD12R,1.800000X2.200000*%
%TD*%
%TA.AperFunction,ViaPad*%
%ADD13C,0.450000*%
%TD*%
%TA.AperFunction,Conductor*%
%ADD14C,0.150000*%
%TD*%
%TA.AperFunction,Conductor*%
%ADD15C,0.300000*%
%TD*%
G04 APERTURE END LIST*
D10*
%TO.P,J2102,1,Pin_1*%
%TO.N,GND*%
X153650000Y-67870000D03*
%TO.P,J2102,2,Pin_2*%
%TO.N,+3.0V*%
X153150000Y-67870000D03*
%TO.P,J2102,3,Pin_3*%
%TO.N,LCD_CTP_INT*%
X152650000Y-67870000D03*
%TO.P,J2102,4,Pin_4*%
%TO.N,I2C_SDA*%
X152150000Y-67870000D03*
%TO.P,J2102,5,Pin_5*%
%TO.N,I2C_SCL*%
X151650000Y-67870000D03*
%TO.P,J2102,6,Pin_6*%
%TO.N,LCD_CTP_RESET*%
X151150000Y-67870000D03*
%TD*%
D11*
%TO.P,J2102,1,Pin_1*%
%TO.N,LCD_CTP_RESET*%
X153650000Y-89206000D03*
%TO.P,J2102,2,Pin_2*%
%TO.N,I2C_SCL*%
X153150000Y-89206000D03*
%TO.P,J2102,3,Pin_3*%
%TO.N,I2C_SDA*%
X152650000Y-89206000D03*
%TO.P,J2102,4,Pin_4*%
%TO.N,LCD_CTP_INT*%
X152150000Y-89206000D03*
%TO.P,J2102,5,Pin_5*%
%TO.N,+3.0V*%
X151650000Y-89206000D03*
%TO.P,J2102,6,Pin_6*%
%TO.N,GND*%
X151150000Y-89206000D03*
D12*
%TO.P,J2102,S1,S1*%
X149250000Y-92456000D03*
%TO.P,J2102,S2,S2*%
X155550000Y-92456000D03*
%TD*%
D13*
%TO.N,GND*%
X150235989Y-75792479D03*
%TO.N,LCD_CTP_RESET*%
X151121441Y-82448400D03*
X153365200Y-84759800D03*
%TO.N,I2C_SCL*%
X151650000Y-83578000D03*
X152908000Y-85217000D03*
%TO.N,I2C_SDA*%
X152501600Y-85674200D03*
X151561800Y-84582000D03*
%TO.N,LCD_CTP_INT*%
X151485600Y-85344000D03*
%TO.N,GND*%
X150235989Y-81634479D03*
X150235989Y-87984479D03*
X150235989Y-90016479D03*
X156331989Y-85952479D03*
X148203989Y-79602479D03*
X150235989Y-79602479D03*
X156331989Y-81634479D03*
X154299989Y-79602479D03*
X148203989Y-85952479D03*
X154299989Y-94080479D03*
X150235989Y-92048479D03*
X156331989Y-94080479D03*
X148203989Y-77570479D03*
X154299989Y-83920479D03*
X148203989Y-92048479D03*
X148203989Y-83920479D03*
X150235989Y-85952479D03*
X154299989Y-81634479D03*
X148203989Y-81634479D03*
X156331989Y-90016479D03*
X150235989Y-77570479D03*
X156331989Y-92048479D03*
X156331989Y-87984479D03*
X153627600Y-70535800D03*
X150235989Y-94080479D03*
X154299989Y-77570479D03*
X148203989Y-87984479D03*
X148203989Y-90016479D03*
X154299989Y-92048479D03*
X156331989Y-77570479D03*
X154299989Y-87984479D03*
X156331989Y-83920479D03*
X156331989Y-79602479D03*
X148203989Y-94080479D03*
X154299989Y-90016479D03*
X150235989Y-83920479D03*
X154299989Y-85952479D03*
%TO.N,LCD_CTP_INT*%
X152171400Y-86207600D03*
%TD*%
%TO.N,LCD_CTP_RESET*%
D14*
X151150000Y-82377600D02*
X151150000Y-67870000D01*
X151121441Y-82406159D02*
X151150000Y-82377600D01*
X151121441Y-82448400D02*
X151121441Y-82406159D01*
X153650000Y-85044600D02*
X153365200Y-84759800D01*
X153650000Y-89206000D02*
X153650000Y-85044600D01*
%TO.N,I2C_SCL*%
X153150000Y-85459000D02*
X152908000Y-85217000D01*
X153150000Y-89206000D02*
X153150000Y-85459000D01*
%TO.N,I2C_SDA*%
X152150000Y-83993800D02*
X152150000Y-67870000D01*
X151561800Y-84582000D02*
X152150000Y-83993800D01*
X152650000Y-85822600D02*
X152501600Y-85674200D01*
X152650000Y-89206000D02*
X152650000Y-85822600D01*
%TO.N,LCD_CTP_INT*%
X151485600Y-85344000D02*
X152650000Y-84179600D01*
X152650000Y-84179600D02*
X152650000Y-67870000D01*
%TO.N,GND*%
X153650000Y-70513400D02*
X153627600Y-70535800D01*
D15*
X153650000Y-67870000D02*
X153650000Y-70513400D01*
%TO.N,I2C_SCL*%
D14*
X151650000Y-67870000D02*
X151650000Y-83578000D01*
%TO.N,+3.0V*%
X151650000Y-89206000D02*
X151650000Y-85840000D01*
X151650000Y-85840000D02*
X153060400Y-84429600D01*
X153060400Y-67959600D02*
X153150000Y-67870000D01*
X153060400Y-84429600D02*
X153060400Y-67959600D01*
%TO.N,LCD_CTP_INT*%
X152150000Y-89206000D02*
X152150000Y-86229000D01*
X152150000Y-86229000D02*
X152171400Y-86207600D01*
%TD*%
%TA.AperFunction,Conductor*%
%TO.N,GND*%
G36*
X153795139Y-66690385D02*
G01*
X153840894Y-66743189D01*
X153852100Y-66794700D01*
X153852100Y-72045638D01*
X153852100Y-74410762D01*
X153865752Y-74461713D01*
X153872579Y-74487190D01*
X153872582Y-74487195D01*
X153912135Y-74555704D01*
X153912141Y-74555712D01*
X157397181Y-78040752D01*
X157430666Y-78102075D01*
X157433500Y-78128433D01*
X157433500Y-96349500D01*
X157413815Y-96416539D01*
X157361011Y-96462294D01*
X157309500Y-96473500D01*
X147490500Y-96473500D01*
X147423461Y-96453815D01*
X147377706Y-96401011D01*
X147366500Y-96349500D01*
X147366500Y-78128433D01*
X147386185Y-78061394D01*
X147402819Y-78040752D01*
X150612819Y-74830752D01*
X150674142Y-74797267D01*
X150743834Y-74802251D01*
X150799767Y-74844123D01*
X150824184Y-74909587D01*
X150824500Y-74918433D01*
X150824500Y-82021520D01*
X150804815Y-82088559D01*
X150788181Y-82109201D01*
X150740947Y-82156434D01*
X150740945Y-82156437D01*
X150678346Y-82264863D01*
X150678346Y-82264864D01*
X150645941Y-82385799D01*
X150645941Y-82511001D01*
X150678346Y-82631936D01*
X150740946Y-82740364D01*
X150829477Y-82828895D01*
X150937905Y-82891495D01*
X151058840Y-82923900D01*
X151058842Y-82923900D01*
X151184037Y-82923900D01*
X151184042Y-82923900D01*
X151184046Y-82923898D01*
X151184310Y-82923864D01*
X151184541Y-82923900D01*
X151192170Y-82923900D01*
X151192170Y-82925089D01*
X151201214Y-82926499D01*
X151218147Y-82924065D01*
X151235020Y-82931770D01*
X151253346Y-82934628D01*
X151266140Y-82945982D01*
X151281703Y-82953090D01*
X151291730Y-82968693D01*
X151305603Y-82981005D01*
X151310418Y-82997772D01*
X151319477Y-83011868D01*
X151324500Y-83046803D01*
X151324500Y-83179679D01*
X151304815Y-83246718D01*
X151288181Y-83267360D01*
X151269506Y-83286034D01*
X151269504Y-83286037D01*
X151206905Y-83394463D01*
X151206905Y-83394464D01*
X151174500Y-83515399D01*
X151174500Y-83640601D01*
X151206905Y-83761536D01*
X151269504Y-83869962D01*
X151269506Y-83869965D01*
X151363783Y-83964242D01*
X151361774Y-83966250D01*
X151394861Y-84011568D01*
X151399013Y-84081314D01*
X151364797Y-84142233D01*
X151340170Y-84160897D01*
X151269839Y-84201502D01*
X151269834Y-84201506D01*
X151181306Y-84290034D01*
X151181304Y-84290037D01*
X151118705Y-84398463D01*
X151118705Y-84398464D01*
X151086300Y-84519399D01*
X151086300Y-84644601D01*
X151100394Y-84697199D01*
X151118705Y-84765536D01*
X151171019Y-84856148D01*
X151187490Y-84924048D01*
X151164638Y-84990075D01*
X151151313Y-85005827D01*
X151105106Y-85052034D01*
X151105104Y-85052037D01*
X151042505Y-85160463D01*
X151042505Y-85160464D01*
X151010100Y-85281399D01*
X151010100Y-85406601D01*
X151042505Y-85527536D01*
X151105105Y-85635964D01*
X151193636Y-85724495D01*
X151262500Y-85764253D01*
X151310715Y-85814819D01*
X151324500Y-85871640D01*
X151324500Y-88330150D01*
X151304815Y-88397189D01*
X151303603Y-88399040D01*
X151264033Y-88458260D01*
X151264032Y-88458264D01*
X151249500Y-88531321D01*
X151249500Y-89880678D01*
X151264032Y-89953735D01*
X151264033Y-89953739D01*
X151264034Y-89953740D01*
X151319399Y-90036601D01*
X151399999Y-90090455D01*
X151402260Y-90091966D01*
X151402264Y-90091967D01*
X151475321Y-90106499D01*
X151475324Y-90106500D01*
X151475326Y-90106500D01*
X151824674Y-90106500D01*
X151875811Y-90096328D01*
X151924189Y-90096328D01*
X151975326Y-90106500D01*
X152324674Y-90106500D01*
X152375811Y-90096328D01*
X152424189Y-90096328D01*
X152475326Y-90106500D01*
X152824674Y-90106500D01*
X152875811Y-90096328D01*
X152924189Y-90096328D01*
X152975326Y-90106500D01*
X153324674Y-90106500D01*
X153375811Y-90096328D01*
X153424189Y-90096328D01*
X153475326Y-90106500D01*
X153824676Y-90106500D01*
X153824677Y-90106499D01*
X153897740Y-90091966D01*
X153980601Y-90036601D01*
X154035966Y-89953740D01*
X154050500Y-89880674D01*
X154050500Y-88531326D01*
X154050500Y-88531323D01*
X154050499Y-88531321D01*
X154035967Y-88458264D01*
X154035966Y-88458260D01*
X153996397Y-88399040D01*
X153975520Y-88332362D01*
X153975500Y-88330150D01*
X153975500Y-85001746D01*
X153973290Y-84993499D01*
X153973289Y-84993495D01*
X153953319Y-84918963D01*
X153953318Y-84918961D01*
X153910465Y-84844738D01*
X153877019Y-84811292D01*
X153843534Y-84749969D01*
X153840700Y-84723611D01*
X153840700Y-84697200D01*
X153826606Y-84644601D01*
X153808295Y-84576264D01*
X153745695Y-84467836D01*
X153657164Y-84379305D01*
X153548736Y-84316705D01*
X153548731Y-84316703D01*
X153477805Y-84297698D01*
X153418145Y-84261333D01*
X153387617Y-84198486D01*
X153385900Y-84177924D01*
X153385900Y-69680156D01*
X153405585Y-69613117D01*
X153441008Y-69577055D01*
X153480601Y-69550601D01*
X153535966Y-69467740D01*
X153550500Y-69394674D01*
X153550500Y-66794700D01*
X153553050Y-66786014D01*
X153551762Y-66777053D01*
X153562740Y-66753012D01*
X153570185Y-66727661D01*
X153577025Y-66721733D01*
X153580787Y-66713497D01*
X153603021Y-66699207D01*
X153622989Y-66681906D01*
X153633503Y-66679618D01*
X153639565Y-66675723D01*
X153674500Y-66670700D01*
X153728100Y-66670700D01*
X153795139Y-66690385D01*
G37*
%TD.AperFunction*%
%TD*%
M02*
