M48
; DRILL file KiCad 10.0.3 date 2026-07-30T22:07:56
; FORMAT={-:-/ absolute / metric / decimal}
; #@! TF.CreationDate,2026-07-30T22:07:56-05:00
; #@! TF.GenerationSoftware,Kicad,Pcbnew,10.0.3
; #@! TF.FileFunction,Plated,1,2,PTH
FMAT,2
METRIC
; #@! TA.AperFunction,Plated,PTH,ViaDrill
T1C0.200
%
G90
G05
T1
X148.204Y-77.57
X148.204Y-79.602
X148.204Y-81.634
X148.204Y-83.92
X148.204Y-85.952
X148.204Y-87.984
X148.204Y-90.016
X148.204Y-92.048
X148.204Y-94.08
X150.236Y-77.57
X150.236Y-79.602
X150.236Y-81.634
X150.236Y-83.92
X150.236Y-85.952
X150.236Y-87.984
X150.236Y-90.016
X150.236Y-92.048
X150.236Y-94.08
X151.155Y-93.675
X151.172Y-69.825
X151.638Y-70.256
X151.638Y-93.32
X152.146Y-69.799
X152.146Y-93.675
X152.654Y-70.231
X152.654Y-93.32
X153.162Y-69.799
X153.162Y-93.701
X153.628Y-70.536
X154.3Y-77.57
X154.3Y-79.602
X154.3Y-81.634
X154.3Y-83.92
X154.3Y-85.952
X154.3Y-87.984
X154.3Y-90.016
X154.3Y-92.048
X154.3Y-94.08
X156.332Y-77.57
X156.332Y-79.602
X156.332Y-81.634
X156.332Y-83.92
X156.332Y-85.952
X156.332Y-87.984
X156.332Y-90.016
X156.332Y-92.048
X156.332Y-94.08
M30
