%TF.GenerationSoftware,KiCad,Pcbnew,8.0.5*%
%TF.CreationDate,2024-10-11T17:01:53-05:00*%
%TF.ProjectId,Thermal_Camera,54686572-6d61-46c5-9f43-616d6572612e,rev?*%
%TF.SameCoordinates,Original*%
%TF.FileFunction,Soldermask,Top*%
%TF.FilePolarity,Negative*%
%FSLAX46Y46*%
G04 Gerber Fmt 4.6, Leading zero omitted, Abs format (unit mm)*
G04 Created by KiCad (PCBNEW 8.0.5) date 2024-10-11 17:01:53*
%MOMM*%
%LPD*%
G01*
G04 APERTURE LIST*
G04 Aperture macros list*
%AMRoundRect*
0 Rectangle with rounded corners*
0 $1 Rounding radius*
0 $2 $3 $4 $5 $6 $7 $8 $9 X,Y pos of 4 corners*
0 Add a 4 corners polygon primitive as box body*
4,1,4,$2,$3,$4,$5,$6,$7,$8,$9,$2,$3,0*
0 Add four circle primitives for the rounded corners*
1,1,$1+$1,$2,$3*
1,1,$1+$1,$4,$5*
1,1,$1+$1,$6,$7*
1,1,$1+$1,$8,$9*
0 Add four rect primitives between the rounded corners*
20,1,$1+$1,$2,$3,$4,$5,0*
20,1,$1+$1,$4,$5,$6,$7,0*
20,1,$1+$1,$6,$7,$8,$9,0*
20,1,$1+$1,$8,$9,$2,$3,0*%
G04 Aperture macros list end*
%ADD10R,0.600000X0.500000*%
%ADD11R,0.700000X0.600000*%
%ADD12R,0.500000X0.600000*%
%ADD13C,1.500000*%
%ADD14R,0.400000X0.600000*%
%ADD15R,0.600000X0.400000*%
%ADD16RoundRect,0.100000X-0.225000X-0.100000X0.225000X-0.100000X0.225000X0.100000X-0.225000X0.100000X0*%
%ADD17R,1.060000X0.650000*%
%ADD18R,0.800000X3.200000*%
%ADD19RoundRect,0.200000X0.200000X0.250000X-0.200000X0.250000X-0.200000X-0.250000X0.200000X-0.250000X0*%
%ADD20RoundRect,0.070000X-0.070000X-0.355000X0.070000X-0.355000X0.070000X0.355000X-0.070000X0.355000X0*%
%ADD21RoundRect,0.070000X-0.070000X-0.305000X0.070000X-0.305000X0.070000X0.305000X-0.070000X0.305000X0*%
%ADD22RoundRect,0.250000X0.787500X1.025000X-0.787500X1.025000X-0.787500X-1.025000X0.787500X-1.025000X0*%
%ADD23R,0.300000X0.750000*%
%ADD24R,1.500000X1.300000*%
%ADD25RoundRect,0.150000X-0.150000X0.587500X-0.150000X-0.587500X0.150000X-0.587500X0.150000X0.587500X0*%
%ADD26R,1.000000X1.600000*%
%ADD27R,3.500000X3.500000*%
%ADD28R,0.700000X0.250000*%
%ADD29R,0.250000X0.700000*%
%ADD30R,1.325000X1.825000*%
%ADD31R,0.300000X0.800000*%
%ADD32C,3.000000*%
%ADD33RoundRect,0.112500X-0.237500X0.112500X-0.237500X-0.112500X0.237500X-0.112500X0.237500X0.112500X0*%
%ADD34C,2.000000*%
%ADD35RoundRect,0.112500X0.187500X0.112500X-0.187500X0.112500X-0.187500X-0.112500X0.187500X-0.112500X0*%
%ADD36R,0.200000X0.200000*%
%ADD37O,0.200000X0.850000*%
%ADD38R,0.575000X0.400000*%
%ADD39R,0.675000X0.400000*%
%ADD40R,1.950000X2.600000*%
%ADD41C,0.900000*%
%ADD42R,2.300000X0.500000*%
%ADD43R,2.500000X2.000000*%
%ADD44C,0.365000*%
%ADD45R,3.200000X0.800000*%
%ADD46R,0.350000X0.650000*%
%ADD47R,1.600000X1.000000*%
%ADD48R,1.700000X1.700000*%
%ADD49O,1.700000X1.700000*%
%ADD50RoundRect,0.062500X0.350000X0.062500X-0.350000X0.062500X-0.350000X-0.062500X0.350000X-0.062500X0*%
%ADD51R,1.200000X2.000000*%
%ADD52RoundRect,0.150000X0.150000X-0.587500X0.150000X0.587500X-0.150000X0.587500X-0.150000X-0.587500X0*%
%ADD53C,1.700000*%
%ADD54RoundRect,0.125000X-0.125000X0.125000X-0.125000X-0.125000X0.125000X-0.125000X0.125000X0.125000X0*%
%ADD55R,1.903000X2.790000*%
%ADD56RoundRect,0.067500X-0.097500X-0.067500X0.097500X-0.067500X0.097500X0.067500X-0.097500X0.067500X0*%
%ADD57R,0.750000X0.300000*%
%ADD58R,1.300000X1.500000*%
%ADD59C,3.200000*%
%ADD60C,3.500000*%
G04 APERTURE END LIST*
D10*
%TO.C,C1414*%
X254851700Y-45344300D03*
X253751700Y-45344300D03*
%TD*%
D11*
%TO.C,D2702*%
X262646200Y-57250000D03*
X262646200Y-56150000D03*
%TD*%
D10*
%TO.C,C202*%
X177885000Y-63855600D03*
X178985000Y-63855600D03*
%TD*%
D12*
%TO.C,C1202*%
X234130800Y-135220800D03*
X234130800Y-134120800D03*
%TD*%
D13*
%TO.C,TP2601*%
X177384100Y-119527300D03*
%TD*%
D14*
%TO.C,R1414*%
X252770500Y-45344300D03*
X251870500Y-45344300D03*
%TD*%
D15*
%TO.C,TH1401*%
X194665600Y-59378000D03*
X194665600Y-58478000D03*
%TD*%
D11*
%TO.C,D2803*%
X262646200Y-79729000D03*
X262646200Y-78629000D03*
%TD*%
D15*
%TO.C,R2023*%
X199669400Y-98102000D03*
X199669400Y-99002000D03*
%TD*%
D12*
%TO.C,C1752*%
X216230200Y-120074600D03*
X216230200Y-121174600D03*
%TD*%
D15*
%TO.C,R2411*%
X219576200Y-86722800D03*
X219576200Y-87622800D03*
%TD*%
D10*
%TO.C,C1502*%
X261115000Y-103079800D03*
X260015000Y-103079800D03*
%TD*%
D12*
%TO.C,C1301*%
X225475800Y-128261200D03*
X225475800Y-127161200D03*
%TD*%
D15*
%TO.C,R2604*%
X176114100Y-117081700D03*
X176114100Y-116181700D03*
%TD*%
D12*
%TO.C,C3127*%
X217144600Y-80712400D03*
X217144600Y-79612400D03*
%TD*%
D16*
%TO.C,U2802*%
X259410200Y-75797900D03*
X259410200Y-76447900D03*
X259410200Y-77097900D03*
X261310200Y-77097900D03*
X261310200Y-76447900D03*
X261310200Y-75797900D03*
%TD*%
D10*
%TO.C,C2708*%
X231243000Y-52225300D03*
X230143000Y-52225300D03*
%TD*%
%TO.C,C1755*%
X232368000Y-110007400D03*
X233468000Y-110007400D03*
%TD*%
D12*
%TO.C,C3101*%
X182168800Y-69460200D03*
X182168800Y-68360200D03*
%TD*%
D10*
%TO.C,C603*%
X173422400Y-101836000D03*
X172322400Y-101836000D03*
%TD*%
D17*
%TO.C,U2602*%
X183675200Y-127188000D03*
X183675200Y-126238000D03*
X183675200Y-125288000D03*
X181475200Y-125288000D03*
X181475200Y-126238000D03*
X181475200Y-127188000D03*
%TD*%
D12*
%TO.C,C1731*%
X217170000Y-120074600D03*
X217170000Y-121174600D03*
%TD*%
D14*
%TO.C,R1003*%
X233966600Y-78779600D03*
X234866600Y-78779600D03*
%TD*%
D12*
%TO.C,C3112*%
X219506800Y-120971400D03*
X219506800Y-119871400D03*
%TD*%
D18*
%TO.C,R1205*%
X225844000Y-131241800D03*
X224244000Y-131241800D03*
%TD*%
D14*
%TO.C,R2017*%
X249765400Y-118160800D03*
X250665400Y-118160800D03*
%TD*%
D16*
%TO.C,U2701*%
X259410200Y-53299600D03*
X259410200Y-53949600D03*
X259410200Y-54599600D03*
X261310200Y-54599600D03*
X261310200Y-53949600D03*
X261310200Y-53299600D03*
%TD*%
D19*
%TO.C,X2401*%
X219640800Y-78879000D03*
X219640800Y-77029000D03*
X218190800Y-77029000D03*
X218190800Y-78879000D03*
%TD*%
D12*
%TO.C,C3114*%
X230174800Y-120971400D03*
X230174800Y-119871400D03*
%TD*%
D20*
%TO.C,U1403*%
X253579000Y-47701800D03*
D21*
X254079000Y-47751800D03*
X254579000Y-47751800D03*
X254579000Y-46601800D03*
X254079000Y-46601800D03*
X253579000Y-46601800D03*
%TD*%
D15*
%TO.C,R2413*%
X217518800Y-86722800D03*
X217518800Y-87622800D03*
%TD*%
D14*
%TO.C,R2406*%
X214692200Y-77979400D03*
X213792200Y-77979400D03*
%TD*%
D10*
%TO.C,C1741*%
X232368000Y-101549200D03*
X233468000Y-101549200D03*
%TD*%
D12*
%TO.C,C3109*%
X185699400Y-120971400D03*
X185699400Y-119871400D03*
%TD*%
D10*
%TO.C,C1405*%
X186292400Y-75438000D03*
X187392400Y-75438000D03*
%TD*%
D14*
%TO.C,R605*%
X177019800Y-110548200D03*
X177919800Y-110548200D03*
%TD*%
D10*
%TO.C,C3123*%
X236076400Y-86258400D03*
X237176400Y-86258400D03*
%TD*%
D13*
%TO.C,TP203*%
X172694600Y-72745600D03*
%TD*%
D10*
%TO.C,C2904*%
X199863800Y-65760600D03*
X198763800Y-65760600D03*
%TD*%
D11*
%TO.C,D2703*%
X262646200Y-60056100D03*
X262646200Y-58956100D03*
%TD*%
D12*
%TO.C,C3126*%
X222072200Y-80737800D03*
X222072200Y-79637800D03*
%TD*%
D22*
%TO.C,C203*%
X178121400Y-76380700D03*
X171896400Y-76380700D03*
%TD*%
D10*
%TO.C,C1742*%
X232368000Y-106248200D03*
X233468000Y-106248200D03*
%TD*%
%TO.C,C1764*%
X211286000Y-94843600D03*
X212386000Y-94843600D03*
%TD*%
D23*
%TO.C,U902*%
X208649000Y-81901600D03*
X208149000Y-81901600D03*
X207649000Y-81901600D03*
X207149000Y-81901600D03*
X207149000Y-84801600D03*
X207649000Y-84801600D03*
X208149000Y-84801600D03*
X208649000Y-84801600D03*
D24*
X207899000Y-83351600D03*
%TD*%
D16*
%TO.C,U2706*%
X259410200Y-67353000D03*
X259410200Y-68003000D03*
X259410200Y-68653000D03*
X261310200Y-68653000D03*
X261310200Y-68003000D03*
X261310200Y-67353000D03*
%TD*%
D14*
%TO.C,R2014*%
X249765400Y-112674400D03*
X250665400Y-112674400D03*
%TD*%
%TO.C,R206*%
X173601800Y-67970400D03*
X172701800Y-67970400D03*
%TD*%
D25*
%TO.C,Q1402*%
X252057200Y-46950500D03*
X250157200Y-46950500D03*
X251107200Y-48825500D03*
%TD*%
D12*
%TO.C,C2602*%
X170876900Y-116495900D03*
X170876900Y-115395900D03*
%TD*%
D10*
%TO.C,C1754*%
X232368000Y-108127800D03*
X233468000Y-108127800D03*
%TD*%
D11*
%TO.C,D2704*%
X262646200Y-62875500D03*
X262646200Y-61775500D03*
%TD*%
D26*
%TO.C,C2104*%
X246505600Y-131876800D03*
X249505600Y-131876800D03*
%TD*%
D10*
%TO.C,C1761*%
X211286000Y-93903800D03*
X212386000Y-93903800D03*
%TD*%
D15*
%TO.C,R2904*%
X197637400Y-58706600D03*
X197637400Y-59606600D03*
%TD*%
D16*
%TO.C,U2708*%
X229743000Y-49657000D03*
X229743000Y-50307000D03*
X229743000Y-50957000D03*
X231643000Y-50957000D03*
X231643000Y-50307000D03*
X231643000Y-49657000D03*
%TD*%
D27*
%TO.C,J201*%
X177602400Y-57242200D03*
X171602400Y-57242200D03*
X174602400Y-61942200D03*
%TD*%
D12*
%TO.C,C2402*%
X216121800Y-78504000D03*
X216121800Y-77404000D03*
%TD*%
D10*
%TO.C,C702*%
X173643200Y-112725200D03*
X174743200Y-112725200D03*
%TD*%
D14*
%TO.C,R404*%
X174327400Y-84836000D03*
X175227400Y-84836000D03*
%TD*%
D10*
%TO.C,C2906*%
X199863800Y-68122800D03*
X198763800Y-68122800D03*
%TD*%
D15*
%TO.C,R2407*%
X220617600Y-89578600D03*
X220617600Y-88678600D03*
%TD*%
D11*
%TO.C,D2705*%
X262646200Y-65645300D03*
X262646200Y-64545300D03*
%TD*%
D14*
%TO.C,R402*%
X174465400Y-79705200D03*
X173565400Y-79705200D03*
%TD*%
D12*
%TO.C,C503*%
X179960700Y-86492700D03*
X179960700Y-85392700D03*
%TD*%
D28*
%TO.C,U201*%
X178836400Y-68911600D03*
X178836400Y-68411600D03*
X178836400Y-67911600D03*
X178836400Y-67411600D03*
X178836400Y-66911600D03*
X178836400Y-66411600D03*
X178836400Y-65911600D03*
D29*
X177936400Y-65011600D03*
X177436400Y-65011600D03*
X176936400Y-65011600D03*
X176436400Y-65011600D03*
X175936400Y-65011600D03*
D28*
X175036400Y-65911600D03*
X175036400Y-66411600D03*
X175036400Y-66911600D03*
X175036400Y-67411600D03*
X175036400Y-67911600D03*
X175036400Y-68411600D03*
X175036400Y-68911600D03*
D29*
X175936400Y-69811600D03*
X176436400Y-69811600D03*
X176936400Y-69811600D03*
X177436400Y-69811600D03*
X177936400Y-69811600D03*
D30*
X177598900Y-68324100D03*
X177598900Y-66499100D03*
X176273900Y-68324100D03*
X176273900Y-66499100D03*
%TD*%
D10*
%TO.C,C3124*%
X236051000Y-80797400D03*
X237151000Y-80797400D03*
%TD*%
%TO.C,C1001*%
X233866600Y-77814400D03*
X234966600Y-77814400D03*
%TD*%
%TO.C,C3129*%
X204080200Y-90500200D03*
X202980200Y-90500200D03*
%TD*%
D14*
%TO.C,L1501*%
X260115000Y-105619800D03*
X261015000Y-105619800D03*
%TD*%
D10*
%TO.C,C1732*%
X232368000Y-98704400D03*
X233468000Y-98704400D03*
%TD*%
D12*
%TO.C,C1703*%
X216941400Y-94453800D03*
X216941400Y-93353800D03*
%TD*%
D31*
%TO.C,RN2103*%
X209147800Y-130112000D03*
X208647800Y-130112000D03*
X208147800Y-130112000D03*
X207647800Y-130112000D03*
X207147800Y-130112000D03*
X206647800Y-130112000D03*
X206147800Y-130112000D03*
X205647800Y-130112000D03*
X205647800Y-131912000D03*
X206147800Y-131912000D03*
X206647800Y-131912000D03*
X207147800Y-131912000D03*
X207647800Y-131912000D03*
X208147800Y-131912000D03*
X208647800Y-131912000D03*
X209147800Y-131912000D03*
%TD*%
D14*
%TO.C,R601*%
X174643200Y-98686400D03*
X173743200Y-98686400D03*
%TD*%
D10*
%TO.C,C2601*%
X171779500Y-118511300D03*
X172879500Y-118511300D03*
%TD*%
%TO.C,C2501*%
X182838000Y-117043200D03*
X183938000Y-117043200D03*
%TD*%
D32*
%TO.C,H3002*%
X262712400Y-135826600D03*
%TD*%
D14*
%TO.C,R2905*%
X204943200Y-66751200D03*
X205843200Y-66751200D03*
%TD*%
D10*
%TO.C,C1718*%
X232368000Y-99644200D03*
X233468000Y-99644200D03*
%TD*%
D14*
%TO.C,R2415*%
X217664000Y-75795000D03*
X216764000Y-75795000D03*
%TD*%
%TO.C,R208*%
X172701800Y-71018400D03*
X173601800Y-71018400D03*
%TD*%
D33*
%TO.C,Q601*%
X172761400Y-103243400D03*
X172761400Y-104543400D03*
X174761400Y-103893400D03*
%TD*%
D34*
%TO.C,SW1501*%
X257173800Y-139816400D03*
X250673800Y-139816400D03*
X257173800Y-135316400D03*
X250673800Y-135316400D03*
%TD*%
D35*
%TO.C,D601*%
X174743900Y-100286600D03*
X172643900Y-100286600D03*
%TD*%
D16*
%TO.C,U2801*%
X259410200Y-72991800D03*
X259410200Y-73641800D03*
X259410200Y-74291800D03*
X261310200Y-74291800D03*
X261310200Y-73641800D03*
X261310200Y-72991800D03*
%TD*%
D12*
%TO.C,C1713*%
X225018600Y-94453800D03*
X225018600Y-93353800D03*
%TD*%
D26*
%TO.C,C1203*%
X227576200Y-130124200D03*
X230576200Y-130124200D03*
%TD*%
D12*
%TO.C,C3111*%
X200914000Y-120971400D03*
X200914000Y-119871400D03*
%TD*%
D10*
%TO.C,C2901*%
X205943200Y-64820800D03*
X204843200Y-64820800D03*
%TD*%
D15*
%TO.C,R2021*%
X198374000Y-87064000D03*
X198374000Y-86164000D03*
%TD*%
D32*
%TO.C,H3003*%
X175412400Y-48526600D03*
%TD*%
D10*
%TO.C,C3103*%
X191448600Y-97917000D03*
X192548600Y-97917000D03*
%TD*%
D14*
%TO.C,R2019*%
X249765400Y-119278400D03*
X250665400Y-119278400D03*
%TD*%
D16*
%TO.C,U2702*%
X259410200Y-56100800D03*
X259410200Y-56750800D03*
X259410200Y-57400800D03*
X261310200Y-57400800D03*
X261310200Y-56750800D03*
X261310200Y-56100800D03*
%TD*%
D10*
%TO.C,C2902*%
X199863800Y-64846200D03*
X198763800Y-64846200D03*
%TD*%
D12*
%TO.C,C1601*%
X204786900Y-114926200D03*
X204786900Y-113826200D03*
%TD*%
D36*
%TO.C,U1401*%
X189163200Y-54951600D03*
D37*
X189163200Y-55276600D03*
D36*
X188763200Y-54951600D03*
D37*
X188763200Y-55276600D03*
D36*
X188363200Y-54951600D03*
D37*
X188363200Y-55276600D03*
D36*
X187963200Y-54951600D03*
D37*
X187963200Y-55276600D03*
D36*
X187563200Y-54951600D03*
D37*
X187563200Y-55276600D03*
D36*
X187163200Y-54951600D03*
D37*
X187163200Y-55276600D03*
X187163200Y-59226600D03*
D36*
X187163200Y-59551600D03*
D37*
X187563200Y-59226600D03*
D36*
X187563200Y-59551600D03*
D37*
X187963200Y-59226600D03*
D36*
X187963200Y-59551600D03*
D37*
X188363200Y-59226600D03*
D36*
X188363200Y-59551600D03*
D37*
X188763200Y-59226600D03*
D36*
X188763200Y-59551600D03*
D37*
X189163200Y-59226600D03*
D36*
X189163200Y-59551600D03*
D38*
X189528200Y-56151600D03*
D39*
X189475700Y-56151600D03*
X186850700Y-56151600D03*
D38*
X186798200Y-56151600D03*
D40*
X188163200Y-57251600D03*
D38*
X189528200Y-58351600D03*
D39*
X189475700Y-58351600D03*
X186850700Y-58351600D03*
D38*
X186798200Y-58351600D03*
%TD*%
D12*
%TO.C,C1751*%
X213639400Y-120074600D03*
X213639400Y-121174600D03*
%TD*%
%TO.C,C3132*%
X193446400Y-111598800D03*
X193446400Y-110498800D03*
%TD*%
%TO.C,C3116*%
X215290400Y-120971400D03*
X215290400Y-119871400D03*
%TD*%
D14*
%TO.C,R2205*%
X191447000Y-106095800D03*
X192347000Y-106095800D03*
%TD*%
%TO.C,R2206*%
X191447000Y-105156000D03*
X192347000Y-105156000D03*
%TD*%
D12*
%TO.C,C803*%
X205808300Y-83357500D03*
X205808300Y-84457500D03*
%TD*%
%TO.C,C2401*%
X217036200Y-78504000D03*
X217036200Y-77404000D03*
%TD*%
D15*
%TO.C,R803*%
X203608100Y-81138100D03*
X203608100Y-82038100D03*
%TD*%
%TO.C,R2405*%
X219576200Y-89578600D03*
X219576200Y-88678600D03*
%TD*%
D10*
%TO.C,C1753*%
X232368000Y-102489000D03*
X233468000Y-102489000D03*
%TD*%
D12*
%TO.C,C1004*%
X232311700Y-81188100D03*
X232311700Y-80088100D03*
%TD*%
D14*
%TO.C,R1703*%
X236085800Y-102539800D03*
X235185800Y-102539800D03*
%TD*%
D10*
%TO.C,C1730*%
X232368000Y-105308400D03*
X233468000Y-105308400D03*
%TD*%
D14*
%TO.C,R602*%
X174643200Y-96705200D03*
X173743200Y-96705200D03*
%TD*%
D12*
%TO.C,C701*%
X176098200Y-110524200D03*
X176098200Y-111624200D03*
%TD*%
%TO.C,C3108*%
X182651400Y-120971400D03*
X182651400Y-119871400D03*
%TD*%
D14*
%TO.C,R1202*%
X232944200Y-131749800D03*
X233844200Y-131749800D03*
%TD*%
D32*
%TO.C,H3001*%
X175412400Y-135826600D03*
%TD*%
D12*
%TO.C,C903*%
X209677000Y-83901600D03*
X209677000Y-82801600D03*
%TD*%
D10*
%TO.C,C2907*%
X204843200Y-70166900D03*
X205943200Y-70166900D03*
%TD*%
%TO.C,C3121*%
X236076400Y-95910400D03*
X237176400Y-95910400D03*
%TD*%
D14*
%TO.C,R1203*%
X232944200Y-130683000D03*
X233844200Y-130683000D03*
%TD*%
D15*
%TO.C,R1407*%
X192532000Y-58478000D03*
X192532000Y-59378000D03*
%TD*%
D14*
%TO.C,R2602*%
X178645400Y-126517400D03*
X179545400Y-126517400D03*
%TD*%
D15*
%TO.C,R1402*%
X193598800Y-58478000D03*
X193598800Y-59378000D03*
%TD*%
D10*
%TO.C,C1743*%
X232368000Y-111836200D03*
X233468000Y-111836200D03*
%TD*%
D41*
%TO.C,J2601*%
X173747800Y-124215800D03*
X173747800Y-128615800D03*
D42*
X176347800Y-124815800D03*
X176347800Y-125615800D03*
X176347800Y-126415800D03*
X176347800Y-127215800D03*
X176347800Y-128015800D03*
D43*
X170747800Y-121965800D03*
X170747800Y-130865800D03*
X176247800Y-121965800D03*
X176247800Y-130865800D03*
%TD*%
D10*
%TO.C,C1727*%
X232368000Y-115646200D03*
X233468000Y-115646200D03*
%TD*%
D44*
%TO.C,U1301*%
X227980800Y-127311200D03*
X227980800Y-127711200D03*
X227980800Y-128111200D03*
X227580800Y-127311200D03*
X227580800Y-127711200D03*
X227580800Y-128111200D03*
X227180800Y-127311200D03*
X227180800Y-127711200D03*
X227180800Y-128111200D03*
X226780800Y-127311200D03*
X226780800Y-127711200D03*
X226780800Y-128111200D03*
%TD*%
D14*
%TO.C,R2013*%
X249765400Y-111556800D03*
X250665400Y-111556800D03*
%TD*%
D45*
%TO.C,R207*%
X177419000Y-71310600D03*
X177419000Y-72910600D03*
%TD*%
D14*
%TO.C,R2603*%
X178645400Y-125476000D03*
X179545400Y-125476000D03*
%TD*%
D15*
%TO.C,R2902*%
X212623400Y-58706600D03*
X212623400Y-59606600D03*
%TD*%
D13*
%TO.C,TP2602*%
X185851800Y-125704600D03*
%TD*%
D46*
%TO.C,U1201*%
X232977400Y-132935000D03*
X232327400Y-132935000D03*
X231677400Y-132935000D03*
X231677400Y-135035000D03*
X232327400Y-135035000D03*
X232977400Y-135035000D03*
D47*
X232327400Y-133985000D03*
%TD*%
D15*
%TO.C,R2710*%
X234035600Y-55735400D03*
X234035600Y-54835400D03*
%TD*%
D12*
%TO.C,C3131*%
X200025000Y-111624200D03*
X200025000Y-110524200D03*
%TD*%
D10*
%TO.C,C401*%
X174565400Y-80695800D03*
X173465400Y-80695800D03*
%TD*%
D15*
%TO.C,R2103*%
X219462800Y-131462000D03*
X219462800Y-130562000D03*
%TD*%
D10*
%TO.C,C2603*%
X175013100Y-118511300D03*
X173913100Y-118511300D03*
%TD*%
D16*
%TO.C,U2704*%
X259410200Y-61726300D03*
X259410200Y-62376300D03*
X259410200Y-63026300D03*
X261310200Y-63026300D03*
X261310200Y-62376300D03*
X261310200Y-61726300D03*
%TD*%
D10*
%TO.C,C3102*%
X191423200Y-80873600D03*
X192523200Y-80873600D03*
%TD*%
%TO.C,C3120*%
X236051000Y-98552000D03*
X237151000Y-98552000D03*
%TD*%
D15*
%TO.C,R2903*%
X198678300Y-58706600D03*
X198678300Y-59606600D03*
%TD*%
D48*
%TO.C,J1502*%
X264292000Y-130149600D03*
D49*
X261752000Y-130149600D03*
%TD*%
D10*
%TO.C,C502*%
X173643200Y-95732600D03*
X174743200Y-95732600D03*
%TD*%
%TO.C,C2709*%
X231243000Y-57305300D03*
X230143000Y-57305300D03*
%TD*%
D14*
%TO.C,R2202*%
X192169200Y-102297900D03*
X191269200Y-102297900D03*
%TD*%
D12*
%TO.C,C2211*%
X189357000Y-105172600D03*
X189357000Y-104072600D03*
%TD*%
D11*
%TO.C,D2706*%
X262646200Y-68464700D03*
X262646200Y-67364700D03*
%TD*%
D10*
%TO.C,C3118*%
X236076400Y-115671600D03*
X237176400Y-115671600D03*
%TD*%
D44*
%TO.C,U701*%
X173593200Y-111474200D03*
X173593200Y-111074200D03*
X173593200Y-110674200D03*
X173993200Y-111474200D03*
X173993200Y-111074200D03*
X173993200Y-110674200D03*
X174393200Y-111474200D03*
X174393200Y-111074200D03*
X174393200Y-110674200D03*
X174793200Y-111474200D03*
X174793200Y-111074200D03*
X174793200Y-110674200D03*
%TD*%
D14*
%TO.C,R2503*%
X189197400Y-121589800D03*
X188297400Y-121589800D03*
%TD*%
D11*
%TO.C,D2802*%
X262646200Y-76909600D03*
X262646200Y-75809600D03*
%TD*%
D10*
%TO.C,C2605*%
X175013100Y-119451100D03*
X173913100Y-119451100D03*
%TD*%
D32*
%TO.C,H3004*%
X262712400Y-48526600D03*
%TD*%
D10*
%TO.C,C3130*%
X203927800Y-99568000D03*
X202827800Y-99568000D03*
%TD*%
D12*
%TO.C,C2205*%
X186588400Y-105172600D03*
X186588400Y-104072600D03*
%TD*%
D10*
%TO.C,C2908*%
X198763800Y-70179000D03*
X199863800Y-70179000D03*
%TD*%
D31*
%TO.C,RN2104*%
X204626600Y-130112000D03*
X204126600Y-130112000D03*
X203626600Y-130112000D03*
X203126600Y-130112000D03*
X202626600Y-130112000D03*
X202126600Y-130112000D03*
X201626600Y-130112000D03*
X201126600Y-130112000D03*
X201126600Y-131912000D03*
X201626600Y-131912000D03*
X202126600Y-131912000D03*
X202626600Y-131912000D03*
X203126600Y-131912000D03*
X203626600Y-131912000D03*
X204126600Y-131912000D03*
X204626600Y-131912000D03*
%TD*%
D16*
%TO.C,U2707*%
X259410200Y-70172400D03*
X259410200Y-70822400D03*
X259410200Y-71472400D03*
X261310200Y-71472400D03*
X261310200Y-70822400D03*
X261310200Y-70172400D03*
%TD*%
D15*
%TO.C,R2412*%
X218534800Y-86722800D03*
X218534800Y-87622800D03*
%TD*%
D10*
%TO.C,C1716*%
X232368000Y-104368600D03*
X233468000Y-104368600D03*
%TD*%
D16*
%TO.C,U2803*%
X259410200Y-78617300D03*
X259410200Y-79267300D03*
X259410200Y-79917300D03*
X261310200Y-79917300D03*
X261310200Y-79267300D03*
X261310200Y-78617300D03*
%TD*%
D14*
%TO.C,R2404*%
X221419000Y-76758800D03*
X222319000Y-76758800D03*
%TD*%
D12*
%TO.C,C1401*%
X185699400Y-55203000D03*
X185699400Y-56303000D03*
%TD*%
D10*
%TO.C,C2604*%
X179645400Y-127508000D03*
X178545400Y-127508000D03*
%TD*%
%TO.C,C2103*%
X244229800Y-134366000D03*
X245329800Y-134366000D03*
%TD*%
D50*
%TO.C,U2601*%
X174629400Y-117453900D03*
X174629400Y-116953900D03*
X174629400Y-116453900D03*
X174629400Y-115953900D03*
X174629400Y-115453900D03*
X172204400Y-115453900D03*
X172204400Y-115953900D03*
X172204400Y-116453900D03*
X172204400Y-116953900D03*
X172204400Y-117453900D03*
D51*
X173416900Y-116453900D03*
%TD*%
D15*
%TO.C,L2401*%
X216128600Y-79509200D03*
X216128600Y-80409200D03*
%TD*%
D12*
%TO.C,C1739*%
X222427800Y-120074600D03*
X222427800Y-121174600D03*
%TD*%
D44*
%TO.C,U501*%
X173593200Y-94481600D03*
X173593200Y-94081600D03*
X173593200Y-93681600D03*
X173993200Y-94481600D03*
X173993200Y-94081600D03*
X173993200Y-93681600D03*
X174393200Y-94481600D03*
X174393200Y-94081600D03*
X174393200Y-93681600D03*
X174793200Y-94481600D03*
X174793200Y-94081600D03*
X174793200Y-93681600D03*
%TD*%
D10*
%TO.C,C1702*%
X206544000Y-107365800D03*
X205444000Y-107365800D03*
%TD*%
%TO.C,C2502*%
X189297400Y-122580400D03*
X188197400Y-122580400D03*
%TD*%
D14*
%TO.C,R2016*%
X249765400Y-117068600D03*
X250665400Y-117068600D03*
%TD*%
D35*
%TO.C,D401*%
X174788900Y-83286600D03*
X172688900Y-83286600D03*
%TD*%
D14*
%TO.C,R2910*%
X198863800Y-71170800D03*
X199763800Y-71170800D03*
%TD*%
D10*
%TO.C,C1714*%
X206544000Y-106426000D03*
X205444000Y-106426000D03*
%TD*%
D12*
%TO.C,C3125*%
X225450400Y-80712400D03*
X225450400Y-79612400D03*
%TD*%
D10*
%TO.C,C2204*%
X191169200Y-101307300D03*
X192269200Y-101307300D03*
%TD*%
D15*
%TO.C,R1602*%
X205790800Y-114826200D03*
X205790800Y-113926200D03*
%TD*%
D14*
%TO.C,R2601*%
X177107000Y-115239800D03*
X176207000Y-115239800D03*
%TD*%
%TO.C,R607*%
X177019800Y-111615000D03*
X177919800Y-111615000D03*
%TD*%
%TO.C,R209*%
X173601800Y-69951600D03*
X172701800Y-69951600D03*
%TD*%
D13*
%TO.C,TP202*%
X170764200Y-63449200D03*
%TD*%
D10*
%TO.C,C2905*%
X205943200Y-68122800D03*
X204843200Y-68122800D03*
%TD*%
D52*
%TO.C,Q1401*%
X250154400Y-52776600D03*
X252054400Y-52776600D03*
X251104400Y-50901600D03*
%TD*%
D25*
%TO.C,Q602*%
X174711400Y-106308700D03*
X172811400Y-106308700D03*
X173761400Y-108183700D03*
%TD*%
D48*
%TO.C,J1501*%
X263722000Y-105628200D03*
D49*
X263722000Y-103088200D03*
X263722000Y-100548200D03*
X263722000Y-98008200D03*
X263722000Y-95468200D03*
X263722000Y-92928200D03*
X263722000Y-90388200D03*
D53*
X263722000Y-87848200D03*
%TD*%
D15*
%TO.C,R805*%
X204674900Y-81138100D03*
X204674900Y-82038100D03*
%TD*%
D14*
%TO.C,R2906*%
X198863800Y-66751200D03*
X199763800Y-66751200D03*
%TD*%
%TO.C,R2909*%
X204943200Y-71170800D03*
X205843200Y-71170800D03*
%TD*%
D12*
%TO.C,C2305*%
X257048000Y-127821600D03*
X257048000Y-128921600D03*
%TD*%
D14*
%TO.C,R2414*%
X222319000Y-77800200D03*
X221419000Y-77800200D03*
%TD*%
D11*
%TO.C,D2804*%
X262646200Y-82536300D03*
X262646200Y-81436300D03*
%TD*%
D15*
%TO.C,R1004*%
X234508700Y-83242800D03*
X234508700Y-82342800D03*
%TD*%
%TO.C,R2403*%
X218534800Y-89578600D03*
X218534800Y-88678600D03*
%TD*%
D25*
%TO.C,Q402*%
X174711400Y-89308700D03*
X172811400Y-89308700D03*
X173761400Y-91183700D03*
%TD*%
D15*
%TO.C,R2605*%
X177180900Y-116181700D03*
X177180900Y-117081700D03*
%TD*%
D12*
%TO.C,C2405*%
X214674000Y-81315600D03*
X214674000Y-82415600D03*
%TD*%
D14*
%TO.C,R2504*%
X182938000Y-115087400D03*
X183838000Y-115087400D03*
%TD*%
%TO.C,R1704*%
X236085800Y-99491800D03*
X235185800Y-99491800D03*
%TD*%
%TO.C,L1502*%
X261015000Y-100539800D03*
X260115000Y-100539800D03*
%TD*%
D10*
%TO.C,C2606*%
X179645400Y-124485400D03*
X178545400Y-124485400D03*
%TD*%
D47*
%TO.C,C1201*%
X235737400Y-135027800D03*
X235737400Y-132027800D03*
%TD*%
D12*
%TO.C,C2509*%
X187604400Y-120057000D03*
X187604400Y-118957000D03*
%TD*%
D54*
%TO.C,D1201*%
X227755400Y-132453200D03*
X227755400Y-134653200D03*
%TD*%
D15*
%TO.C,R2901*%
X213690200Y-58706600D03*
X213690200Y-59606600D03*
%TD*%
%TO.C,R2024*%
X197129400Y-87064000D03*
X197129400Y-86164000D03*
%TD*%
D16*
%TO.C,U2709*%
X229743000Y-54737000D03*
X229743000Y-55387000D03*
X229743000Y-56037000D03*
X231643000Y-56037000D03*
X231643000Y-55387000D03*
X231643000Y-54737000D03*
%TD*%
D12*
%TO.C,C3115*%
X235026200Y-120971400D03*
X235026200Y-119871400D03*
%TD*%
D15*
%TO.C,R2410*%
X220617600Y-86722800D03*
X220617600Y-87622800D03*
%TD*%
D55*
%TO.C,L1201*%
X233998300Y-138734800D03*
X229145300Y-138734800D03*
%TD*%
D12*
%TO.C,C501*%
X176098200Y-93531600D03*
X176098200Y-94631600D03*
%TD*%
D10*
%TO.C,C3122*%
X236076400Y-90195400D03*
X237176400Y-90195400D03*
%TD*%
D16*
%TO.C,U2705*%
X259410200Y-64533600D03*
X259410200Y-65183600D03*
X259410200Y-65833600D03*
X261310200Y-65833600D03*
X261310200Y-65183600D03*
X261310200Y-64533600D03*
%TD*%
D10*
%TO.C,C1704*%
X232368000Y-103428800D03*
X233468000Y-103428800D03*
%TD*%
D12*
%TO.C,C703*%
X179959000Y-103623200D03*
X179959000Y-102523200D03*
%TD*%
D16*
%TO.C,U2703*%
X259410200Y-58906900D03*
X259410200Y-59556900D03*
X259410200Y-60206900D03*
X261310200Y-60206900D03*
X261310200Y-59556900D03*
X261310200Y-58906900D03*
%TD*%
D11*
%TO.C,D2801*%
X262646200Y-74103500D03*
X262646200Y-73003500D03*
%TD*%
D10*
%TO.C,C3133*%
X203826200Y-106984800D03*
X202726200Y-106984800D03*
%TD*%
D15*
%TO.C,R1415*%
X182981600Y-49359400D03*
X182981600Y-50259400D03*
%TD*%
D10*
%TO.C,C1706*%
X232368000Y-107188000D03*
X233468000Y-107188000D03*
%TD*%
D12*
%TO.C,C2210*%
X188442600Y-105172600D03*
X188442600Y-104072600D03*
%TD*%
%TO.C,C1103*%
X228416200Y-80642600D03*
X228416200Y-81742600D03*
%TD*%
D10*
%TO.C,C3128*%
X203927800Y-85369400D03*
X202827800Y-85369400D03*
%TD*%
%TO.C,C2002*%
X250765400Y-115951000D03*
X249665400Y-115951000D03*
%TD*%
D12*
%TO.C,C1715*%
X225958400Y-94453800D03*
X225958400Y-93353800D03*
%TD*%
D10*
%TO.C,C2903*%
X205943200Y-65760600D03*
X204843200Y-65760600D03*
%TD*%
D47*
%TO.C,C1204*%
X229889000Y-132053200D03*
X229889000Y-135053200D03*
%TD*%
D10*
%TO.C,C601*%
X174743200Y-97695800D03*
X173643200Y-97695800D03*
%TD*%
D15*
%TO.C,TH1402*%
X195732400Y-59378000D03*
X195732400Y-58478000D03*
%TD*%
D10*
%TO.C,C1740*%
X206544000Y-102412800D03*
X205444000Y-102412800D03*
%TD*%
D14*
%TO.C,R2015*%
X249765400Y-114858800D03*
X250665400Y-114858800D03*
%TD*%
D12*
%TO.C,C3106*%
X183235600Y-110473400D03*
X183235600Y-111573400D03*
%TD*%
D10*
%TO.C,C1729*%
X232368000Y-100609400D03*
X233468000Y-100609400D03*
%TD*%
D12*
%TO.C,C3110*%
X196646800Y-120971400D03*
X196646800Y-119871400D03*
%TD*%
D10*
%TO.C,C2404*%
X215343200Y-84380200D03*
X216443200Y-84380200D03*
%TD*%
D14*
%TO.C,R211*%
X173601800Y-66903600D03*
X172701800Y-66903600D03*
%TD*%
%TO.C,R405*%
X177019800Y-93548200D03*
X177919800Y-93548200D03*
%TD*%
D10*
%TO.C,C1717*%
X232368000Y-113665000D03*
X233468000Y-113665000D03*
%TD*%
D11*
%TO.C,D2701*%
X262646200Y-54448800D03*
X262646200Y-53348800D03*
%TD*%
D10*
%TO.C,C1728*%
X206544000Y-103352600D03*
X205444000Y-103352600D03*
%TD*%
D56*
%TO.C,D2001*%
X253837800Y-112276000D03*
X253837800Y-112776000D03*
X253837800Y-113276000D03*
X254517800Y-113276000D03*
X254517800Y-112776000D03*
X254517800Y-112276000D03*
%TD*%
D23*
%TO.C,U702*%
X178931000Y-101623200D03*
X178431000Y-101623200D03*
X177931000Y-101623200D03*
X177431000Y-101623200D03*
X177431000Y-104523200D03*
X177931000Y-104523200D03*
X178431000Y-104523200D03*
X178931000Y-104523200D03*
D24*
X178181000Y-103073200D03*
%TD*%
D15*
%TO.C,R2022*%
X200914000Y-98102000D03*
X200914000Y-99002000D03*
%TD*%
D11*
%TO.C,D2709*%
X232979000Y-55835400D03*
X232979000Y-54735400D03*
%TD*%
D14*
%TO.C,R2104*%
X197630200Y-133299200D03*
X196730200Y-133299200D03*
%TD*%
D11*
%TO.C,D2708*%
X232979000Y-50755400D03*
X232979000Y-49655400D03*
%TD*%
D10*
%TO.C,C3107*%
X175167200Y-113893600D03*
X176267200Y-113893600D03*
%TD*%
D15*
%TO.C,R2709*%
X234035600Y-50655400D03*
X234035600Y-49755400D03*
%TD*%
D12*
%TO.C,C2202*%
X187502800Y-105172600D03*
X187502800Y-104072600D03*
%TD*%
D10*
%TO.C,C403*%
X173422400Y-84836000D03*
X172322400Y-84836000D03*
%TD*%
%TO.C,C2503*%
X182838000Y-116103400D03*
X183938000Y-116103400D03*
%TD*%
D16*
%TO.C,U2804*%
X259410200Y-81424600D03*
X259410200Y-82074600D03*
X259410200Y-82724600D03*
X261310200Y-82724600D03*
X261310200Y-82074600D03*
X261310200Y-81424600D03*
%TD*%
D12*
%TO.C,C3113*%
X221107000Y-120971400D03*
X221107000Y-119871400D03*
%TD*%
D14*
%TO.C,R604*%
X174327400Y-101836000D03*
X175227400Y-101836000D03*
%TD*%
%TO.C,R2401*%
X219365800Y-80163800D03*
X218465800Y-80163800D03*
%TD*%
D56*
%TO.C,D2002*%
X253837800Y-117152800D03*
X253837800Y-117652800D03*
X253837800Y-118152800D03*
X254517800Y-118152800D03*
X254517800Y-117652800D03*
X254517800Y-117152800D03*
%TD*%
D10*
%TO.C,C1408*%
X187384600Y-53848000D03*
X188484600Y-53848000D03*
%TD*%
%TO.C,C1302*%
X227930800Y-126060200D03*
X226830800Y-126060200D03*
%TD*%
%TO.C,C3117*%
X236051000Y-119532400D03*
X237151000Y-119532400D03*
%TD*%
D14*
%TO.C,R2408*%
X214692200Y-76912600D03*
X213792200Y-76912600D03*
%TD*%
%TO.C,R407*%
X177019800Y-94615000D03*
X177919800Y-94615000D03*
%TD*%
D34*
%TO.C,SW2501*%
X189203400Y-139816400D03*
X182703400Y-139816400D03*
X189203400Y-135316400D03*
X182703400Y-135316400D03*
%TD*%
D23*
%TO.C,U1102*%
X229450200Y-82642600D03*
X229950200Y-82642600D03*
X230450200Y-82642600D03*
X230950200Y-82642600D03*
X230950200Y-79742600D03*
X230450200Y-79742600D03*
X229950200Y-79742600D03*
X229450200Y-79742600D03*
D24*
X230200200Y-81192600D03*
%TD*%
D31*
%TO.C,RN2102*%
X213694400Y-130112000D03*
X213194400Y-130112000D03*
X212694400Y-130112000D03*
X212194400Y-130112000D03*
X211694400Y-130112000D03*
X211194400Y-130112000D03*
X210694400Y-130112000D03*
X210194400Y-130112000D03*
X210194400Y-131912000D03*
X210694400Y-131912000D03*
X211194400Y-131912000D03*
X211694400Y-131912000D03*
X212194400Y-131912000D03*
X212694400Y-131912000D03*
X213194400Y-131912000D03*
X213694400Y-131912000D03*
%TD*%
D10*
%TO.C,C201*%
X173701800Y-68961000D03*
X172601800Y-68961000D03*
%TD*%
D33*
%TO.C,Q401*%
X172761400Y-86243400D03*
X172761400Y-87543400D03*
X174761400Y-86893400D03*
%TD*%
D10*
%TO.C,C3104*%
X191423200Y-82016600D03*
X192523200Y-82016600D03*
%TD*%
D14*
%TO.C,R2409*%
X218465800Y-75795000D03*
X219365800Y-75795000D03*
%TD*%
D11*
%TO.C,D2707*%
X262646200Y-71284100D03*
X262646200Y-70184100D03*
%TD*%
D10*
%TO.C,C1705*%
X232368000Y-109067600D03*
X233468000Y-109067600D03*
%TD*%
D15*
%TO.C,R2402*%
X217518800Y-89578600D03*
X217518800Y-88678600D03*
%TD*%
D10*
%TO.C,C3119*%
X236076400Y-110464600D03*
X237176400Y-110464600D03*
%TD*%
D23*
%TO.C,U502*%
X178931000Y-84605200D03*
X178431000Y-84605200D03*
X177931000Y-84605200D03*
X177431000Y-84605200D03*
X177431000Y-87505200D03*
X177931000Y-87505200D03*
X178431000Y-87505200D03*
X178931000Y-87505200D03*
D24*
X178181000Y-86055200D03*
%TD*%
D12*
%TO.C,C2403*%
X223284600Y-82255400D03*
X223284600Y-83355400D03*
%TD*%
D15*
%TO.C,R2505*%
X188608300Y-119957000D03*
X188608300Y-119057000D03*
%TD*%
D10*
%TO.C,C1744*%
X232368000Y-97764600D03*
X233468000Y-97764600D03*
%TD*%
D15*
%TO.C,R1006*%
X233441900Y-83242800D03*
X233441900Y-82342800D03*
%TD*%
D57*
%TO.C,U2302*%
X252677000Y-127621600D03*
X252677000Y-128121600D03*
X252677000Y-128621600D03*
X252677000Y-129121600D03*
X255577000Y-129121600D03*
X255577000Y-128621600D03*
X255577000Y-128121600D03*
X255577000Y-127621600D03*
D58*
X254127000Y-128371600D03*
%TD*%
D14*
%TO.C,R204*%
X172701800Y-64998600D03*
X173601800Y-64998600D03*
%TD*%
D12*
%TO.C,C1701*%
X217881200Y-94453800D03*
X217881200Y-93353800D03*
%TD*%
D10*
%TO.C,C3105*%
X184209600Y-109397800D03*
X185309600Y-109397800D03*
%TD*%
D31*
%TO.C,RN2101*%
X218241000Y-130112000D03*
X217741000Y-130112000D03*
X217241000Y-130112000D03*
X216741000Y-130112000D03*
X216241000Y-130112000D03*
X215741000Y-130112000D03*
X215241000Y-130112000D03*
X214741000Y-130112000D03*
X214741000Y-131912000D03*
X215241000Y-131912000D03*
X215741000Y-131912000D03*
X216241000Y-131912000D03*
X216741000Y-131912000D03*
X217241000Y-131912000D03*
X217741000Y-131912000D03*
X218241000Y-131912000D03*
%TD*%
D14*
%TO.C,R2606*%
X178645400Y-128498600D03*
X179545400Y-128498600D03*
%TD*%
D59*
%TO.C,J1401*%
X191618400Y-53035200D03*
X247228400Y-53035200D03*
D27*
X182973400Y-53035200D03*
D60*
X254973400Y-53035200D03*
%TD*%
D48*
%TO.C,J2002*%
X191211200Y-85394800D03*
D49*
X191211200Y-87934800D03*
X191211200Y-90474800D03*
X191211200Y-93014800D03*
X191211200Y-95554800D03*
%TD*%
D48*
%TO.C,TP201*%
X170764200Y-133559400D03*
%TD*%
G36*
X267748494Y-42194906D02*
G01*
X267766800Y-42239100D01*
X267766800Y-43955700D01*
X267748494Y-43999894D01*
X267704300Y-44018200D01*
X259371100Y-44018200D01*
X259326906Y-43999894D01*
X259308600Y-43955700D01*
X259308600Y-42239100D01*
X259326906Y-42194906D01*
X259371100Y-42176600D01*
X267704300Y-42176600D01*
X267748494Y-42194906D01*
G37*
M02*
