M48
; DRILL file {KiCad 8.0.5} date 2024-10-11T17:01:57-0500
; FORMAT={-:-/ absolute / inch / decimal}
; #@! TF.CreationDate,2024-10-11T17:01:57-05:00
; #@! TF.GenerationSoftware,Kicad,Pcbnew,8.0.5
; #@! TF.FileFunction,Plated,1,8,PTH
FMAT,2
INCH
; #@! TA.AperFunction,Plated,PTH,ViaDrill
T1C0.0079
; #@! TA.AperFunction,Plated,PTH,ComponentDrill
T2C0.0394
; #@! TA.AperFunction,Plated,PTH,ComponentDrill
T3C0.0433
; #@! TA.AperFunction,Plated,PTH,ComponentDrill
T4C0.0787
%
G90
G05
T1
X6.728Y-4.52
X6.732Y-2.695
X6.746Y-2.652
X6.757Y-2.987
X6.757Y-3.007
X6.757Y-3.027
X6.763Y-4.699
X6.765Y-3.083
X6.765Y-3.176
X6.766Y-2.633
X6.775Y-4.116
X6.776Y-3.446
X6.777Y-2.987
X6.777Y-3.007
X6.777Y-3.027
X6.797Y-3.821
X6.8Y-4.399
X6.804Y-3.732
X6.805Y-3.703
X6.809Y-4.439
X6.811Y-4.373
X6.816Y-3.769
X6.817Y-2.582
X6.817Y-2.61
X6.817Y-4.564
X6.817Y-4.584
X6.817Y-4.6043
X6.817Y-4.67
X6.817Y-4.69
X6.817Y-4.7103
X6.821Y-3.279
X6.821Y-3.948
X6.834Y-2.823
X6.837Y-4.564
X6.837Y-4.584
X6.837Y-4.6043
X6.837Y-4.67
X6.837Y-4.69
X6.837Y-4.7103
X6.839Y-4.329
X6.846Y-3.177
X6.846Y-3.67
X6.853Y-3.792
X6.853Y-3.846
X6.862Y-4.465
X6.866Y-4.339
X6.869Y-2.817
X6.875Y-3.669
X6.889Y-3.138
X6.896Y-3.807
X6.8963Y-4.484
X6.903Y-2.535
X6.908Y-4.557
X6.908Y-4.628
X6.908Y-4.668
X6.912Y-3.177
X6.912Y-3.846
X6.927Y-2.72
X6.932Y-3.786
X6.932Y-4.442
X6.935Y-2.609
X6.937Y-4.537
X6.9397Y-4.484
X6.943Y-4.115
X6.943Y-5.066
X6.948Y-4.628
X6.948Y-4.668
X6.954Y-3.889
X6.955Y-3.22
X6.966Y-2.531
X6.972Y-3.786
X6.972Y-4.442
X6.976Y-4.596
X6.982Y-2.622
X6.985Y-2.8075
X6.985Y-2.8705
X6.986Y-4.142
X6.988Y-4.633
X6.988Y-4.668
X6.994Y-3.477
X6.994Y-4.038
X6.994Y-4.0583
X6.994Y-4.0783
X6.995Y-3.3677
X6.995Y-3.388
X6.995Y-3.408
X6.995Y-4.537
X6.997Y-3.22
X6.997Y-3.889
X7.006Y-3.9718
X7.01Y-2.718
X7.011Y-3.3
X7.012Y-3.746
X7.012Y-3.786
X7.012Y-4.402
X7.012Y-4.442
X7.014Y-4.038
X7.014Y-4.0583
X7.014Y-4.0783
X7.015Y-3.3677
X7.015Y-3.388
X7.015Y-3.408
X7.017Y-3.6735
X7.017Y-4.3428
X7.024Y-2.559
X7.028Y-3.474
X7.028Y-4.628
X7.028Y-4.668
X7.028Y-4.901
X7.029Y-5.02
X7.03Y-4.146
X7.033Y-5.086
X7.034Y-4.038
X7.034Y-4.0583
X7.034Y-4.0783
X7.035Y-3.3677
X7.035Y-3.388
X7.035Y-3.408
X7.052Y-3.746
X7.052Y-3.786
X7.052Y-4.402
X7.052Y-4.442
X7.066Y-4.167
X7.066Y-4.187
X7.066Y-4.207
X7.066Y-4.25
X7.066Y-4.27
X7.066Y-4.29
X7.067Y-3.498
X7.067Y-3.518
X7.067Y-3.538
X7.067Y-3.581
X7.067Y-3.601
X7.067Y-3.621
X7.068Y-3.334
X7.071Y-2.514
X7.075Y-2.698
X7.075Y-4.133
X7.081Y-2.637
X7.085Y-2.665
X7.086Y-4.167
X7.086Y-4.187
X7.086Y-4.207
X7.086Y-4.25
X7.086Y-4.27
X7.086Y-4.29
X7.087Y-3.498
X7.087Y-3.518
X7.087Y-3.538
X7.087Y-3.581
X7.087Y-3.601
X7.087Y-3.621
X7.088Y-2.581
X7.092Y-3.746
X7.092Y-3.786
X7.092Y-4.402
X7.092Y-4.442
X7.097Y-4.115
X7.098Y-3.445
X7.102Y-4.9462
X7.102Y-4.9738
X7.115Y-2.84
X7.12Y-4.041
X7.123Y-2.637
X7.123Y-3.234
X7.123Y-3.904
X7.132Y-3.746
X7.132Y-3.786
X7.132Y-4.402
X7.132Y-4.442
X7.133Y-3.396
X7.133Y-3.416
X7.133Y-3.515
X7.133Y-3.535
X7.133Y-4.066
X7.133Y-4.086
X7.133Y-4.184
X7.133Y-4.204
X7.134Y-2.999
X7.136Y-2.664
X7.138Y-4.572
X7.145Y-4.906
X7.153Y-3.396
X7.153Y-3.416
X7.153Y-3.515
X7.153Y-3.535
X7.153Y-4.066
X7.153Y-4.086
X7.153Y-4.184
X7.153Y-4.204
X7.155Y-3.936
X7.155Y-3.964
X7.163Y-3.307
X7.164Y-3.209
X7.1687Y-3.04
X7.1697Y-2.798
X7.1697Y-2.999
X7.172Y-2.6913
X7.172Y-2.7347
X7.173Y-3.396
X7.173Y-3.416
X7.173Y-3.515
X7.173Y-3.535
X7.173Y-4.066
X7.173Y-4.086
X7.173Y-4.184
X7.173Y-4.204
X7.1752Y-4.6084
X7.188Y-3.291
X7.191Y-4.7193
X7.191Y-4.7627
X7.201Y-2.873
X7.214Y-4.3493
X7.214Y-4.3927
X7.216Y-3.396
X7.216Y-3.416
X7.216Y-3.515
X7.216Y-3.535
X7.216Y-4.066
X7.216Y-4.086
X7.216Y-4.184
X7.216Y-4.204
X7.216Y-4.437
X7.216Y-4.48
X7.219Y-2.793
X7.222Y-2.734
X7.226Y-4.571
X7.231Y-4.796
X7.236Y-3.396
X7.236Y-3.416
X7.236Y-3.515
X7.236Y-3.535
X7.236Y-4.066
X7.236Y-4.086
X7.236Y-4.184
X7.236Y-4.204
X7.236Y-4.901
X7.247Y-4.386
X7.2523Y-4.307
X7.256Y-3.396
X7.256Y-3.416
X7.256Y-3.515
X7.256Y-3.535
X7.256Y-4.066
X7.256Y-4.086
X7.256Y-4.184
X7.256Y-4.204
X7.261Y-4.639
X7.269Y-4.51
X7.2752Y-4.86
X7.276Y-4.985
X7.278Y-3.306
X7.282Y-3.018
X7.289Y-2.217
X7.289Y-3.231
X7.2957Y-4.307
X7.297Y-4.082
X7.298Y-2.685
X7.298Y-2.7467
X7.299Y-2.8777
X7.299Y-2.898
X7.299Y-2.918
X7.301Y-4.459
X7.3028Y-4.86
X7.306Y-4.5033
X7.306Y-4.5308
X7.311Y-3.049
X7.311Y-3.069
X7.311Y-3.089
X7.311Y-3.109
X7.311Y-3.129
X7.311Y-3.149
X7.311Y-3.169
X7.311Y-3.189
X7.311Y-4.7193
X7.311Y-4.7627
X7.312Y-4.132
X7.317Y-4.062
X7.317Y-4.101
X7.317Y-4.633
X7.319Y-2.8777
X7.319Y-2.898
X7.319Y-2.918
X7.331Y-3.049
X7.331Y-3.069
X7.331Y-3.089
X7.331Y-3.109
X7.331Y-3.129
X7.331Y-3.149
X7.331Y-3.169
X7.331Y-3.189
X7.337Y-2.69
X7.337Y-2.743
X7.339Y-2.8777
X7.339Y-2.898
X7.339Y-2.918
X7.358Y-3.009
X7.379Y-2.743
X7.382Y-4.176
X7.386Y-4.699
X7.386Y-4.766
X7.387Y-3.934
X7.388Y-2.2337
X7.388Y-2.254
X7.388Y-2.274
X7.389Y-4.633
X7.392Y-4.418
X7.392Y-4.4377
X7.392Y-4.458
X7.392Y-4.478
X7.392Y-4.498
X7.3985Y-4.3318
X7.401Y-4.07
X7.408Y-2.2337
X7.408Y-2.254
X7.408Y-2.274
X7.412Y-3.919
X7.412Y-4.418
X7.412Y-4.4377
X7.412Y-4.458
X7.412Y-4.478
X7.412Y-4.498
X7.413Y-2.5555
X7.413Y-2.6185
X7.418Y-4.176
X7.422Y-3.461
X7.426Y-4.743
X7.426Y-4.826
X7.4261Y-4.3318
X7.428Y-2.2337
X7.428Y-2.254
X7.428Y-2.274
X7.429Y-2.846
X7.431Y-3.054
X7.431Y-3.074
X7.431Y-3.094
X7.431Y-3.143
X7.431Y-3.163
X7.431Y-3.183
X7.432Y-4.418
X7.432Y-4.4377
X7.432Y-4.458
X7.432Y-4.478
X7.432Y-4.498
X7.433Y-4.633
X7.442Y-2.743
X7.443Y-2.121
X7.443Y-2.947
X7.451Y-3.054
X7.451Y-3.074
X7.451Y-3.094
X7.451Y-3.143
X7.451Y-3.163
X7.451Y-3.183
X7.452Y-4.418
X7.452Y-4.4377
X7.452Y-4.458
X7.452Y-4.478
X7.452Y-4.498
X7.462Y-3.31
X7.472Y-4.418
X7.472Y-4.4377
X7.472Y-4.458
X7.472Y-4.478
X7.472Y-4.498
X7.476Y-4.76
X7.4773Y-4.3327
X7.482Y-4.082
X7.482Y-4.123
X7.489Y-4.826
X7.492Y-3.989
X7.492Y-4.584
X7.492Y-4.787
X7.497Y-3.229
X7.5Y-4.061
X7.501Y-4.102
X7.5048Y-4.3327
X7.508Y-4.034
X7.509Y-4.606
X7.509Y-4.643
X7.511Y-3.894
X7.526Y-2.686
X7.526Y-2.706
X7.526Y-2.726
X7.526Y-2.769
X7.526Y-2.789
X7.526Y-2.809
X7.532Y-2.177
X7.532Y-2.205
X7.532Y-2.254
X7.5333Y-4.14
X7.5333Y-4.177
X7.5363Y-3.184
X7.5363Y-3.229
X7.5373Y-3.855
X7.546Y-2.686
X7.546Y-2.706
X7.546Y-2.726
X7.546Y-2.769
X7.546Y-2.789
X7.546Y-2.809
X7.553Y-3.989
X7.5767Y-4.14
X7.5767Y-4.177
X7.5797Y-3.184
X7.5797Y-3.229
X7.58Y-2.283
X7.58Y-2.338
X7.5807Y-3.855
X7.586Y-3.365
X7.616Y-4.249
X7.616Y-4.352
X7.616Y-4.3937
X7.625Y-4.063
X7.628Y-4.629
X7.63Y-3.34
X7.644Y-2.519
X7.644Y-2.539
X7.644Y-2.559
X7.644Y-2.603
X7.644Y-2.623
X7.644Y-2.643
X7.644Y-2.686
X7.644Y-2.706
X7.644Y-2.726
X7.644Y-2.769
X7.644Y-2.789
X7.644Y-2.809
X7.644Y-3.307
X7.645Y-4.141
X7.645Y-4.173
X7.645Y-5.414
X7.645Y-5.435
X7.645Y-5.456
X7.659Y-3.995
X7.659Y-4.237
X7.664Y-2.283
X7.664Y-2.519
X7.664Y-2.539
X7.664Y-2.559
X7.664Y-2.603
X7.664Y-2.623
X7.664Y-2.643
X7.664Y-2.686
X7.664Y-2.706
X7.664Y-2.726
X7.664Y-2.769
X7.664Y-2.789
X7.664Y-2.809
X7.666Y-5.414
X7.666Y-5.435
X7.666Y-5.456
X7.677Y-4.315
X7.687Y-5.414
X7.687Y-5.435
X7.687Y-5.456
X7.692Y-4.141
X7.692Y-4.173
X7.6947Y-5.205
X7.6947Y-5.225
X7.6947Y-5.245
X7.695Y-4.075
X7.695Y-4.237
X7.696Y-3.995
X7.697Y-3.858
X7.706Y-2.283
X7.7147Y-5.205
X7.7147Y-5.225
X7.7147Y-5.245
X7.72Y-4.249
X7.724Y-3.926
X7.732Y-3.428
X7.732Y-3.995
X7.74Y-5.339
X7.74Y-5.359
X7.742Y-4.7193
X7.742Y-4.7627
X7.743Y-2.397
X7.744Y-2.932
X7.747Y-3.712
X7.76Y-5.339
X7.76Y-5.359
X7.761Y-3.378
X7.761Y-3.926
X7.761Y-4.247
X7.773Y-2.552
X7.774Y-2.628
X7.78Y-5.267
X7.789Y-2.763
X7.805Y-2.682
X7.81Y-2.804
X7.81Y-3.378
X7.81Y-3.886
X7.813Y-5.205
X7.813Y-5.225
X7.813Y-5.245
X7.833Y-5.205
X7.833Y-5.225
X7.833Y-5.245
X7.834Y-3.553
X7.842Y-2.589
X7.852Y-2.763
X7.86Y-3.405
X7.861Y-3.914
X7.875Y-4.3513
X7.875Y-4.3947
X7.886Y-2.682
X7.888Y-3.563
X7.908Y-4.795
X7.91Y-3.462
X7.91Y-3.914
X7.91Y-4.135
X7.91Y-4.7193
X7.91Y-4.7627
X7.916Y-5.243
X7.918Y-2.589
X7.919Y-5.074
X7.922Y-2.552
X7.927Y-3.967
X7.938Y-5.095
X7.951Y-3.219
X7.951Y-3.259
X7.951Y-3.299
X7.951Y-4.465
X7.958Y-5.074
X7.961Y-4.997
X7.97Y-4.241
X7.978Y-5.094
X7.978Y-5.23
X7.978Y-5.25
X7.981Y-4.956
X7.985Y-3.066
X7.9853Y-3.361
X7.9853Y-3.92
X7.991Y-3.219
X7.991Y-3.299
X7.9913Y-3.563
X7.997Y-4.465
X7.997Y-5.074
X7.998Y-5.23
X7.998Y-5.25
X8.001Y-3.096
X8.001Y-4.121
X8.001Y-4.158
X8.004Y-4.939
X8.0059Y-3.2569
X8.01Y-2.628
X8.014Y-2.551
X8.016Y-3.178
X8.017Y-5.093
X8.021Y-4.016
X8.0247Y-4.212
X8.027Y-3.029
X8.0287Y-3.361
X8.0287Y-3.92
X8.029Y-2.762
X8.033Y-3.597
X8.034Y-5.06
X8.0347Y-3.563
X8.041Y-2.681
X8.049Y-2.804
X8.054Y-5.079
X8.056Y-3.029
X8.056Y-5.27
X8.057Y-5.041
X8.06Y-3.178
X8.062Y-4.495
X8.062Y-4.56
X8.068Y-2.927
X8.0689Y-3.2569
X8.075Y-5.25
X8.082Y-2.589
X8.0883Y-4.032
X8.0883Y-4.069
X8.0883Y-4.19
X8.0883Y-4.227
X8.091Y-2.762
X8.091Y-3.672
X8.094Y-4.273
X8.095Y-5.27
X8.101Y-3.157
X8.102Y-4.521
X8.107Y-4.365
X8.114Y-3.2811
X8.115Y-3.325
X8.115Y-5.25
X8.121Y-3.061
X8.121Y-3.104
X8.121Y-5.079
X8.128Y-2.682
X8.131Y-4.273
X8.1317Y-4.032
X8.1317Y-4.069
X8.1317Y-4.19
X8.1317Y-4.227
X8.133Y-5.162
X8.134Y-5.27
X8.14Y-4.561
X8.142Y-4.851
X8.153Y-3.364
X8.154Y-5.25
X8.16Y-2.552
X8.16Y-4.155
X8.16Y-4.34
X8.16Y-4.372
X8.16Y-4.405
X8.161Y-2.588
X8.162Y-3.931
X8.162Y-3.961
X8.162Y-3.994
X8.162Y-4.876
X8.163Y-3.899
X8.164Y-4.498
X8.164Y-4.545
X8.1661Y-3.1939
X8.174Y-5.27
X8.177Y-3.1557
X8.177Y-3.2617
X8.177Y-3.282
X8.177Y-3.302
X8.183Y-4.896
X8.193Y-5.25
X8.197Y-3.1557
X8.197Y-3.176
X8.197Y-3.2617
X8.197Y-3.282
X8.197Y-3.302
X8.198Y-4.92
X8.208Y-3.364
X8.213Y-5.27
X8.217Y-3.105
X8.232Y-5.026
X8.233Y-5.25
X8.239Y-3.085
X8.242Y-3.946
X8.242Y-3.977
X8.242Y-4.01
X8.248Y-4.255
X8.249Y-4.356
X8.252Y-5.27
X8.261Y-3.334
X8.267Y-4.388
X8.27Y-3.536
X8.27Y-3.557
X8.27Y-3.578
X8.272Y-4.182
X8.272Y-4.24
X8.272Y-4.276
X8.272Y-4.313
X8.272Y-5.25
X8.283Y-3.399
X8.284Y-4.684
X8.285Y-3.156
X8.285Y-3.176
X8.285Y-3.196
X8.285Y-3.216
X8.285Y-3.236
X8.285Y-3.256
X8.291Y-3.536
X8.291Y-3.557
X8.291Y-3.578
X8.292Y-5.27
X8.3Y-4.287
X8.301Y-4.599
X8.305Y-3.216
X8.305Y-3.236
X8.305Y-3.256
X8.308Y-4.331
X8.311Y-5.052
X8.311Y-5.08
X8.311Y-5.25
X8.312Y-5.024
X8.314Y-3.035
X8.316Y-4.684
X8.3183Y-3.697
X8.3183Y-3.734
X8.319Y-3.6233
X8.32Y-2.397
X8.325Y-3.236
X8.325Y-3.256
X8.331Y-5.27
X8.332Y-4.598
X8.337Y-5.037
X8.342Y-3.046
X8.345Y-3.236
X8.345Y-3.256
X8.35Y-5.25
X8.351Y-5.062
X8.361Y-3.6233
X8.3617Y-3.697
X8.3617Y-3.734
X8.362Y-4.685
X8.366Y-5.027
X8.371Y-5.27
X8.374Y-4.572
X8.389Y-3.536
X8.389Y-3.557
X8.389Y-3.578
X8.39Y-4.967
X8.39Y-4.997
X8.39Y-5.25
X8.394Y-4.939
X8.395Y-3.848
X8.399Y-4.587
X8.407Y-3.751
X8.41Y-3.536
X8.41Y-3.557
X8.41Y-3.578
X8.41Y-5.27
X8.411Y-4.7273
X8.411Y-4.7707
X8.413Y-3.001
X8.413Y-3.045
X8.413Y-3.081
X8.413Y-3.117
X8.413Y-3.152
X8.413Y-3.187
X8.413Y-3.223
X8.413Y-3.258
X8.413Y-3.303
X8.417Y-3.868
X8.43Y-5.25
X8.435Y-4.688
X8.442Y-3.757
X8.443Y-3.724
X8.449Y-5.27
X8.4519Y-3.2052
X8.4519Y-3.2406
X8.452Y-3.099
X8.452Y-3.134
X8.4524Y-3.0281
X8.4524Y-3.0701
X8.468Y-5.25
X8.47Y-3.445
X8.471Y-2.943
X8.471Y-3.361
X8.471Y-4.905
X8.474Y-4.6
X8.476Y-4.7193
X8.476Y-4.7627
X8.484Y-4.083
X8.484Y-4.138
X8.484Y-4.193
X8.484Y-4.248
X8.484Y-4.303
X8.484Y-4.358
X8.487Y-3.324
X8.489Y-3.4672
X8.489Y-3.4948
X8.489Y-5.27
X8.49Y-3.842
X8.497Y-2.983
X8.497Y-3.21
X8.5Y-4.024
X8.505Y-3.763
X8.508Y-5.25
X8.509Y-3.064
X8.513Y-4.7273
X8.513Y-4.7707
X8.515Y-2.943
X8.515Y-3.361
X8.521Y-3.842
X8.525Y-4.435
X8.528Y-5.27
X8.533Y-2.9824
X8.533Y-3.3217
X8.536Y-3.527
X8.539Y-4.083
X8.539Y-4.138
X8.539Y-4.193
X8.539Y-4.248
X8.539Y-4.303
X8.539Y-4.358
X8.541Y-3.6753
X8.541Y-3.7187
X8.541Y-4.6
X8.544Y-3.064
X8.548Y-4.905
X8.548Y-5.25
X8.549Y-3.1343
X8.549Y-3.1777
X8.55Y-4.7273
X8.55Y-4.7707
X8.551Y-2.943
X8.551Y-3.361
X8.553Y-5.079
X8.56Y-3.015
X8.564Y-3.504
X8.567Y-5.27
X8.5685Y-3.3217
X8.578Y-3.6753
X8.578Y-3.7187
X8.58Y-3.156
X8.586Y-2.943
X8.586Y-3.361
X8.594Y-4.083
X8.594Y-4.138
X8.594Y-4.193
X8.594Y-4.248
X8.594Y-4.303
X8.594Y-4.358
X8.6Y-3.764
X8.6039Y-3.3217
X8.604Y-3.504
X8.607Y-5.047
X8.615Y-3.841
X8.615Y-4.686
X8.621Y-2.943
X8.621Y-3.361
X8.631Y-3.764
X8.636Y-3.181
X8.6393Y-3.3217
X8.641Y-5.175
X8.642Y-4.7193
X8.642Y-4.7627
X8.643Y-5.045
X8.645Y-3.504
X8.647Y-3.841
X8.647Y-5.27
X8.649Y-4.083
X8.649Y-4.138
X8.649Y-4.193
X8.649Y-4.248
X8.649Y-4.303
X8.649Y-4.358
X8.657Y-2.943
X8.657Y-3.361
X8.662Y-3.764
X8.668Y-5.026
X8.6748Y-3.3217
X8.675Y-2.982
X8.676Y-3.033
X8.686Y-3.504
X8.692Y-2.943
X8.692Y-3.361
X8.704Y-4.083
X8.704Y-4.138
X8.704Y-4.193
X8.704Y-4.248
X8.704Y-4.303
X8.704Y-4.358
X8.705Y-4.7193
X8.705Y-4.7627
X8.71Y-3.322
X8.714Y-3.755
X8.717Y-3.097
X8.728Y-2.943
X8.728Y-3.361
X8.729Y-3.849
X8.743Y-3.1353
X8.743Y-3.1787
X8.743Y-3.753
X8.7456Y-3.3217
X8.748Y-4.6
X8.757Y-4.7273
X8.757Y-4.7707
X8.759Y-4.083
X8.759Y-4.138
X8.759Y-4.193
X8.759Y-4.248
X8.759Y-4.303
X8.759Y-4.358
X8.772Y-3.848
X8.773Y-2.943
X8.773Y-3.361
X8.774Y-3.751
X8.791Y-3.205
X8.7913Y-3.028
X8.7913Y-3.0635
X8.7913Y-3.2406
X8.7913Y-3.2761
X8.792Y-5.113
X8.792Y-5.133
X8.792Y-5.153
X8.792Y-5.173
X8.792Y-5.193
X8.792Y-5.213
X8.812Y-4.885
X8.83Y-3.001
X8.83Y-3.081
X8.83Y-3.117
X8.83Y-3.152
X8.83Y-3.187
X8.83Y-3.224
X8.83Y-3.258
X8.83Y-3.303
X8.8305Y-3.0458
X8.8323Y-5.0323
X8.833Y-5.17
X8.836Y-4.693
X8.838Y-5.414
X8.838Y-5.435
X8.838Y-5.456
X8.851Y-4.606
X8.8517Y-5.0517
X8.859Y-3.6753
X8.859Y-3.7187
X8.859Y-5.414
X8.859Y-5.435
X8.859Y-5.456
X8.866Y-4.866
X8.867Y-4.693
X8.874Y-3.851
X8.874Y-3.879
X8.876Y-3.1343
X8.876Y-3.1777
X8.876Y-4.957
X8.879Y-4.603
X8.88Y-5.414
X8.88Y-5.435
X8.88Y-5.456
X8.889Y-5.171
X8.896Y-3.6753
X8.896Y-3.7187
X8.899Y-4.849
X8.901Y-3.221
X8.901Y-3.241
X8.911Y-3.188
X8.911Y-4.963
X8.914Y-4.606
X8.916Y-3.851
X8.921Y-3.221
X8.921Y-3.241
X8.93Y-4.693
X8.936Y-3.175
X8.94Y-3.726
X8.941Y-3.221
X8.941Y-3.241
X8.941Y-3.261
X8.946Y-4.606
X8.9483Y-3.9632
X8.9483Y-3.9908
X8.952Y-5.064
X8.953Y-3.755
X8.96Y-4.166
X8.961Y-3.221
X8.961Y-3.241
X8.961Y-3.261
X8.961Y-3.281
X8.961Y-3.301
X8.961Y-3.321
X8.962Y-4.693
X8.97Y-4.368
X8.972Y-3.649
X8.972Y-3.698
X8.974Y-4.478
X8.979Y-4.065
X8.982Y-4.025
X8.987Y-3.126
X8.988Y-4.165
X8.993Y-4.266
X8.997Y-4.43
X8.998Y-4.002
X8.998Y-4.33
X8.999Y-5.001
X8.999Y-5.033
X9.0Y-4.216
X9.0005Y-4.0455
X9.001Y-4.963
X9.002Y-4.293
X9.002Y-4.387
X9.002Y-4.482
X9.003Y-3.931
X9.018Y-3.398
X9.02Y-2.006
X9.022Y-2.206
X9.028Y-5.243
X9.03Y-5.307
X9.03Y-5.327
X9.032Y-5.278
X9.035Y-3.373
X9.036Y-2.056
X9.037Y-2.256
X9.0455Y-3.0845
X9.051Y-5.307
X9.051Y-5.327
X9.052Y-3.177
X9.052Y-3.197
X9.052Y-3.2173
X9.052Y-3.303
X9.052Y-3.3233
X9.056Y-5.243
X9.062Y-4.7193
X9.062Y-4.7627
X9.063Y-4.618
X9.063Y-4.638
X9.063Y-4.658
X9.071Y-5.327
X9.072Y-3.177
X9.072Y-3.197
X9.072Y-3.2173
X9.072Y-3.283
X9.072Y-3.303
X9.072Y-3.3233
X9.082Y-3.096
X9.083Y-4.618
X9.083Y-4.638
X9.083Y-4.658
X9.084Y-4.433
X9.086Y-3.946
X9.086Y-4.549
X9.086Y-4.702
X9.091Y-4.341
X9.091Y-4.372
X9.091Y-4.922
X9.095Y-1.955
X9.095Y-2.155
X9.121Y-5.215
X9.122Y-3.142
X9.126Y-3.371
X9.126Y-3.414
X9.1267Y-5.266
X9.1267Y-5.284
X9.129Y-2.256
X9.131Y-2.056
X9.131Y-3.197
X9.144Y-4.707
X9.1467Y-5.266
X9.1467Y-5.284
X9.1483Y-3.849
X9.1483Y-3.886
X9.1483Y-3.923
X9.1483Y-3.961
X9.1483Y-4.035
X9.1483Y-4.072
X9.1483Y-4.109
X9.1483Y-4.146
X9.1483Y-4.183
X9.1483Y-4.22
X9.1483Y-4.257
X9.1483Y-4.294
X9.1483Y-4.331
X9.1483Y-4.403
X9.1483Y-4.473
X9.1483Y-4.553
X9.15Y-3.321
X9.1523Y-4.514
X9.1667Y-5.266
X9.1667Y-5.284
X9.171Y-5.146
X9.171Y-5.166
X9.171Y-5.186
X9.172Y-3.064
X9.175Y-5.384
X9.1801Y-3.2208
X9.182Y-4.618
X9.182Y-4.638
X9.182Y-4.658
X9.185Y-3.445
X9.185Y-3.507
X9.189Y-3.301
X9.191Y-3.105
X9.1917Y-3.849
X9.1917Y-3.886
X9.1917Y-3.923
X9.1917Y-3.961
X9.1917Y-4.035
X9.1917Y-4.072
X9.1917Y-4.109
X9.1917Y-4.146
X9.1917Y-4.183
X9.1917Y-4.22
X9.1917Y-4.257
X9.1917Y-4.294
X9.1917Y-4.331
X9.1917Y-4.403
X9.1917Y-4.475
X9.1917Y-4.553
X9.199Y-5.363
X9.202Y-4.618
X9.202Y-4.638
X9.202Y-4.658
X9.214Y-2.016
X9.214Y-2.213
X9.224Y-3.444
X9.224Y-5.145
X9.224Y-5.187
X9.2266Y-3.9632
X9.2266Y-3.9908
X9.233Y-3.301
X9.235Y-3.064
X9.24Y-5.263
X9.2431Y-3.2208
X9.248Y-3.382
X9.248Y-3.412
X9.253Y-4.7193
X9.253Y-4.7627
X9.257Y-3.856
X9.259Y-4.036
X9.2593Y-3.917
X9.261Y-5.187
X9.261Y-5.207
X9.261Y-5.305
X9.261Y-5.325
X9.273Y-3.181
X9.273Y-3.201
X9.273Y-3.2208
X9.273Y-3.241
X9.273Y-3.261
X9.281Y-5.187
X9.281Y-5.207
X9.281Y-5.305
X9.281Y-5.325
X9.293Y-3.181
X9.293Y-3.201
X9.293Y-3.221
X9.293Y-3.241
X9.293Y-3.261
X9.293Y-4.553
X9.2933Y-3.88
X9.2933Y-4.706
X9.2943Y-3.396
X9.2943Y-3.551
X9.2943Y-3.776
X9.2943Y-4.349
X9.2947Y-3.917
X9.2947Y-3.956
X9.2947Y-3.998
X9.295Y-3.09
X9.295Y-4.035
X9.301Y-5.187
X9.301Y-5.207
X9.301Y-5.305
X9.301Y-5.325
X9.3367Y-3.181
X9.3367Y-3.88
X9.3367Y-4.706
X9.3377Y-3.396
X9.3377Y-3.551
X9.3377Y-3.776
X9.3377Y-4.349
X9.338Y-4.553
X9.375Y-4.283
X9.376Y-3.571
X9.376Y-3.599
X9.376Y-3.629
X9.394Y-4.503
X9.395Y-4.474
X9.4173Y-3.9947
X9.436Y-3.599
X9.436Y-3.629
X9.4367Y-3.9753
X9.45Y-5.397
X9.45Y-5.418
X9.45Y-5.439
X9.471Y-5.397
X9.471Y-5.418
X9.471Y-5.439
X9.492Y-5.397
X9.492Y-5.418
X9.492Y-5.439
X9.547Y-5.175
X9.547Y-5.2277
X9.563Y-5.332
X9.567Y-4.843
X9.569Y-3.307
X9.569Y-3.357
X9.585Y-4.867
X9.591Y-5.332
X9.604Y-3.084
X9.606Y-5.175
X9.606Y-5.2277
X9.625Y-5.328
X9.643Y-4.336
X9.659Y-5.29
X9.66Y-4.569
X9.661Y-4.524
X9.675Y-4.404
X9.675Y-4.424
X9.68Y-4.589
X9.68Y-4.631
X9.68Y-4.674
X9.694Y-5.172
X9.694Y-5.192
X9.694Y-5.212
X9.695Y-4.404
X9.695Y-4.424
X9.699Y-5.397
X9.699Y-5.418
X9.699Y-5.439
X9.714Y-5.172
X9.714Y-5.192
X9.714Y-5.212
X9.715Y-4.404
X9.715Y-4.424
X9.72Y-5.397
X9.72Y-5.418
X9.72Y-5.439
X9.721Y-4.364
X9.73Y-4.49
X9.741Y-5.397
X9.741Y-5.418
X9.741Y-5.439
X9.77Y-4.47
X9.77Y-4.49
X9.772Y-4.394
X9.772Y-4.435
X9.807Y-3.128
X9.809Y-4.565
X9.809Y-4.609
X9.809Y-4.652
X9.809Y-4.696
X9.81Y-4.436
X9.81Y-4.522
X9.811Y-4.392
X9.8123Y-5.172
X9.8123Y-5.192
X9.8123Y-5.212
X9.8323Y-5.172
X9.8323Y-5.192
X9.8323Y-5.212
X9.833Y-4.349
X9.833Y-4.479
X9.849Y-1.802
X9.8687Y-4.349
X9.869Y-4.48
X9.877Y-3.357
X9.894Y-1.785
X9.897Y-4.975
X9.91Y-3.857
X9.91Y-4.367
X9.913Y-4.478
X9.914Y-5.019
X9.914Y-5.048
X9.921Y-5.084
X9.9454Y-4.3889
X9.9454Y-4.4322
X9.9454Y-4.5188
X9.9454Y-4.5621
X9.9454Y-4.6054
X9.9454Y-4.6487
X9.9454Y-4.692
X9.962Y-4.975
X9.985Y-5.034
X9.985Y-5.054
X9.985Y-5.074
X10.005Y-5.034
X10.005Y-5.054
X10.005Y-5.074
X10.007Y-4.44
X10.007Y-4.632
X10.025Y-5.034
X10.025Y-5.054
X10.025Y-5.074
X10.14Y-5.032
X10.14Y-5.076
X10.209Y-3.958
X10.209Y-4.058
X10.213Y-2.164
X10.245Y-2.124
X10.2453Y-2.234
X10.2453Y-2.345
X10.2453Y-2.456
X10.2453Y-2.567
X10.2453Y-2.677
X10.2453Y-2.789
X10.2453Y-2.899
X10.2453Y-3.009
X10.2453Y-3.121
X10.2453Y-3.231
X10.253Y-3.864
X10.269Y-2.099
X10.27Y-2.54
X10.271Y-2.43
X10.271Y-2.763
X10.272Y-2.208
X10.272Y-2.319
X10.272Y-2.651
X10.281Y-3.865
X10.287Y-2.859
X10.287Y-2.969
X10.287Y-3.191
X10.288Y-3.079
X10.31Y-2.124
X10.3103Y-2.234
X10.3103Y-2.345
X10.3103Y-2.456
X10.3103Y-2.567
X10.3103Y-2.677
X10.3103Y-2.789
X10.3103Y-2.899
X10.3103Y-3.009
X10.3103Y-3.121
X10.3103Y-3.231
X10.3407Y-2.556
X10.3407Y-2.6694
X10.3407Y-2.779
X10.3407Y-2.8914
X10.3407Y-3.0014
X10.3407Y-3.11
X10.3407Y-3.2234
X10.341Y-2.117
X10.3413Y-2.227
X10.3413Y-2.338
X10.3413Y-2.449
T2
X6.723Y-5.2582
X7.528Y-3.362
X7.528Y-3.462
X7.528Y-3.562
X7.528Y-3.662
X7.528Y-3.762
X10.3052Y-5.124
X10.3828Y-3.4586
X10.3828Y-3.5586
X10.3828Y-3.6586
X10.3828Y-3.7586
X10.3828Y-3.8586
X10.3828Y-3.9586
X10.3828Y-4.0586
X10.3828Y-4.1586
X10.4052Y-5.124
T3
X7.193Y-5.3274
X7.193Y-5.5046
X7.449Y-5.3274
X7.449Y-5.5046
X9.869Y-5.3274
X9.869Y-5.5046
X10.125Y-5.3274
X10.125Y-5.5046
T4
X7.2037Y-2.088
X10.0383Y-2.088
T2
G00X6.756Y-2.2143
M15
G01X6.756Y-2.293
M16
G05
G00X6.8347Y-2.4387
M15
G01X6.9135Y-2.4387
M16
G05
G00X6.9922Y-2.2143
M15
G01X6.9922Y-2.293
M16
G05
M30
