%TF.GenerationSoftware,KiCad,Pcbnew,8.0.5*%
%TF.CreationDate,2024-10-11T17:01:53-05:00*%
%TF.ProjectId,Thermal_Camera,54686572-6d61-46c5-9f43-616d6572612e,rev?*%
%TF.SameCoordinates,Original*%
%TF.FileFunction,Soldermask,Bot*%
%TF.FilePolarity,Negative*%
%FSLAX46Y46*%
G04 Gerber Fmt 4.6, Leading zero omitted, Abs format (unit mm)*
G04 Created by KiCad (PCBNEW 8.0.5) date 2024-10-11 17:01:53*
%MOMM*%
%LPD*%
G01*
G04 APERTURE LIST*
G04 Aperture macros list*
%AMRoundRect*
0 Rectangle with rounded corners*
0 $1 Rounding radius*
0 $2 $3 $4 $5 $6 $7 $8 $9 X,Y pos of 4 corners*
0 Add a 4 corners polygon primitive as box body*
4,1,4,$2,$3,$4,$5,$6,$7,$8,$9,$2,$3,0*
0 Add four circle primitives for the rounded corners*
1,1,$1+$1,$2,$3*
1,1,$1+$1,$4,$5*
1,1,$1+$1,$6,$7*
1,1,$1+$1,$8,$9*
0 Add four rect primitives between the rounded corners*
20,1,$1+$1,$2,$3,$4,$5,0*
20,1,$1+$1,$4,$5,$6,$7,0*
20,1,$1+$1,$6,$7,$8,$9,0*
20,1,$1+$1,$8,$9,$2,$3,0*%
G04 Aperture macros list end*
%ADD10R,3.500000X3.500000*%
%ADD11C,3.000000*%
%ADD12C,2.000000*%
%ADD13C,0.900000*%
%ADD14R,1.700000X1.700000*%
%ADD15O,1.700000X1.700000*%
%ADD16C,1.700000*%
%ADD17RoundRect,0.100000X-0.225000X-0.100000X0.225000X-0.100000X0.225000X0.100000X-0.225000X0.100000X0*%
%ADD18R,0.400000X0.600000*%
%ADD19R,0.600000X0.400000*%
%ADD20R,0.500000X0.600000*%
%ADD21R,0.600000X0.500000*%
%ADD22R,1.000000X1.600000*%
%ADD23RoundRect,0.100000X0.225000X0.100000X-0.225000X0.100000X-0.225000X-0.100000X0.225000X-0.100000X0*%
%ADD24R,0.700000X0.600000*%
%ADD25C,0.365000*%
%ADD26RoundRect,0.150000X-0.150000X0.650000X-0.150000X-0.650000X0.150000X-0.650000X0.150000X0.650000X0*%
%ADD27R,1.600000X1.000000*%
%ADD28R,3.200000X0.800000*%
%ADD29RoundRect,0.102000X0.150000X0.650000X-0.150000X0.650000X-0.150000X-0.650000X0.150000X-0.650000X0*%
%ADD30RoundRect,0.102000X0.900000X1.100000X-0.900000X1.100000X-0.900000X-1.100000X0.900000X-1.100000X0*%
%ADD31RoundRect,0.100000X-0.100000X0.225000X-0.100000X-0.225000X0.100000X-0.225000X0.100000X0.225000X0*%
%ADD32R,2.790000X1.903000*%
%ADD33RoundRect,0.150000X0.512500X0.150000X-0.512500X0.150000X-0.512500X-0.150000X0.512500X-0.150000X0*%
%ADD34C,1.500000*%
%ADD35RoundRect,0.062500X0.350000X0.062500X-0.350000X0.062500X-0.350000X-0.062500X0.350000X-0.062500X0*%
%ADD36R,1.200000X2.000000*%
%ADD37RoundRect,0.062500X-0.325000X-0.062500X0.325000X-0.062500X0.325000X0.062500X-0.325000X0.062500X0*%
%ADD38RoundRect,0.062500X-0.062500X-0.325000X0.062500X-0.325000X0.062500X0.325000X-0.062500X0.325000X0*%
%ADD39R,1.750000X1.750000*%
%ADD40R,1.200000X0.700000*%
%ADD41R,0.800000X1.000000*%
%ADD42R,2.800000X1.000000*%
%ADD43R,1.200000X1.000000*%
%ADD44R,1.900000X1.300000*%
%ADD45RoundRect,0.112500X-0.187500X-0.112500X0.187500X-0.112500X0.187500X0.112500X-0.187500X0.112500X0*%
%ADD46R,2.500000X1.800000*%
%ADD47RoundRect,0.112500X-0.112500X-0.237500X0.112500X-0.237500X0.112500X0.237500X-0.112500X0.237500X0*%
%ADD48R,0.800000X3.200000*%
%ADD49R,1.550000X0.600000*%
%ADD50R,0.250000X0.700000*%
%ADD51R,1.190000X0.830000*%
%ADD52C,3.200000*%
%ADD53C,3.500000*%
%ADD54RoundRect,0.093750X0.106250X-0.093750X0.106250X0.093750X-0.106250X0.093750X-0.106250X-0.093750X0*%
%ADD55R,1.300000X1.100000*%
%ADD56R,1.060000X0.650000*%
%ADD57R,1.100000X1.300000*%
%ADD58R,0.240000X0.900000*%
%ADD59R,0.900000X0.240000*%
%ADD60R,1.000000X2.900000*%
%ADD61R,0.750000X0.300000*%
%ADD62R,1.300000X1.500000*%
%ADD63R,0.228600X1.358900*%
%ADD64R,1.358900X0.228600*%
%ADD65R,7.900000X7.900000*%
%ADD66RoundRect,0.200000X-0.250000X0.200000X-0.250000X-0.200000X0.250000X-0.200000X0.250000X0.200000X0*%
%ADD67RoundRect,0.100000X0.100000X-0.225000X0.100000X0.225000X-0.100000X0.225000X-0.100000X-0.225000X0*%
%ADD68RoundRect,0.076200X0.420000X-0.250000X0.420000X0.250000X-0.420000X0.250000X-0.420000X-0.250000X0*%
%ADD69RoundRect,0.076200X-0.250000X-0.420000X0.250000X-0.420000X0.250000X0.420000X-0.250000X0.420000X0*%
%ADD70RoundRect,0.076200X-0.420000X0.250000X-0.420000X-0.250000X0.420000X-0.250000X0.420000X0.250000X0*%
%ADD71RoundRect,0.076200X0.250000X0.420000X-0.250000X0.420000X-0.250000X-0.420000X0.250000X-0.420000X0*%
%ADD72RoundRect,0.076200X0.325000X-0.550000X0.325000X0.550000X-0.325000X0.550000X-0.325000X-0.550000X0*%
%ADD73RoundRect,0.076200X0.325000X-0.325000X0.325000X0.325000X-0.325000X0.325000X-0.325000X-0.325000X0*%
%ADD74RoundRect,0.076200X-0.325000X0.550000X-0.325000X-0.550000X0.325000X-0.550000X0.325000X0.550000X0*%
%ADD75RoundRect,0.076200X-0.550000X-0.325000X0.550000X-0.325000X0.550000X0.325000X-0.550000X0.325000X0*%
%ADD76RoundRect,0.076200X-0.325000X-0.325000X0.325000X-0.325000X0.325000X0.325000X-0.325000X0.325000X0*%
%ADD77RoundRect,0.076200X0.550000X0.325000X-0.550000X0.325000X-0.550000X-0.325000X0.550000X-0.325000X0*%
%ADD78RoundRect,0.076200X-0.325000X0.325000X-0.325000X-0.325000X0.325000X-0.325000X0.325000X0.325000X0*%
%ADD79RoundRect,0.076200X0.325000X0.325000X-0.325000X0.325000X-0.325000X-0.325000X0.325000X-0.325000X0*%
%ADD80RoundRect,0.062500X-0.337500X-0.062500X0.337500X-0.062500X0.337500X0.062500X-0.337500X0.062500X0*%
%ADD81RoundRect,0.062500X-0.062500X-0.337500X0.062500X-0.337500X0.062500X0.337500X-0.062500X0.337500X0*%
%ADD82RoundRect,0.050000X0.050000X-0.387500X0.050000X0.387500X-0.050000X0.387500X-0.050000X-0.387500X0*%
%ADD83RoundRect,0.050000X0.387500X-0.050000X0.387500X0.050000X-0.387500X0.050000X-0.387500X-0.050000X0*%
%ADD84R,2.600000X2.600000*%
%ADD85RoundRect,0.062500X-0.350000X-0.062500X0.350000X-0.062500X0.350000X0.062500X-0.350000X0.062500X0*%
G04 APERTURE END LIST*
D10*
%TO.C,J201*%
X177602400Y-57242200D03*
X171602400Y-57242200D03*
X174602400Y-61942200D03*
%TD*%
D11*
%TO.C,H3002*%
X262712400Y-135826600D03*
%TD*%
D12*
%TO.C,SW1501*%
X257173800Y-139816400D03*
X250673800Y-139816400D03*
X257173800Y-135316400D03*
X250673800Y-135316400D03*
%TD*%
D11*
%TO.C,H3003*%
X175412400Y-48526600D03*
%TD*%
%TO.C,H3001*%
X175412400Y-135826600D03*
%TD*%
D13*
%TO.C,J2601*%
X173747800Y-124215800D03*
X173747800Y-128615800D03*
%TD*%
D14*
%TO.C,J1502*%
X264292000Y-130149600D03*
D15*
X261752000Y-130149600D03*
%TD*%
D11*
%TO.C,H3004*%
X262712400Y-48526600D03*
%TD*%
D14*
%TO.C,J1501*%
X263722000Y-105628200D03*
D15*
X263722000Y-103088200D03*
X263722000Y-100548200D03*
X263722000Y-98008200D03*
X263722000Y-95468200D03*
X263722000Y-92928200D03*
X263722000Y-90388200D03*
D16*
X263722000Y-87848200D03*
%TD*%
D12*
%TO.C,SW2501*%
X189203400Y-139816400D03*
X182703400Y-139816400D03*
X189203400Y-135316400D03*
X182703400Y-135316400D03*
%TD*%
D17*
%TO.C,U401*%
X173065400Y-81345800D03*
X173065400Y-80695800D03*
X173065400Y-80045800D03*
X174965400Y-80045800D03*
X174965400Y-80695800D03*
X174965400Y-81345800D03*
%TD*%
D18*
%TO.C,R802*%
X206526700Y-85431500D03*
X207426700Y-85431500D03*
%TD*%
%TO.C,R1605*%
X205544000Y-104343200D03*
X206444000Y-104343200D03*
%TD*%
D19*
%TO.C,R2808*%
X262646200Y-82436300D03*
X262646200Y-81536300D03*
%TD*%
D20*
%TO.C,C1403*%
X184429400Y-69765000D03*
X184429400Y-68665000D03*
%TD*%
D21*
%TO.C,C2804*%
X260910200Y-82074600D03*
X259810200Y-82074600D03*
%TD*%
D18*
%TO.C,R2203*%
X191447000Y-107111800D03*
X192347000Y-107111800D03*
%TD*%
%TO.C,R2806*%
X260810200Y-81160700D03*
X259910200Y-81160700D03*
%TD*%
D19*
%TO.C,R2706*%
X262646200Y-65545300D03*
X262646200Y-64645300D03*
%TD*%
D21*
%TO.C,C901*%
X203616900Y-80191100D03*
X204716900Y-80191100D03*
%TD*%
%TO.C,C1710*%
X232368000Y-103428800D03*
X233468000Y-103428800D03*
%TD*%
D22*
%TO.C,C608*%
X176731800Y-108465400D03*
X179731800Y-108465400D03*
%TD*%
D23*
%TO.C,U2904*%
X200263800Y-69529000D03*
X200263800Y-70179000D03*
X200263800Y-70829000D03*
X198363800Y-70829000D03*
X198363800Y-70179000D03*
X198363800Y-69529000D03*
%TD*%
D18*
%TO.C,R2506*%
X186759000Y-117043200D03*
X185859000Y-117043200D03*
%TD*%
D24*
%TO.C,D2201*%
X197510400Y-104199600D03*
X197510400Y-105299600D03*
%TD*%
D21*
%TO.C,C2504*%
X192320000Y-117932200D03*
X191220000Y-117932200D03*
%TD*%
D25*
%TO.C,U901*%
X204566900Y-77686100D03*
X204166900Y-77686100D03*
X203766900Y-77686100D03*
X204566900Y-78086100D03*
X204166900Y-78086100D03*
X203766900Y-78086100D03*
X204566900Y-78486100D03*
X204166900Y-78486100D03*
X203766900Y-78486100D03*
X204566900Y-78886100D03*
X204166900Y-78886100D03*
X203766900Y-78886100D03*
%TD*%
D21*
%TO.C,C1736*%
X232368000Y-105308400D03*
X233468000Y-105308400D03*
%TD*%
D20*
%TO.C,C1756*%
X213639400Y-120074600D03*
X213639400Y-121174600D03*
%TD*%
D21*
%TO.C,C1002*%
X231807500Y-84347300D03*
X230707500Y-84347300D03*
%TD*%
D19*
%TO.C,R1206*%
X224510600Y-130029800D03*
X224510600Y-130929800D03*
%TD*%
D18*
%TO.C,R2805*%
X259910200Y-78349600D03*
X260810200Y-78349600D03*
%TD*%
D19*
%TO.C,R2101*%
X243992400Y-132784000D03*
X243992400Y-131884000D03*
%TD*%
D25*
%TO.C,U301*%
X172408800Y-67827600D03*
X172008800Y-67827600D03*
X171608800Y-67827600D03*
X172408800Y-68227600D03*
X172008800Y-68227600D03*
X171608800Y-68227600D03*
X172408800Y-68627600D03*
X172008800Y-68627600D03*
X171608800Y-68627600D03*
X172408800Y-69027600D03*
X172008800Y-69027600D03*
X171608800Y-69027600D03*
%TD*%
D19*
%TO.C,R403*%
X176657000Y-82252400D03*
X176657000Y-83152400D03*
%TD*%
D22*
%TO.C,C1413*%
X191387600Y-64490600D03*
X194387600Y-64490600D03*
%TD*%
D19*
%TO.C,R609*%
X178790600Y-100152400D03*
X178790600Y-99252400D03*
%TD*%
D20*
%TO.C,C1707*%
X217881200Y-94453800D03*
X217881200Y-93353800D03*
%TD*%
D19*
%TO.C,R2025*%
X197129400Y-87064000D03*
X197129400Y-86164000D03*
%TD*%
D21*
%TO.C,C2801*%
X260910200Y-73641800D03*
X259810200Y-73641800D03*
%TD*%
%TO.C,C1006*%
X228573900Y-84347300D03*
X229673900Y-84347300D03*
%TD*%
D26*
%TO.C,U2001*%
X197104000Y-88957600D03*
X198374000Y-88957600D03*
X199644000Y-88957600D03*
X200914000Y-88957600D03*
X200914000Y-96157600D03*
X199644000Y-96157600D03*
X198374000Y-96157600D03*
X197104000Y-96157600D03*
%TD*%
D27*
%TO.C,C404*%
X181686200Y-86536400D03*
X181686200Y-89536400D03*
%TD*%
D20*
%TO.C,C605*%
X179781200Y-100252400D03*
X179781200Y-99152400D03*
%TD*%
D21*
%TO.C,C1712*%
X232368000Y-107188000D03*
X233468000Y-107188000D03*
%TD*%
D28*
%TO.C,R406*%
X178231800Y-93307000D03*
X178231800Y-94907000D03*
%TD*%
D21*
%TO.C,C1407*%
X182210800Y-74218800D03*
X181110800Y-74218800D03*
%TD*%
D18*
%TO.C,R2008*%
X247185600Y-116560600D03*
X246285600Y-116560600D03*
%TD*%
%TO.C,R210*%
X178046800Y-72644000D03*
X177146800Y-72644000D03*
%TD*%
D19*
%TO.C,R1007*%
X227650700Y-81977900D03*
X227650700Y-81077900D03*
%TD*%
D21*
%TO.C,C2209*%
X191347000Y-105156000D03*
X192447000Y-105156000D03*
%TD*%
D19*
%TO.C,R1008*%
X227650700Y-80276100D03*
X227650700Y-79376100D03*
%TD*%
D20*
%TO.C,C2201*%
X194995800Y-108517600D03*
X194995800Y-109617600D03*
%TD*%
D21*
%TO.C,C2001*%
X250765400Y-115951000D03*
X249665400Y-115951000D03*
%TD*%
D19*
%TO.C,R2702*%
X262646200Y-54348800D03*
X262646200Y-53448800D03*
%TD*%
D20*
%TO.C,C2203*%
X195478400Y-102581800D03*
X195478400Y-101481800D03*
%TD*%
D22*
%TO.C,C1410*%
X191387600Y-66624200D03*
X194387600Y-66624200D03*
%TD*%
D18*
%TO.C,R1403*%
X182085400Y-77216000D03*
X181185400Y-77216000D03*
%TD*%
D20*
%TO.C,C2006*%
X245389400Y-114232600D03*
X245389400Y-115332600D03*
%TD*%
D19*
%TO.C,L1701*%
X211302600Y-92931400D03*
X211302600Y-92031400D03*
%TD*%
D18*
%TO.C,R1408*%
X181210800Y-76174600D03*
X182110800Y-76174600D03*
%TD*%
D21*
%TO.C,C805*%
X209552400Y-80186000D03*
X208452400Y-80186000D03*
%TD*%
D19*
%TO.C,R2028*%
X198374000Y-87064000D03*
X198374000Y-86164000D03*
%TD*%
D21*
%TO.C,C2705*%
X260910200Y-65183600D03*
X259810200Y-65183600D03*
%TD*%
D19*
%TO.C,R2507*%
X184734200Y-111422600D03*
X184734200Y-110522600D03*
%TD*%
D29*
%TO.C,J2102*%
X244988400Y-134367200D03*
X244488400Y-134367200D03*
X243988400Y-134367200D03*
X243488400Y-134367200D03*
X242988400Y-134367200D03*
X242488400Y-134367200D03*
D30*
X246888400Y-137617200D03*
X240588400Y-137617200D03*
%TD*%
D22*
%TO.C,C407*%
X176731800Y-89357200D03*
X179731800Y-89357200D03*
%TD*%
D31*
%TO.C,U1601*%
X204136900Y-113426200D03*
X204786900Y-113426200D03*
X205436900Y-113426200D03*
X205436900Y-115326200D03*
X204786900Y-115326200D03*
X204136900Y-115326200D03*
%TD*%
D20*
%TO.C,C2508*%
X183794400Y-113808600D03*
X183794400Y-112708600D03*
%TD*%
D19*
%TO.C,R807*%
X210475600Y-84257200D03*
X210475600Y-85157200D03*
%TD*%
D18*
%TO.C,R1201*%
X231655200Y-136753600D03*
X232555200Y-136753600D03*
%TD*%
D19*
%TO.C,R2803*%
X262646200Y-74003500D03*
X262646200Y-73103500D03*
%TD*%
D18*
%TO.C,R203*%
X174541600Y-64998600D03*
X173641600Y-64998600D03*
%TD*%
D21*
%TO.C,C301*%
X171458800Y-70332600D03*
X172558800Y-70332600D03*
%TD*%
D22*
%TO.C,C2607*%
X181481600Y-121817000D03*
X184481600Y-121817000D03*
%TD*%
D21*
%TO.C,C2101*%
X202715400Y-133171000D03*
X201615400Y-133171000D03*
%TD*%
D18*
%TO.C,R201*%
X177894400Y-64998600D03*
X176994400Y-64998600D03*
%TD*%
D19*
%TO.C,R1802*%
X212648800Y-121074600D03*
X212648800Y-120174600D03*
%TD*%
D29*
%TO.C,J2101*%
X223111600Y-134797800D03*
X222611600Y-134797800D03*
X222111600Y-134797800D03*
X221611600Y-134797800D03*
X221111600Y-134797800D03*
X220611600Y-134797800D03*
X220111600Y-134797800D03*
X219611600Y-134797800D03*
X219111600Y-134797800D03*
X218611600Y-134797800D03*
X218111600Y-134797800D03*
X217611600Y-134797800D03*
X217111600Y-134797800D03*
X216611600Y-134797800D03*
X216111600Y-134797800D03*
X215611600Y-134797800D03*
X215111600Y-134797800D03*
X214611600Y-134797800D03*
X214111600Y-134797800D03*
X213611600Y-134797800D03*
X213111600Y-134797800D03*
X212611600Y-134797800D03*
X212111600Y-134797800D03*
X211611600Y-134797800D03*
X211111600Y-134797800D03*
X210611600Y-134797800D03*
X210111600Y-134797800D03*
X209611600Y-134797800D03*
X209111600Y-134797800D03*
X208611600Y-134797800D03*
X208111600Y-134797800D03*
X207611600Y-134797800D03*
X207111600Y-134797800D03*
X206611600Y-134797800D03*
X206111600Y-134797800D03*
X205611600Y-134797800D03*
X205111600Y-134797800D03*
X204611600Y-134797800D03*
X204111600Y-134797800D03*
X203611600Y-134797800D03*
X203111600Y-134797800D03*
X202611600Y-134797800D03*
X202111600Y-134797800D03*
X201611600Y-134797800D03*
X201111600Y-134797800D03*
X200611600Y-134797800D03*
X200111600Y-134797800D03*
X199611600Y-134797800D03*
X199111600Y-134797800D03*
X198611600Y-134797800D03*
X198111600Y-134797800D03*
X197611600Y-134797800D03*
X197111600Y-134797800D03*
X196611600Y-134797800D03*
D30*
X225011600Y-138047800D03*
X194711600Y-138047800D03*
%TD*%
D32*
%TO.C,L601*%
X173024800Y-101898700D03*
X173024800Y-106751700D03*
%TD*%
D33*
%TO.C,U2502*%
X184525500Y-115153400D03*
X184525500Y-116103400D03*
X184525500Y-117053400D03*
X182250500Y-117053400D03*
X182250500Y-116103400D03*
X182250500Y-115153400D03*
%TD*%
D21*
%TO.C,C2701*%
X260910200Y-53949600D03*
X259810200Y-53949600D03*
%TD*%
D34*
%TO.C,TP1001*%
X226558500Y-83712300D03*
%TD*%
D35*
%TO.C,U801*%
X209159200Y-82340700D03*
X209159200Y-82840700D03*
X209159200Y-83340700D03*
X209159200Y-83840700D03*
X209159200Y-84340700D03*
X206734200Y-84340700D03*
X206734200Y-83840700D03*
X206734200Y-83340700D03*
X206734200Y-82840700D03*
X206734200Y-82340700D03*
D36*
X207946700Y-83340700D03*
%TD*%
D18*
%TO.C,R1502*%
X237014600Y-108077000D03*
X237914600Y-108077000D03*
%TD*%
%TO.C,R1601*%
X216059600Y-122326400D03*
X216959600Y-122326400D03*
%TD*%
D19*
%TO.C,R603*%
X176657000Y-99252400D03*
X176657000Y-100152400D03*
%TD*%
D37*
%TO.C,U402*%
X176693100Y-86830600D03*
X176693100Y-86330600D03*
X176693100Y-85830600D03*
X176693100Y-85330600D03*
D38*
X177405600Y-84618100D03*
X177905600Y-84618100D03*
X178405600Y-84618100D03*
X178905600Y-84618100D03*
D37*
X179618100Y-85330600D03*
X179618100Y-85830600D03*
X179618100Y-86330600D03*
X179618100Y-86830600D03*
D38*
X178905600Y-87543100D03*
X178405600Y-87543100D03*
X177905600Y-87543100D03*
X177405600Y-87543100D03*
D39*
X178155600Y-86080600D03*
%TD*%
D18*
%TO.C,R2010*%
X247185600Y-115468400D03*
X246285600Y-115468400D03*
%TD*%
D40*
%TO.C,J2001*%
X252612600Y-119176800D03*
X252612600Y-118076800D03*
X252612600Y-116976800D03*
X252612600Y-115876800D03*
X252612600Y-114776800D03*
X252612600Y-113676800D03*
X252612600Y-112576800D03*
X252612600Y-111476800D03*
X252612600Y-110526800D03*
D41*
X263112600Y-109576800D03*
D42*
X267262600Y-109576800D03*
D43*
X256912600Y-109576800D03*
X252612600Y-120726800D03*
D44*
X267712600Y-123076800D03*
%TD*%
D19*
%TO.C,R2807*%
X262646200Y-79629000D03*
X262646200Y-78729000D03*
%TD*%
%TO.C,R1405*%
X187426600Y-68765000D03*
X187426600Y-69665000D03*
%TD*%
D20*
%TO.C,C2302*%
X245821200Y-80001200D03*
X245821200Y-78901200D03*
%TD*%
D21*
%TO.C,C1734*%
X206544000Y-103352600D03*
X205444000Y-103352600D03*
%TD*%
D45*
%TO.C,D2301*%
X247940400Y-79451200D03*
X250040400Y-79451200D03*
%TD*%
D20*
%TO.C,C2301*%
X246761000Y-80001200D03*
X246761000Y-78901200D03*
%TD*%
%TO.C,C405*%
X179781200Y-83252400D03*
X179781200Y-82152400D03*
%TD*%
D19*
%TO.C,R1604*%
X204292200Y-105987000D03*
X204292200Y-105087000D03*
%TD*%
D20*
%TO.C,C2507*%
X184734200Y-113808600D03*
X184734200Y-112708600D03*
%TD*%
D27*
%TO.C,C602*%
X183794400Y-103536400D03*
X183794400Y-106536400D03*
%TD*%
D18*
%TO.C,R801*%
X208253900Y-85431500D03*
X209153900Y-85431500D03*
%TD*%
D20*
%TO.C,C1603*%
X205584178Y-109617600D03*
X205584178Y-108517600D03*
%TD*%
D46*
%TO.C,D201*%
X176548800Y-53619400D03*
X172548800Y-53619400D03*
%TD*%
D21*
%TO.C,C1005*%
X228573900Y-83407500D03*
X229673900Y-83407500D03*
%TD*%
D20*
%TO.C,C1406*%
X185369200Y-69765000D03*
X185369200Y-68665000D03*
%TD*%
D47*
%TO.C,Q1501*%
X236814600Y-109388400D03*
X238114600Y-109388400D03*
X237464600Y-111388400D03*
%TD*%
D22*
%TO.C,C1765*%
X230478200Y-117805200D03*
X233478200Y-117805200D03*
%TD*%
D21*
%TO.C,C2208*%
X191347000Y-106095800D03*
X192447000Y-106095800D03*
%TD*%
D18*
%TO.C,R2009*%
X247185600Y-117652800D03*
X246285600Y-117652800D03*
%TD*%
D19*
%TO.C,R2704*%
X262646200Y-59956100D03*
X262646200Y-59056100D03*
%TD*%
%TO.C,R806*%
X210475600Y-82555400D03*
X210475600Y-83455400D03*
%TD*%
D21*
%TO.C,C1747*%
X232368000Y-101549200D03*
X233468000Y-101549200D03*
%TD*%
%TO.C,C2707*%
X260910200Y-70822400D03*
X259810200Y-70822400D03*
%TD*%
D20*
%TO.C,C2004*%
X248208800Y-110498800D03*
X248208800Y-111598800D03*
%TD*%
D21*
%TO.C,C2702*%
X260910200Y-56750800D03*
X259810200Y-56750800D03*
%TD*%
D18*
%TO.C,R205*%
X178046800Y-71577200D03*
X177146800Y-71577200D03*
%TD*%
D21*
%TO.C,C1724*%
X232368000Y-113665000D03*
X233468000Y-113665000D03*
%TD*%
D20*
%TO.C,C2207*%
X194538600Y-102581800D03*
X194538600Y-101481800D03*
%TD*%
D18*
%TO.C,R1701*%
X236085800Y-101549200D03*
X235185800Y-101549200D03*
%TD*%
D17*
%TO.C,U2501*%
X187797400Y-123230400D03*
X187797400Y-122580400D03*
X187797400Y-121930400D03*
X189697400Y-121930400D03*
X189697400Y-122580400D03*
X189697400Y-123230400D03*
%TD*%
D22*
%TO.C,C2102*%
X198680200Y-132715000D03*
X195680200Y-132715000D03*
%TD*%
D32*
%TO.C,L1401*%
X192887600Y-73722700D03*
X192887600Y-78575700D03*
%TD*%
D21*
%TO.C,C2802*%
X260910200Y-76447900D03*
X259810200Y-76447900D03*
%TD*%
D18*
%TO.C,R1501*%
X237914600Y-107010200D03*
X237014600Y-107010200D03*
%TD*%
%TO.C,R2801*%
X260810200Y-72741900D03*
X259910200Y-72741900D03*
%TD*%
D19*
%TO.C,R2705*%
X262646200Y-62775500D03*
X262646200Y-61875500D03*
%TD*%
D37*
%TO.C,U602*%
X176693100Y-103830600D03*
X176693100Y-103330600D03*
X176693100Y-102830600D03*
X176693100Y-102330600D03*
D38*
X177405600Y-101618100D03*
X177905600Y-101618100D03*
X178405600Y-101618100D03*
X178905600Y-101618100D03*
D37*
X179618100Y-102330600D03*
X179618100Y-102830600D03*
X179618100Y-103330600D03*
X179618100Y-103830600D03*
D38*
X178905600Y-104543100D03*
X178405600Y-104543100D03*
X177905600Y-104543100D03*
X177405600Y-104543100D03*
D39*
X178155600Y-103080600D03*
%TD*%
D48*
%TO.C,R1005*%
X234775300Y-81807300D03*
X233175300Y-81807300D03*
%TD*%
D19*
%TO.C,L2501*%
X193751200Y-116999600D03*
X193751200Y-117899600D03*
%TD*%
D18*
%TO.C,R2907*%
X205843200Y-68122800D03*
X204943200Y-68122800D03*
%TD*%
D49*
%TO.C,U2301*%
X249715000Y-81457800D03*
X249715000Y-82727800D03*
X249715000Y-83997800D03*
X249715000Y-85267800D03*
X244315000Y-85267800D03*
X244315000Y-83997800D03*
X244315000Y-82727800D03*
X244315000Y-81457800D03*
%TD*%
D18*
%TO.C,R1702*%
X236085800Y-100482400D03*
X235185800Y-100482400D03*
%TD*%
D20*
%TO.C,C1745*%
X222427800Y-120074600D03*
X222427800Y-121174600D03*
%TD*%
D18*
%TO.C,R2030*%
X247185600Y-114350800D03*
X246285600Y-114350800D03*
%TD*%
D21*
%TO.C,C1763*%
X211286000Y-93903800D03*
X212386000Y-93903800D03*
%TD*%
D19*
%TO.C,R2027*%
X200914000Y-98102000D03*
X200914000Y-99002000D03*
%TD*%
%TO.C,R2707*%
X262646200Y-68364700D03*
X262646200Y-67464700D03*
%TD*%
D20*
%TO.C,C1737*%
X217170000Y-120074600D03*
X217170000Y-121174600D03*
%TD*%
D19*
%TO.C,R1204*%
X225577400Y-130029800D03*
X225577400Y-130929800D03*
%TD*%
%TO.C,R2708*%
X262646200Y-71184100D03*
X262646200Y-70284100D03*
%TD*%
D34*
%TO.C,TP401*%
X174980600Y-95123000D03*
%TD*%
D27*
%TO.C,C604*%
X181686200Y-103536400D03*
X181686200Y-106536400D03*
%TD*%
D18*
%TO.C,R2011*%
X249765400Y-113766600D03*
X250665400Y-113766600D03*
%TD*%
D21*
%TO.C,C1733*%
X232368000Y-115646200D03*
X233468000Y-115646200D03*
%TD*%
D18*
%TO.C,R2204*%
X191447000Y-104165400D03*
X192347000Y-104165400D03*
%TD*%
D21*
%TO.C,C2704*%
X260910200Y-62376300D03*
X259810200Y-62376300D03*
%TD*%
D18*
%TO.C,R1406*%
X182110800Y-73202800D03*
X181210800Y-73202800D03*
%TD*%
D23*
%TO.C,U2903*%
X206343200Y-69516900D03*
X206343200Y-70166900D03*
X206343200Y-70816900D03*
X204443200Y-70816900D03*
X204443200Y-70166900D03*
X204443200Y-69516900D03*
%TD*%
D18*
%TO.C,R1411*%
X182110800Y-72136000D03*
X181210800Y-72136000D03*
%TD*%
D20*
%TO.C,C1757*%
X216230200Y-120074600D03*
X216230200Y-121174600D03*
%TD*%
D50*
%TO.C,U2201*%
X193642200Y-104187800D03*
X194092200Y-104187800D03*
X194542200Y-104187800D03*
X194992200Y-104187800D03*
X195442200Y-104187800D03*
X195892200Y-104187800D03*
X195892200Y-106987800D03*
X195442200Y-106987800D03*
X194992200Y-106987800D03*
X194542200Y-106987800D03*
X194092200Y-106987800D03*
X193642200Y-106987800D03*
D51*
X195362200Y-105172800D03*
X194172200Y-105172800D03*
X195362200Y-106002800D03*
X194172200Y-106002800D03*
%TD*%
D19*
%TO.C,R1603*%
X204292200Y-104336000D03*
X204292200Y-103436000D03*
%TD*%
D18*
%TO.C,R202*%
X176218000Y-64998600D03*
X175318000Y-64998600D03*
%TD*%
D20*
%TO.C,C1720*%
X225018600Y-94453800D03*
X225018600Y-93353800D03*
%TD*%
D18*
%TO.C,R2701*%
X259910200Y-54947400D03*
X260810200Y-54947400D03*
%TD*%
D20*
%TO.C,C406*%
X180924200Y-84954200D03*
X180924200Y-83854200D03*
%TD*%
D21*
%TO.C,C1003*%
X231807500Y-83407500D03*
X230707500Y-83407500D03*
%TD*%
D18*
%TO.C,L1602*%
X206542178Y-110871000D03*
X205642178Y-110871000D03*
%TD*%
D21*
%TO.C,C2505*%
X192320000Y-116992400D03*
X191220000Y-116992400D03*
%TD*%
D23*
%TO.C,U2202*%
X192669200Y-100657300D03*
X192669200Y-101307300D03*
X192669200Y-101957300D03*
X190769200Y-101957300D03*
X190769200Y-101307300D03*
X190769200Y-100657300D03*
%TD*%
D21*
%TO.C,C1725*%
X232368000Y-99644200D03*
X233468000Y-99644200D03*
%TD*%
D18*
%TO.C,R2012*%
X249765400Y-110464600D03*
X250665400Y-110464600D03*
%TD*%
D19*
%TO.C,R2020*%
X199644000Y-86164000D03*
X199644000Y-87064000D03*
%TD*%
%TO.C,R408*%
X177723800Y-82252400D03*
X177723800Y-83152400D03*
%TD*%
D52*
%TO.C,J1401*%
X191618400Y-53035200D03*
X247228400Y-53035200D03*
D10*
X182973400Y-53035200D03*
D53*
X254973400Y-53035200D03*
%TD*%
D20*
%TO.C,C2007*%
X248208800Y-113732400D03*
X248208800Y-112632400D03*
%TD*%
%TO.C,C1709*%
X216941400Y-94453800D03*
X216941400Y-93353800D03*
%TD*%
D48*
%TO.C,R804*%
X203351000Y-82726000D03*
X204951000Y-82726000D03*
%TD*%
D19*
%TO.C,R2703*%
X262646200Y-57150000D03*
X262646200Y-56250000D03*
%TD*%
D20*
%TO.C,C1102*%
X232308400Y-86721000D03*
X232308400Y-85621000D03*
%TD*%
D21*
%TO.C,C2703*%
X260910200Y-59556900D03*
X259810200Y-59556900D03*
%TD*%
D54*
%TO.C,U2002*%
X246903000Y-113003100D03*
X246253000Y-113003100D03*
X245603000Y-113003100D03*
X245603000Y-111228100D03*
X246253000Y-111228100D03*
X246903000Y-111228100D03*
D27*
X246253000Y-112115600D03*
%TD*%
D21*
%TO.C,C1411*%
X182210800Y-75158600D03*
X181110800Y-75158600D03*
%TD*%
D55*
%TO.C,X2501*%
X193582000Y-121017800D03*
X191482000Y-121017800D03*
X191482000Y-119367800D03*
X193582000Y-119367800D03*
%TD*%
D14*
%TO.C,J2002*%
X191211200Y-85394800D03*
D15*
X191211200Y-87934800D03*
X191211200Y-90474800D03*
X191211200Y-93014800D03*
X191211200Y-95554800D03*
%TD*%
D21*
%TO.C,C1719*%
X236185800Y-102539800D03*
X235085800Y-102539800D03*
%TD*%
D18*
%TO.C,R1606*%
X205544000Y-105410000D03*
X206444000Y-105410000D03*
%TD*%
%TO.C,R2007*%
X247185600Y-118745000D03*
X246285600Y-118745000D03*
%TD*%
D21*
%TO.C,C1501*%
X236914600Y-113639600D03*
X238014600Y-113639600D03*
%TD*%
D19*
%TO.C,R2018*%
X198374000Y-99002000D03*
X198374000Y-98102000D03*
%TD*%
D18*
%TO.C,R2005*%
X250665400Y-112674400D03*
X249765400Y-112674400D03*
%TD*%
D21*
%TO.C,C1708*%
X206544000Y-107365800D03*
X205444000Y-107365800D03*
%TD*%
D19*
%TO.C,R1801*%
X211582000Y-121074600D03*
X211582000Y-120174600D03*
%TD*%
%TO.C,R2026*%
X199669400Y-98102000D03*
X199669400Y-99002000D03*
%TD*%
D20*
%TO.C,C902*%
X205817900Y-77736100D03*
X205817900Y-78836100D03*
%TD*%
D22*
%TO.C,C1412*%
X191387600Y-70840600D03*
X194387600Y-70840600D03*
%TD*%
D21*
%TO.C,C1721*%
X206544000Y-106426000D03*
X205444000Y-106426000D03*
%TD*%
D18*
%TO.C,R2002*%
X250665400Y-118160800D03*
X249765400Y-118160800D03*
%TD*%
D17*
%TO.C,U601*%
X173243200Y-98359100D03*
X173243200Y-97709100D03*
X173243200Y-97059100D03*
X175143200Y-97059100D03*
X175143200Y-97709100D03*
X175143200Y-98359100D03*
%TD*%
D18*
%TO.C,R1504*%
X237914600Y-114655600D03*
X237014600Y-114655600D03*
%TD*%
%TO.C,R2006*%
X250665400Y-111556800D03*
X249765400Y-111556800D03*
%TD*%
D56*
%TO.C,U2902*%
X198213800Y-66710600D03*
X198213800Y-65760600D03*
X198213800Y-64810600D03*
X200413800Y-64810600D03*
X200413800Y-65760600D03*
X200413800Y-66710600D03*
%TD*%
D22*
%TO.C,C1766*%
X210336000Y-90347800D03*
X213336000Y-90347800D03*
%TD*%
D18*
%TO.C,R1401*%
X182110800Y-71069200D03*
X181210800Y-71069200D03*
%TD*%
D21*
%TO.C,C2506*%
X187689400Y-117043200D03*
X188789400Y-117043200D03*
%TD*%
D18*
%TO.C,R2029*%
X246271200Y-110134400D03*
X245371200Y-110134400D03*
%TD*%
D21*
%TO.C,C1746*%
X206544000Y-102412800D03*
X205444000Y-102412800D03*
%TD*%
D19*
%TO.C,R608*%
X177723800Y-99252400D03*
X177723800Y-100152400D03*
%TD*%
D20*
%TO.C,C2304*%
X243941600Y-80001200D03*
X243941600Y-78901200D03*
%TD*%
%TO.C,C2005*%
X196189600Y-98002000D03*
X196189600Y-99102000D03*
%TD*%
D18*
%TO.C,R1002*%
X231599600Y-79101800D03*
X230699600Y-79101800D03*
%TD*%
D28*
%TO.C,R1413*%
X188290200Y-66509800D03*
X188290200Y-64909800D03*
%TD*%
D20*
%TO.C,C302*%
X173659800Y-67877600D03*
X173659800Y-68977600D03*
%TD*%
D57*
%TO.C,X1602*%
X202427800Y-110928800D03*
X202427800Y-108628800D03*
X204327800Y-108628800D03*
X204327800Y-110928800D03*
%TD*%
D19*
%TO.C,R401*%
X171831000Y-79128200D03*
X171831000Y-80028200D03*
%TD*%
%TO.C,R2804*%
X262646200Y-76809600D03*
X262646200Y-75909600D03*
%TD*%
D22*
%TO.C,C1402*%
X185977400Y-80340200D03*
X188977400Y-80340200D03*
%TD*%
D21*
%TO.C,C1758*%
X232368000Y-102489000D03*
X233468000Y-102489000D03*
%TD*%
D56*
%TO.C,U2901*%
X204293200Y-66710600D03*
X204293200Y-65760600D03*
X204293200Y-64810600D03*
X206493200Y-64810600D03*
X206493200Y-65760600D03*
X206493200Y-66710600D03*
%TD*%
D19*
%TO.C,R2501*%
X189890400Y-117899600D03*
X189890400Y-116999600D03*
%TD*%
D20*
%TO.C,C2303*%
X244881400Y-80001200D03*
X244881400Y-78901200D03*
%TD*%
D21*
%TO.C,C1748*%
X232368000Y-106248200D03*
X233468000Y-106248200D03*
%TD*%
%TO.C,C804*%
X209552400Y-81125800D03*
X208452400Y-81125800D03*
%TD*%
D58*
%TO.C,U2203*%
X187760800Y-105220800D03*
D59*
X186710800Y-104670800D03*
X186710800Y-104170800D03*
X186710800Y-103670800D03*
X186710800Y-103170800D03*
X186710800Y-102670800D03*
X186710800Y-102170800D03*
X186710800Y-101670800D03*
X186710800Y-101170800D03*
D58*
X187760800Y-100620800D03*
X188260800Y-100620800D03*
D59*
X189310800Y-101170800D03*
X189310800Y-101670800D03*
X189310800Y-102170800D03*
X189310800Y-102670800D03*
X189310800Y-103170800D03*
X189310800Y-103670800D03*
X189310800Y-104170800D03*
X189310800Y-104670800D03*
D58*
X188260800Y-105220800D03*
D60*
X188010800Y-102920800D03*
%TD*%
D22*
%TO.C,C1404*%
X185977400Y-78079600D03*
X188977400Y-78079600D03*
%TD*%
D21*
%TO.C,C1735*%
X232368000Y-100609400D03*
X233468000Y-100609400D03*
%TD*%
D20*
%TO.C,C606*%
X180924200Y-101954200D03*
X180924200Y-100854200D03*
%TD*%
D61*
%TO.C,U302*%
X178894400Y-67042600D03*
X178894400Y-67542600D03*
X178894400Y-68042600D03*
X178894400Y-68542600D03*
X175994400Y-68542600D03*
X175994400Y-68042600D03*
X175994400Y-67542600D03*
X175994400Y-67042600D03*
D62*
X177444400Y-67792600D03*
%TD*%
D19*
%TO.C,R2502*%
X189890400Y-119361800D03*
X189890400Y-120261800D03*
%TD*%
%TO.C,R2102*%
X242493800Y-132784000D03*
X242493800Y-131884000D03*
%TD*%
D21*
%TO.C,C801*%
X206318800Y-80186000D03*
X207418800Y-80186000D03*
%TD*%
D22*
%TO.C,C607*%
X176731800Y-106357200D03*
X179731800Y-106357200D03*
%TD*%
D19*
%TO.C,L1702*%
X212369400Y-92931400D03*
X212369400Y-92031400D03*
%TD*%
D21*
%TO.C,C1760*%
X232368000Y-110007400D03*
X233468000Y-110007400D03*
%TD*%
%TO.C,C1726*%
X236185800Y-99491800D03*
X235085800Y-99491800D03*
%TD*%
%TO.C,C1711*%
X232368000Y-109067600D03*
X233468000Y-109067600D03*
%TD*%
%TO.C,C1738*%
X232368000Y-98704400D03*
X233468000Y-98704400D03*
%TD*%
D28*
%TO.C,R606*%
X178231800Y-110307000D03*
X178231800Y-111907000D03*
%TD*%
D63*
%TO.C,U1701*%
X210424202Y-96564450D03*
X210824201Y-96564450D03*
X211224200Y-96564450D03*
X211624200Y-96564450D03*
X212024201Y-96564450D03*
X212424201Y-96564450D03*
X212824200Y-96564450D03*
X213224201Y-96564450D03*
X213624201Y-96564450D03*
X214024200Y-96564450D03*
X214424199Y-96564450D03*
X214824201Y-96564450D03*
X215224200Y-96564450D03*
X215624199Y-96564450D03*
X216024201Y-96564450D03*
X216424200Y-96564450D03*
X216824199Y-96564450D03*
X217224201Y-96564450D03*
X217624200Y-96564450D03*
X218024199Y-96564450D03*
X218424199Y-96564450D03*
X218824200Y-96564450D03*
X219224200Y-96564450D03*
X219624199Y-96564450D03*
X220024201Y-96564450D03*
X220424200Y-96564450D03*
X220824199Y-96564450D03*
X221224198Y-96564450D03*
X221624200Y-96564450D03*
X222024199Y-96564450D03*
X222424198Y-96564450D03*
X222824200Y-96564450D03*
X223224199Y-96564450D03*
X223624198Y-96564450D03*
X224024200Y-96564450D03*
X224424199Y-96564450D03*
X224824199Y-96564450D03*
X225224198Y-96564450D03*
X225624199Y-96564450D03*
X226024199Y-96564450D03*
X226424198Y-96564450D03*
X226824200Y-96564450D03*
X227224199Y-96564450D03*
X227624198Y-96564450D03*
D64*
X229698550Y-98638802D03*
X229698550Y-99038801D03*
X229698550Y-99438800D03*
X229698550Y-99838800D03*
X229698550Y-100238801D03*
X229698550Y-100638801D03*
X229698550Y-101038800D03*
X229698550Y-101438801D03*
X229698550Y-101838801D03*
X229698550Y-102238800D03*
X229698550Y-102638802D03*
X229698550Y-103038801D03*
X229698550Y-103438800D03*
X229698550Y-103838799D03*
X229698550Y-104238801D03*
X229698550Y-104638800D03*
X229698550Y-105038799D03*
X229698550Y-105438801D03*
X229698550Y-105838800D03*
X229698550Y-106238799D03*
X229698550Y-106638801D03*
X229698550Y-107038800D03*
X229698550Y-107438800D03*
X229698550Y-107838799D03*
X229698550Y-108238801D03*
X229698550Y-108638800D03*
X229698550Y-109038799D03*
X229698550Y-109438801D03*
X229698550Y-109838800D03*
X229698550Y-110238799D03*
X229698550Y-110638798D03*
X229698550Y-111038800D03*
X229698550Y-111438799D03*
X229698550Y-111838798D03*
X229698550Y-112238800D03*
X229698550Y-112638799D03*
X229698550Y-113038799D03*
X229698550Y-113438800D03*
X229698550Y-113838799D03*
X229698550Y-114238799D03*
X229698550Y-114638798D03*
X229698550Y-115038800D03*
X229698550Y-115438799D03*
X229698550Y-115838798D03*
D63*
X227624198Y-117913150D03*
X227224199Y-117913150D03*
X226824200Y-117913150D03*
X226424200Y-117913150D03*
X226024199Y-117913150D03*
X225624199Y-117913150D03*
X225224200Y-117913150D03*
X224824199Y-117913150D03*
X224424199Y-117913150D03*
X224024200Y-117913150D03*
X223624198Y-117913150D03*
X223224199Y-117913150D03*
X222824200Y-117913150D03*
X222424201Y-117913150D03*
X222024199Y-117913150D03*
X221624200Y-117913150D03*
X221224201Y-117913150D03*
X220824199Y-117913150D03*
X220424200Y-117913150D03*
X220024201Y-117913150D03*
X219624199Y-117913150D03*
X219224200Y-117913150D03*
X218824200Y-117913150D03*
X218424201Y-117913150D03*
X218024199Y-117913150D03*
X217624200Y-117913150D03*
X217224201Y-117913150D03*
X216824199Y-117913150D03*
X216424200Y-117913150D03*
X216024201Y-117913150D03*
X215624202Y-117913150D03*
X215224200Y-117913150D03*
X214824201Y-117913150D03*
X214424202Y-117913150D03*
X214024200Y-117913150D03*
X213624201Y-117913150D03*
X213224201Y-117913150D03*
X212824200Y-117913150D03*
X212424201Y-117913150D03*
X212024201Y-117913150D03*
X211624202Y-117913150D03*
X211224200Y-117913150D03*
X210824201Y-117913150D03*
X210424202Y-117913150D03*
D64*
X208349850Y-115838798D03*
X208349850Y-115438799D03*
X208349850Y-115038800D03*
X208349850Y-114638800D03*
X208349850Y-114238799D03*
X208349850Y-113838799D03*
X208349850Y-113438800D03*
X208349850Y-113038799D03*
X208349850Y-112638799D03*
X208349850Y-112238800D03*
X208349850Y-111838798D03*
X208349850Y-111438799D03*
X208349850Y-111038800D03*
X208349850Y-110638801D03*
X208349850Y-110238799D03*
X208349850Y-109838800D03*
X208349850Y-109438801D03*
X208349850Y-109038799D03*
X208349850Y-108638800D03*
X208349850Y-108238801D03*
X208349850Y-107838799D03*
X208349850Y-107438800D03*
X208349850Y-107038800D03*
X208349850Y-106638801D03*
X208349850Y-106238799D03*
X208349850Y-105838800D03*
X208349850Y-105438801D03*
X208349850Y-105038799D03*
X208349850Y-104638800D03*
X208349850Y-104238801D03*
X208349850Y-103838802D03*
X208349850Y-103438800D03*
X208349850Y-103038801D03*
X208349850Y-102638802D03*
X208349850Y-102238800D03*
X208349850Y-101838801D03*
X208349850Y-101438801D03*
X208349850Y-101038800D03*
X208349850Y-100638801D03*
X208349850Y-100238801D03*
X208349850Y-99838802D03*
X208349850Y-99438800D03*
X208349850Y-99038801D03*
X208349850Y-98638802D03*
D65*
X219024200Y-107238800D03*
%TD*%
D18*
%TO.C,R2802*%
X260810200Y-75526400D03*
X259910200Y-75526400D03*
%TD*%
D21*
%TO.C,C303*%
X176894400Y-66012900D03*
X177994400Y-66012900D03*
%TD*%
D28*
%TO.C,R1412*%
X184226200Y-66509800D03*
X184226200Y-64909800D03*
%TD*%
D14*
%TO.C,TP201*%
X170764200Y-133559400D03*
%TD*%
D21*
%TO.C,C1303*%
X232652400Y-135710500D03*
X231552400Y-135710500D03*
%TD*%
D20*
%TO.C,C1722*%
X225958400Y-94453800D03*
X225958400Y-93353800D03*
%TD*%
D34*
%TO.C,TP801*%
X211567800Y-80821000D03*
%TD*%
D21*
%TO.C,C1759*%
X232368000Y-108127800D03*
X233468000Y-108127800D03*
%TD*%
D31*
%TO.C,U2503*%
X186954400Y-118557000D03*
X187604400Y-118557000D03*
X188254400Y-118557000D03*
X188254400Y-120457000D03*
X187604400Y-120457000D03*
X186954400Y-120457000D03*
%TD*%
D19*
%TO.C,R1409*%
X188493400Y-68765000D03*
X188493400Y-69665000D03*
%TD*%
D27*
%TO.C,C402*%
X183794400Y-86536400D03*
X183794400Y-89536400D03*
%TD*%
D21*
%TO.C,C1762*%
X211286000Y-94843600D03*
X212386000Y-94843600D03*
%TD*%
D66*
%TO.C,X1601*%
X201132000Y-101992600D03*
X202982000Y-101992600D03*
X202982000Y-103442600D03*
X201132000Y-103442600D03*
%TD*%
D21*
%TO.C,C1749*%
X232368000Y-111836200D03*
X233468000Y-111836200D03*
%TD*%
D22*
%TO.C,C1409*%
X191387600Y-68732400D03*
X194387600Y-68732400D03*
%TD*%
D21*
%TO.C,C2706*%
X260910200Y-68003000D03*
X259810200Y-68003000D03*
%TD*%
D18*
%TO.C,R1505*%
X232468000Y-114655600D03*
X233368000Y-114655600D03*
%TD*%
D19*
%TO.C,L1601*%
X200914000Y-105606000D03*
X200914000Y-104706000D03*
%TD*%
D18*
%TO.C,R1503*%
X237914600Y-112623600D03*
X237014600Y-112623600D03*
%TD*%
D21*
%TO.C,C1101*%
X234509400Y-84266000D03*
X233409400Y-84266000D03*
%TD*%
D67*
%TO.C,D1501*%
X261075900Y-98733300D03*
X260425900Y-98733300D03*
X259775900Y-98733300D03*
X259775900Y-96833300D03*
X260425900Y-96833300D03*
X261075900Y-96833300D03*
%TD*%
D21*
%TO.C,C1602*%
X202116600Y-104673400D03*
X203216600Y-104673400D03*
%TD*%
%TO.C,C802*%
X206318800Y-81125800D03*
X207418800Y-81125800D03*
%TD*%
D23*
%TO.C,U1001*%
X235366600Y-77176500D03*
X235366600Y-77826500D03*
X235366600Y-78476500D03*
X233466600Y-78476500D03*
X233466600Y-77826500D03*
X233466600Y-77176500D03*
%TD*%
D21*
%TO.C,C1604*%
X202116600Y-105613200D03*
X203216600Y-105613200D03*
%TD*%
D32*
%TO.C,L401*%
X173024800Y-84898700D03*
X173024800Y-89751700D03*
%TD*%
D21*
%TO.C,C2803*%
X260910200Y-79267300D03*
X259810200Y-79267300D03*
%TD*%
D19*
%TO.C,R2201*%
X197510400Y-107104600D03*
X197510400Y-106204600D03*
%TD*%
D20*
%TO.C,C2003*%
X197129400Y-98002000D03*
X197129400Y-99102000D03*
%TD*%
D18*
%TO.C,R2001*%
X250665400Y-119278400D03*
X249765400Y-119278400D03*
%TD*%
D21*
%TO.C,C1723*%
X232368000Y-104368600D03*
X233468000Y-104368600D03*
%TD*%
D18*
%TO.C,R2004*%
X250665400Y-114858800D03*
X249765400Y-114858800D03*
%TD*%
D19*
%TO.C,R409*%
X178790600Y-83152400D03*
X178790600Y-82252400D03*
%TD*%
D61*
%TO.C,U1302*%
X230764900Y-134682500D03*
X230764900Y-134182500D03*
X230764900Y-133682500D03*
X230764900Y-133182500D03*
X233664900Y-133182500D03*
X233664900Y-133682500D03*
X233664900Y-134182500D03*
X233664900Y-134682500D03*
D62*
X232214900Y-133932500D03*
%TD*%
D21*
%TO.C,C1750*%
X232368000Y-97764600D03*
X233468000Y-97764600D03*
%TD*%
D68*
%TO.C,U2401*%
X223299100Y-76912200D03*
X223299100Y-77812200D03*
X223299100Y-78712200D03*
X223299100Y-79612200D03*
X223299100Y-80512200D03*
X223299100Y-81412200D03*
X223299100Y-82312200D03*
X223299100Y-83212200D03*
D69*
X222139100Y-84372200D03*
X221239100Y-84372200D03*
X220339100Y-84372200D03*
X219439100Y-84372200D03*
X218539100Y-84372200D03*
X217639100Y-84372200D03*
X216739100Y-84372200D03*
X215839100Y-84372200D03*
D70*
X214679100Y-83212200D03*
X214679100Y-82312200D03*
X214679100Y-81412200D03*
X214679100Y-80512200D03*
X214679100Y-79612200D03*
X214679100Y-78712200D03*
X214679100Y-77812200D03*
X214679100Y-76912200D03*
D71*
X215839100Y-75752200D03*
X216739100Y-75752200D03*
X217639100Y-75752200D03*
X218539100Y-75752200D03*
X219439100Y-75752200D03*
X220339100Y-75752200D03*
X221239100Y-75752200D03*
X222139100Y-75752200D03*
D72*
X224294100Y-76237200D03*
D73*
X224294100Y-77362200D03*
X224294100Y-78262200D03*
X224294100Y-79162200D03*
X224294100Y-80062200D03*
X224294100Y-80962200D03*
X224294100Y-81862200D03*
X224294100Y-82762200D03*
D74*
X224294100Y-83887200D03*
D75*
X222814100Y-85367200D03*
D76*
X221689100Y-85367200D03*
X220789100Y-85367200D03*
X219889100Y-85367200D03*
X218989100Y-85367200D03*
X218089100Y-85367200D03*
X217189100Y-85367200D03*
X216289100Y-85367200D03*
D77*
X215164100Y-85367200D03*
D74*
X213684100Y-83887200D03*
D78*
X213684100Y-82762200D03*
X213684100Y-81862200D03*
X213684100Y-80962200D03*
X213684100Y-80062200D03*
X213684100Y-79162200D03*
X213684100Y-78262200D03*
X213684100Y-77362200D03*
D72*
X213684100Y-76237200D03*
D77*
X215164100Y-74757200D03*
D79*
X216289100Y-74757200D03*
X217189100Y-74757200D03*
X218089100Y-74757200D03*
X218989100Y-74757200D03*
X219889100Y-74757200D03*
X220789100Y-74757200D03*
X221689100Y-74757200D03*
D75*
X222814100Y-74757200D03*
%TD*%
D22*
%TO.C,C408*%
X176731800Y-91465400D03*
X179731800Y-91465400D03*
%TD*%
D18*
%TO.C,R2003*%
X250665400Y-117068600D03*
X249765400Y-117068600D03*
%TD*%
%TO.C,R1001*%
X229872400Y-79101800D03*
X228972400Y-79101800D03*
%TD*%
D80*
%TO.C,U2504*%
X186322800Y-114983200D03*
X186322800Y-114483200D03*
X186322800Y-113983200D03*
X186322800Y-113483200D03*
X186322800Y-112983200D03*
X186322800Y-112483200D03*
X186322800Y-111983200D03*
X186322800Y-111483200D03*
D81*
X187022800Y-110783200D03*
X187522800Y-110783200D03*
X188022800Y-110783200D03*
X188522800Y-110783200D03*
X189022800Y-110783200D03*
X189522800Y-110783200D03*
X190022800Y-110783200D03*
X190522800Y-110783200D03*
D80*
X191222800Y-111483200D03*
X191222800Y-111983200D03*
X191222800Y-112483200D03*
X191222800Y-112983200D03*
X191222800Y-113483200D03*
X191222800Y-113983200D03*
X191222800Y-114483200D03*
X191222800Y-114983200D03*
D81*
X190522800Y-115683200D03*
X190022800Y-115683200D03*
X189522800Y-115683200D03*
X189022800Y-115683200D03*
X188522800Y-115683200D03*
X188022800Y-115683200D03*
X187522800Y-115683200D03*
X187022800Y-115683200D03*
D10*
X188772800Y-113233200D03*
%TD*%
D19*
%TO.C,R1410*%
X183438800Y-68765000D03*
X183438800Y-69665000D03*
%TD*%
D20*
%TO.C,C2206*%
X196392800Y-102581800D03*
X196392800Y-101481800D03*
%TD*%
D82*
%TO.C,U1402*%
X187102600Y-75546700D03*
X186702600Y-75546700D03*
X186302600Y-75546700D03*
X185902600Y-75546700D03*
X185502600Y-75546700D03*
X185102600Y-75546700D03*
X184702600Y-75546700D03*
D83*
X183965100Y-74809200D03*
X183965100Y-74409200D03*
X183965100Y-74009200D03*
X183965100Y-73609200D03*
X183965100Y-73209200D03*
X183965100Y-72809200D03*
X183965100Y-72409200D03*
D82*
X184702600Y-71671700D03*
X185102600Y-71671700D03*
X185502600Y-71671700D03*
X185902600Y-71671700D03*
X186302600Y-71671700D03*
X186702600Y-71671700D03*
X187102600Y-71671700D03*
D83*
X187840100Y-72409200D03*
X187840100Y-72809200D03*
X187840100Y-73209200D03*
X187840100Y-73609200D03*
X187840100Y-74009200D03*
X187840100Y-74409200D03*
X187840100Y-74809200D03*
D84*
X185902600Y-73609200D03*
%TD*%
D85*
%TO.C,U1002*%
X228967100Y-82192600D03*
X228967100Y-81692600D03*
X228967100Y-81192600D03*
X228967100Y-80692600D03*
X228967100Y-80192600D03*
X231392100Y-80192600D03*
X231392100Y-80692600D03*
X231392100Y-81192600D03*
X231392100Y-81692600D03*
X231392100Y-82192600D03*
D36*
X230179600Y-81192600D03*
%TD*%
D19*
%TO.C,R1404*%
X186359800Y-68765000D03*
X186359800Y-69665000D03*
%TD*%
D25*
%TO.C,U1101*%
X233559400Y-86771000D03*
X233959400Y-86771000D03*
X234359400Y-86771000D03*
X233559400Y-86371000D03*
X233959400Y-86371000D03*
X234359400Y-86371000D03*
X233559400Y-85971000D03*
X233959400Y-85971000D03*
X234359400Y-85971000D03*
X233559400Y-85571000D03*
X233959400Y-85571000D03*
X234359400Y-85571000D03*
%TD*%
D34*
%TO.C,TP1601*%
X214350600Y-122809000D03*
%TD*%
D18*
%TO.C,R2908*%
X199763800Y-68122800D03*
X198863800Y-68122800D03*
%TD*%
D20*
%TO.C,C1605*%
X206523978Y-109617600D03*
X206523978Y-108517600D03*
%TD*%
D34*
%TO.C,TP601*%
X174980600Y-112369600D03*
%TD*%
G36*
X267748494Y-42194906D02*
G01*
X267766800Y-42239100D01*
X267766800Y-43955700D01*
X267748494Y-43999894D01*
X267704300Y-44018200D01*
X259371100Y-44018200D01*
X259326906Y-43999894D01*
X259308600Y-43955700D01*
X259308600Y-42239100D01*
X259326906Y-42194906D01*
X259371100Y-42176600D01*
X267704300Y-42176600D01*
X267748494Y-42194906D01*
G37*
M02*
